%TF.GenerationSoftware,KiCad,Pcbnew,(6.0.1)*%
%TF.CreationDate,2022-02-13T18:41:53+00:00*%
%TF.ProjectId,module-io,6d6f6475-6c65-42d6-996f-2e6b69636164,rev?*%
%TF.SameCoordinates,Original*%
%TF.FileFunction,Paste,Top*%
%TF.FilePolarity,Positive*%
%FSLAX46Y46*%
G04 Gerber Fmt 4.6, Leading zero omitted, Abs format (unit mm)*
G04 Created by KiCad (PCBNEW (6.0.1)) date 2022-02-13 18:41:53*
%MOMM*%
%LPD*%
G01*
G04 APERTURE LIST*
G04 Aperture macros list*
%AMRoundRect*
0 Rectangle with rounded corners*
0 $1 Rounding radius*
0 $2 $3 $4 $5 $6 $7 $8 $9 X,Y pos of 4 corners*
0 Add a 4 corners polygon primitive as box body*
4,1,4,$2,$3,$4,$5,$6,$7,$8,$9,$2,$3,0*
0 Add four circle primitives for the rounded corners*
1,1,$1+$1,$2,$3*
1,1,$1+$1,$4,$5*
1,1,$1+$1,$6,$7*
1,1,$1+$1,$8,$9*
0 Add four rect primitives between the rounded corners*
20,1,$1+$1,$2,$3,$4,$5,0*
20,1,$1+$1,$4,$5,$6,$7,0*
20,1,$1+$1,$6,$7,$8,$9,0*
20,1,$1+$1,$8,$9,$2,$3,0*%
G04 Aperture macros list end*
%ADD10R,3.600000X2.600000*%
%ADD11RoundRect,0.250000X0.475000X-0.337500X0.475000X0.337500X-0.475000X0.337500X-0.475000X-0.337500X0*%
%ADD12RoundRect,0.250000X-0.475000X0.337500X-0.475000X-0.337500X0.475000X-0.337500X0.475000X0.337500X0*%
%ADD13RoundRect,0.250000X-0.337500X-0.475000X0.337500X-0.475000X0.337500X0.475000X-0.337500X0.475000X0*%
%ADD14RoundRect,0.250000X0.337500X0.475000X-0.337500X0.475000X-0.337500X-0.475000X0.337500X-0.475000X0*%
%ADD15RoundRect,0.212500X-0.400000X-0.212500X0.400000X-0.212500X0.400000X0.212500X-0.400000X0.212500X0*%
%ADD16RoundRect,0.212500X-0.212500X0.400000X-0.212500X-0.400000X0.212500X-0.400000X0.212500X0.400000X0*%
%ADD17R,0.900000X0.800000*%
%ADD18R,0.800000X0.900000*%
%ADD19RoundRect,0.250000X-0.450000X0.350000X-0.450000X-0.350000X0.450000X-0.350000X0.450000X0.350000X0*%
%ADD20RoundRect,0.250000X0.450000X-0.350000X0.450000X0.350000X-0.450000X0.350000X-0.450000X-0.350000X0*%
%ADD21RoundRect,0.250000X-0.350000X-0.450000X0.350000X-0.450000X0.350000X0.450000X-0.350000X0.450000X0*%
%ADD22RoundRect,0.250000X0.350000X0.450000X-0.350000X0.450000X-0.350000X-0.450000X0.350000X-0.450000X0*%
%ADD23RoundRect,0.150000X0.150000X-0.825000X0.150000X0.825000X-0.150000X0.825000X-0.150000X-0.825000X0*%
%ADD24RoundRect,0.150000X-0.825000X-0.150000X0.825000X-0.150000X0.825000X0.150000X-0.825000X0.150000X0*%
G04 APERTURE END LIST*
D10*
%TO.C,BT1*%
X144500000Y-63650000D03*
X144500000Y-34350000D03*
%TD*%
D11*
%TO.C,C5*%
X134925000Y-37775000D03*
X134925000Y-35700000D03*
%TD*%
D12*
%TO.C,C6*%
X134925000Y-39600000D03*
X134925000Y-41675000D03*
%TD*%
D13*
%TO.C,C7*%
X156800000Y-66950000D03*
X158875000Y-66950000D03*
%TD*%
%TO.C,C8*%
X162700000Y-67025000D03*
X164775000Y-67025000D03*
%TD*%
D14*
%TO.C,C9*%
X160050000Y-80500000D03*
X157975000Y-80500000D03*
%TD*%
D13*
%TO.C,C10*%
X135400000Y-73450000D03*
X137475000Y-73450000D03*
%TD*%
D15*
%TO.C,D1*%
X130215000Y-29490000D03*
X131840000Y-29490000D03*
%TD*%
%TO.C,D2*%
X130225000Y-34580000D03*
X131850000Y-34580000D03*
%TD*%
D16*
%TO.C,D3*%
X166475000Y-60475000D03*
X166475000Y-62100000D03*
%TD*%
D15*
%TO.C,D5*%
X130250000Y-43975000D03*
X131875000Y-43975000D03*
%TD*%
%TO.C,D6*%
X130225000Y-49075000D03*
X131850000Y-49075000D03*
%TD*%
%TO.C,D9*%
X130200000Y-64325000D03*
X131825000Y-64325000D03*
%TD*%
%TO.C,D10*%
X130225000Y-69375000D03*
X131850000Y-69375000D03*
%TD*%
%TO.C,D11*%
X130225000Y-74450000D03*
X131850000Y-74450000D03*
%TD*%
%TO.C,D12*%
X130215000Y-40475000D03*
X131840000Y-40475000D03*
%TD*%
%TO.C,D13*%
X130225000Y-45500000D03*
X131850000Y-45500000D03*
%TD*%
%TO.C,D14*%
X130225000Y-50575000D03*
X131850000Y-50575000D03*
%TD*%
%TO.C,D15*%
X130227500Y-55629533D03*
X131852500Y-55629533D03*
%TD*%
%TO.C,D16*%
X130225000Y-60700000D03*
X131850000Y-60700000D03*
%TD*%
%TO.C,D17*%
X130225000Y-65800000D03*
X131850000Y-65800000D03*
%TD*%
%TO.C,D18*%
X130225000Y-70900000D03*
X131850000Y-70900000D03*
%TD*%
%TO.C,D19*%
X130200000Y-75975000D03*
X131825000Y-75975000D03*
%TD*%
%TO.C,D20*%
X149812500Y-36775000D03*
X151437500Y-36775000D03*
%TD*%
D17*
%TO.C,D21*%
X136425000Y-80950000D03*
X136425000Y-79050000D03*
X134425000Y-80000000D03*
%TD*%
%TO.C,D22*%
X136425000Y-77350000D03*
X136425000Y-75450000D03*
X134425000Y-76400000D03*
%TD*%
D18*
%TO.C,D23*%
X150175000Y-70700000D03*
X152075000Y-70700000D03*
X151125000Y-68700000D03*
%TD*%
%TO.C,D24*%
X153925000Y-70700000D03*
X155825000Y-70700000D03*
X154875000Y-68700000D03*
%TD*%
D17*
%TO.C,Q1*%
X156750000Y-29972000D03*
X156750000Y-31872000D03*
X158750000Y-30922000D03*
%TD*%
%TO.C,Q2*%
X156750000Y-26228000D03*
X156750000Y-28128000D03*
X158750000Y-27178000D03*
%TD*%
%TO.C,Q3*%
X180075000Y-53375000D03*
X180075000Y-51475000D03*
X178075000Y-52425000D03*
%TD*%
%TO.C,Q5*%
X164592000Y-52578000D03*
X164592000Y-54478000D03*
X166592000Y-53528000D03*
%TD*%
%TO.C,Q6*%
X178070000Y-55510000D03*
X178070000Y-57410000D03*
X180070000Y-56460000D03*
%TD*%
%TO.C,Q7*%
X185134000Y-77846000D03*
X185134000Y-75946000D03*
X183134000Y-76896000D03*
%TD*%
%TO.C,Q8*%
X163800000Y-81370000D03*
X163800000Y-79470000D03*
X161800000Y-80420000D03*
%TD*%
%TO.C,Q9*%
X154225000Y-67100000D03*
X154225000Y-65200000D03*
X152225000Y-66150000D03*
%TD*%
D19*
%TO.C,R2*%
X160574533Y-30004000D03*
X160574533Y-32004000D03*
%TD*%
D20*
%TO.C,R4*%
X160574533Y-28164000D03*
X160574533Y-26164000D03*
%TD*%
%TO.C,R5*%
X166250000Y-58575000D03*
X166250000Y-56575000D03*
%TD*%
D21*
%TO.C,R14*%
X178125000Y-49425000D03*
X180125000Y-49425000D03*
%TD*%
D22*
%TO.C,R16*%
X166200000Y-44050000D03*
X164200000Y-44050000D03*
%TD*%
D21*
%TO.C,R31*%
X137414000Y-36322000D03*
X139414000Y-36322000D03*
%TD*%
D22*
%TO.C,R32*%
X159625000Y-68950000D03*
X157625000Y-68950000D03*
%TD*%
%TO.C,R33*%
X161950000Y-59750000D03*
X159950000Y-59750000D03*
%TD*%
D21*
%TO.C,R35*%
X162814000Y-69850000D03*
X164814000Y-69850000D03*
%TD*%
%TO.C,R36*%
X171736000Y-64770000D03*
X173736000Y-64770000D03*
%TD*%
D20*
%TO.C,R37*%
X165862000Y-81026000D03*
X165862000Y-79026000D03*
%TD*%
D21*
%TO.C,R38*%
X156125000Y-64250000D03*
X158125000Y-64250000D03*
%TD*%
%TO.C,R39*%
X170466000Y-79248000D03*
X172466000Y-79248000D03*
%TD*%
%TO.C,R40*%
X178150000Y-47340000D03*
X180150000Y-47340000D03*
%TD*%
D23*
%TO.C,U5*%
X166555000Y-72175000D03*
X167825000Y-72175000D03*
X169095000Y-72175000D03*
X170365000Y-72175000D03*
X171635000Y-72175000D03*
X172905000Y-72175000D03*
X174175000Y-72175000D03*
X175445000Y-72175000D03*
X175445000Y-67225000D03*
X174175000Y-67225000D03*
X172905000Y-67225000D03*
X171635000Y-67225000D03*
X170365000Y-67225000D03*
X169095000Y-67225000D03*
X167825000Y-67225000D03*
X166555000Y-67225000D03*
%TD*%
%TO.C,U9*%
X139190000Y-78475000D03*
X140460000Y-78475000D03*
X141730000Y-78475000D03*
X143000000Y-78475000D03*
X144270000Y-78475000D03*
X145540000Y-78475000D03*
X146810000Y-78475000D03*
X146810000Y-73525000D03*
X145540000Y-73525000D03*
X144270000Y-73525000D03*
X143000000Y-73525000D03*
X141730000Y-73525000D03*
X140460000Y-73525000D03*
X139190000Y-73525000D03*
%TD*%
D24*
%TO.C,U10*%
X150525000Y-72190000D03*
X150525000Y-73460000D03*
X150525000Y-74730000D03*
X150525000Y-76000000D03*
X150525000Y-77270000D03*
X150525000Y-78540000D03*
X150525000Y-79810000D03*
X155475000Y-79810000D03*
X155475000Y-78540000D03*
X155475000Y-77270000D03*
X155475000Y-76000000D03*
X155475000Y-74730000D03*
X155475000Y-73460000D03*
X155475000Y-72190000D03*
%TD*%
D15*
%TO.C,D4*%
X130227500Y-38815000D03*
X131852500Y-38815000D03*
%TD*%
D14*
%TO.C,C12*%
X148250000Y-67275000D03*
X146175000Y-67275000D03*
%TD*%
D13*
%TO.C,C13*%
X143725000Y-70800000D03*
X145800000Y-70800000D03*
%TD*%
D15*
%TO.C,D8*%
X130227500Y-59229533D03*
X131852500Y-59229533D03*
%TD*%
D17*
%TO.C,Q4*%
X164275000Y-46275000D03*
X164275000Y-48175000D03*
X166275000Y-47225000D03*
%TD*%
D20*
%TO.C,R34*%
X163840000Y-63150000D03*
X163840000Y-61150000D03*
%TD*%
D15*
%TO.C,D7*%
X130225000Y-54150000D03*
X131850000Y-54150000D03*
%TD*%
D19*
%TO.C,R30*%
X151500000Y-32500000D03*
X151500000Y-34500000D03*
%TD*%
D14*
%TO.C,C11*%
X159705000Y-70970000D03*
X157630000Y-70970000D03*
%TD*%
M02*
