%TF.GenerationSoftware,KiCad,Pcbnew,(6.0.1)*%
%TF.CreationDate,2022-02-13T12:19:39+00:00*%
%TF.ProjectId,module-io,6d6f6475-6c65-42d6-996f-2e6b69636164,rev?*%
%TF.SameCoordinates,Original*%
%TF.FileFunction,Legend,Top*%
%TF.FilePolarity,Positive*%
%FSLAX46Y46*%
G04 Gerber Fmt 4.6, Leading zero omitted, Abs format (unit mm)*
G04 Created by KiCad (PCBNEW (6.0.1)) date 2022-02-13 12:19:39*
%MOMM*%
%LPD*%
G01*
G04 APERTURE LIST*
%ADD10C,0.120000*%
%ADD11C,0.150000*%
G04 APERTURE END LIST*
D10*
X164846000Y-60198000D02*
X164592000Y-60198000D01*
X165354000Y-57150000D02*
X165100000Y-57150000D01*
X165354000Y-55626000D02*
X165100000Y-55626000D01*
X165354000Y-59436000D02*
X165354000Y-55626000D01*
X165608000Y-59436000D02*
X165354000Y-59436000D01*
X164846000Y-57658000D02*
X164592000Y-57658000D01*
X164846000Y-61722000D02*
X164846000Y-57658000D01*
X133604000Y-74676000D02*
X134366000Y-74676000D01*
X133604000Y-74676000D02*
X133604000Y-75692000D01*
X133604000Y-75184000D02*
X133604000Y-74676000D01*
X133604000Y-76962000D02*
X132588000Y-76962000D01*
X133096000Y-75184000D02*
X133604000Y-75184000D01*
X133096000Y-76962000D02*
X133096000Y-75184000D01*
D11*
%TO.C,J3*%
X157406666Y-78322380D02*
X157406666Y-79036666D01*
X157359047Y-79179523D01*
X157263809Y-79274761D01*
X157120952Y-79322380D01*
X157025714Y-79322380D01*
X157787619Y-78322380D02*
X158406666Y-78322380D01*
X158073333Y-78703333D01*
X158216190Y-78703333D01*
X158311428Y-78750952D01*
X158359047Y-78798571D01*
X158406666Y-78893809D01*
X158406666Y-79131904D01*
X158359047Y-79227142D01*
X158311428Y-79274761D01*
X158216190Y-79322380D01*
X157930476Y-79322380D01*
X157835238Y-79274761D01*
X157787619Y-79227142D01*
X158962380Y-77644285D02*
X158962380Y-78215714D01*
X158962380Y-77930000D02*
X157962380Y-77930000D01*
X158105238Y-78025238D01*
X158200476Y-78120476D01*
X158248095Y-78215714D01*
X157962380Y-73063333D02*
X157962380Y-72444285D01*
X158343333Y-72777619D01*
X158343333Y-72634761D01*
X158390952Y-72539523D01*
X158438571Y-72491904D01*
X158533809Y-72444285D01*
X158771904Y-72444285D01*
X158867142Y-72491904D01*
X158914761Y-72539523D01*
X158962380Y-72634761D01*
X158962380Y-72920476D01*
X158914761Y-73015714D01*
X158867142Y-73063333D01*
%TO.C,JP3*%
X183366666Y-63852380D02*
X183366666Y-64566666D01*
X183319047Y-64709523D01*
X183223809Y-64804761D01*
X183080952Y-64852380D01*
X182985714Y-64852380D01*
X183842857Y-64852380D02*
X183842857Y-63852380D01*
X184223809Y-63852380D01*
X184319047Y-63900000D01*
X184366666Y-63947619D01*
X184414285Y-64042857D01*
X184414285Y-64185714D01*
X184366666Y-64280952D01*
X184319047Y-64328571D01*
X184223809Y-64376190D01*
X183842857Y-64376190D01*
X184747619Y-63852380D02*
X185366666Y-63852380D01*
X185033333Y-64233333D01*
X185176190Y-64233333D01*
X185271428Y-64280952D01*
X185319047Y-64328571D01*
X185366666Y-64423809D01*
X185366666Y-64661904D01*
X185319047Y-64757142D01*
X185271428Y-64804761D01*
X185176190Y-64852380D01*
X184890476Y-64852380D01*
X184795238Y-64804761D01*
X184747619Y-64757142D01*
%TO.C,Y1*%
X154743809Y-44046190D02*
X154743809Y-44522380D01*
X154410476Y-43522380D02*
X154743809Y-44046190D01*
X155077142Y-43522380D01*
X155934285Y-44522380D02*
X155362857Y-44522380D01*
X155648571Y-44522380D02*
X155648571Y-43522380D01*
X155553333Y-43665238D01*
X155458095Y-43760476D01*
X155362857Y-43808095D01*
%TO.C,C13*%
X140757142Y-71257142D02*
X140709523Y-71304761D01*
X140566666Y-71352380D01*
X140471428Y-71352380D01*
X140328571Y-71304761D01*
X140233333Y-71209523D01*
X140185714Y-71114285D01*
X140138095Y-70923809D01*
X140138095Y-70780952D01*
X140185714Y-70590476D01*
X140233333Y-70495238D01*
X140328571Y-70400000D01*
X140471428Y-70352380D01*
X140566666Y-70352380D01*
X140709523Y-70400000D01*
X140757142Y-70447619D01*
X141709523Y-71352380D02*
X141138095Y-71352380D01*
X141423809Y-71352380D02*
X141423809Y-70352380D01*
X141328571Y-70495238D01*
X141233333Y-70590476D01*
X141138095Y-70638095D01*
X142042857Y-70352380D02*
X142661904Y-70352380D01*
X142328571Y-70733333D01*
X142471428Y-70733333D01*
X142566666Y-70780952D01*
X142614285Y-70828571D01*
X142661904Y-70923809D01*
X142661904Y-71161904D01*
X142614285Y-71257142D01*
X142566666Y-71304761D01*
X142471428Y-71352380D01*
X142185714Y-71352380D01*
X142090476Y-71304761D01*
X142042857Y-71257142D01*
%TO.C,C12*%
X143207142Y-67657142D02*
X143159523Y-67704761D01*
X143016666Y-67752380D01*
X142921428Y-67752380D01*
X142778571Y-67704761D01*
X142683333Y-67609523D01*
X142635714Y-67514285D01*
X142588095Y-67323809D01*
X142588095Y-67180952D01*
X142635714Y-66990476D01*
X142683333Y-66895238D01*
X142778571Y-66800000D01*
X142921428Y-66752380D01*
X143016666Y-66752380D01*
X143159523Y-66800000D01*
X143207142Y-66847619D01*
X144159523Y-67752380D02*
X143588095Y-67752380D01*
X143873809Y-67752380D02*
X143873809Y-66752380D01*
X143778571Y-66895238D01*
X143683333Y-66990476D01*
X143588095Y-67038095D01*
X144540476Y-66847619D02*
X144588095Y-66800000D01*
X144683333Y-66752380D01*
X144921428Y-66752380D01*
X145016666Y-66800000D01*
X145064285Y-66847619D01*
X145111904Y-66942857D01*
X145111904Y-67038095D01*
X145064285Y-67180952D01*
X144492857Y-67752380D01*
X145111904Y-67752380D01*
%TO.C,J11*%
X183777380Y-62184523D02*
X184491666Y-62184523D01*
X184634523Y-62232142D01*
X184729761Y-62327380D01*
X184777380Y-62470238D01*
X184777380Y-62565476D01*
X184777380Y-61184523D02*
X184777380Y-61755952D01*
X184777380Y-61470238D02*
X183777380Y-61470238D01*
X183920238Y-61565476D01*
X184015476Y-61660714D01*
X184063095Y-61755952D01*
X184777380Y-60232142D02*
X184777380Y-60803571D01*
X184777380Y-60517857D02*
X183777380Y-60517857D01*
X183920238Y-60613095D01*
X184015476Y-60708333D01*
X184063095Y-60803571D01*
%TO.C,H10*%
X128031904Y-79132380D02*
X128031904Y-78132380D01*
X128031904Y-78608571D02*
X128603333Y-78608571D01*
X128603333Y-79132380D02*
X128603333Y-78132380D01*
X129603333Y-79132380D02*
X129031904Y-79132380D01*
X129317619Y-79132380D02*
X129317619Y-78132380D01*
X129222380Y-78275238D01*
X129127142Y-78370476D01*
X129031904Y-78418095D01*
X130222380Y-78132380D02*
X130317619Y-78132380D01*
X130412857Y-78180000D01*
X130460476Y-78227619D01*
X130508095Y-78322857D01*
X130555714Y-78513333D01*
X130555714Y-78751428D01*
X130508095Y-78941904D01*
X130460476Y-79037142D01*
X130412857Y-79084761D01*
X130317619Y-79132380D01*
X130222380Y-79132380D01*
X130127142Y-79084761D01*
X130079523Y-79037142D01*
X130031904Y-78941904D01*
X129984285Y-78751428D01*
X129984285Y-78513333D01*
X130031904Y-78322857D01*
X130079523Y-78227619D01*
X130127142Y-78180000D01*
X130222380Y-78132380D01*
%TO.C,H9*%
X128988095Y-73052380D02*
X128988095Y-72052380D01*
X128988095Y-72528571D02*
X129559523Y-72528571D01*
X129559523Y-73052380D02*
X129559523Y-72052380D01*
X130083333Y-73052380D02*
X130273809Y-73052380D01*
X130369047Y-73004761D01*
X130416666Y-72957142D01*
X130511904Y-72814285D01*
X130559523Y-72623809D01*
X130559523Y-72242857D01*
X130511904Y-72147619D01*
X130464285Y-72100000D01*
X130369047Y-72052380D01*
X130178571Y-72052380D01*
X130083333Y-72100000D01*
X130035714Y-72147619D01*
X129988095Y-72242857D01*
X129988095Y-72480952D01*
X130035714Y-72576190D01*
X130083333Y-72623809D01*
X130178571Y-72671428D01*
X130369047Y-72671428D01*
X130464285Y-72623809D01*
X130511904Y-72576190D01*
X130559523Y-72480952D01*
%TO.C,H8*%
X129138095Y-68052380D02*
X129138095Y-67052380D01*
X129138095Y-67528571D02*
X129709523Y-67528571D01*
X129709523Y-68052380D02*
X129709523Y-67052380D01*
X130328571Y-67480952D02*
X130233333Y-67433333D01*
X130185714Y-67385714D01*
X130138095Y-67290476D01*
X130138095Y-67242857D01*
X130185714Y-67147619D01*
X130233333Y-67100000D01*
X130328571Y-67052380D01*
X130519047Y-67052380D01*
X130614285Y-67100000D01*
X130661904Y-67147619D01*
X130709523Y-67242857D01*
X130709523Y-67290476D01*
X130661904Y-67385714D01*
X130614285Y-67433333D01*
X130519047Y-67480952D01*
X130328571Y-67480952D01*
X130233333Y-67528571D01*
X130185714Y-67576190D01*
X130138095Y-67671428D01*
X130138095Y-67861904D01*
X130185714Y-67957142D01*
X130233333Y-68004761D01*
X130328571Y-68052380D01*
X130519047Y-68052380D01*
X130614285Y-68004761D01*
X130661904Y-67957142D01*
X130709523Y-67861904D01*
X130709523Y-67671428D01*
X130661904Y-67576190D01*
X130614285Y-67528571D01*
X130519047Y-67480952D01*
%TO.C,H7*%
X128988095Y-63002380D02*
X128988095Y-62002380D01*
X128988095Y-62478571D02*
X129559523Y-62478571D01*
X129559523Y-63002380D02*
X129559523Y-62002380D01*
X129940476Y-62002380D02*
X130607142Y-62002380D01*
X130178571Y-63002380D01*
%TO.C,H6*%
X128988095Y-57802380D02*
X128988095Y-56802380D01*
X128988095Y-57278571D02*
X129559523Y-57278571D01*
X129559523Y-57802380D02*
X129559523Y-56802380D01*
X130464285Y-56802380D02*
X130273809Y-56802380D01*
X130178571Y-56850000D01*
X130130952Y-56897619D01*
X130035714Y-57040476D01*
X129988095Y-57230952D01*
X129988095Y-57611904D01*
X130035714Y-57707142D01*
X130083333Y-57754761D01*
X130178571Y-57802380D01*
X130369047Y-57802380D01*
X130464285Y-57754761D01*
X130511904Y-57707142D01*
X130559523Y-57611904D01*
X130559523Y-57373809D01*
X130511904Y-57278571D01*
X130464285Y-57230952D01*
X130369047Y-57183333D01*
X130178571Y-57183333D01*
X130083333Y-57230952D01*
X130035714Y-57278571D01*
X129988095Y-57373809D01*
%TO.C,H5*%
X129038095Y-52852380D02*
X129038095Y-51852380D01*
X129038095Y-52328571D02*
X129609523Y-52328571D01*
X129609523Y-52852380D02*
X129609523Y-51852380D01*
X130561904Y-51852380D02*
X130085714Y-51852380D01*
X130038095Y-52328571D01*
X130085714Y-52280952D01*
X130180952Y-52233333D01*
X130419047Y-52233333D01*
X130514285Y-52280952D01*
X130561904Y-52328571D01*
X130609523Y-52423809D01*
X130609523Y-52661904D01*
X130561904Y-52757142D01*
X130514285Y-52804761D01*
X130419047Y-52852380D01*
X130180952Y-52852380D01*
X130085714Y-52804761D01*
X130038095Y-52757142D01*
%TO.C,H4*%
X128988095Y-47752380D02*
X128988095Y-46752380D01*
X128988095Y-47228571D02*
X129559523Y-47228571D01*
X129559523Y-47752380D02*
X129559523Y-46752380D01*
X130464285Y-47085714D02*
X130464285Y-47752380D01*
X130226190Y-46704761D02*
X129988095Y-47419047D01*
X130607142Y-47419047D01*
%TO.C,H3*%
X129038095Y-37852380D02*
X129038095Y-36852380D01*
X129038095Y-37328571D02*
X129609523Y-37328571D01*
X129609523Y-37852380D02*
X129609523Y-36852380D01*
X129990476Y-36852380D02*
X130609523Y-36852380D01*
X130276190Y-37233333D01*
X130419047Y-37233333D01*
X130514285Y-37280952D01*
X130561904Y-37328571D01*
X130609523Y-37423809D01*
X130609523Y-37661904D01*
X130561904Y-37757142D01*
X130514285Y-37804761D01*
X130419047Y-37852380D01*
X130133333Y-37852380D01*
X130038095Y-37804761D01*
X129990476Y-37757142D01*
%TO.C,H2*%
X130152380Y-33011904D02*
X129152380Y-33011904D01*
X129628571Y-33011904D02*
X129628571Y-32440476D01*
X130152380Y-32440476D02*
X129152380Y-32440476D01*
X129247619Y-32011904D02*
X129200000Y-31964285D01*
X129152380Y-31869047D01*
X129152380Y-31630952D01*
X129200000Y-31535714D01*
X129247619Y-31488095D01*
X129342857Y-31440476D01*
X129438095Y-31440476D01*
X129580952Y-31488095D01*
X130152380Y-32059523D01*
X130152380Y-31440476D01*
%TO.C,H1*%
X129952380Y-27461904D02*
X128952380Y-27461904D01*
X129428571Y-27461904D02*
X129428571Y-26890476D01*
X129952380Y-26890476D02*
X128952380Y-26890476D01*
X129952380Y-25890476D02*
X129952380Y-26461904D01*
X129952380Y-26176190D02*
X128952380Y-26176190D01*
X129095238Y-26271428D01*
X129190476Y-26366666D01*
X129238095Y-26461904D01*
%TO.C,D4*%
X131111904Y-37852380D02*
X131111904Y-36852380D01*
X131350000Y-36852380D01*
X131492857Y-36900000D01*
X131588095Y-36995238D01*
X131635714Y-37090476D01*
X131683333Y-37280952D01*
X131683333Y-37423809D01*
X131635714Y-37614285D01*
X131588095Y-37709523D01*
X131492857Y-37804761D01*
X131350000Y-37852380D01*
X131111904Y-37852380D01*
X132540476Y-37185714D02*
X132540476Y-37852380D01*
X132302380Y-36804761D02*
X132064285Y-37519047D01*
X132683333Y-37519047D01*
%TO.C,U10*%
X148052380Y-74088095D02*
X148861904Y-74088095D01*
X148957142Y-74040476D01*
X149004761Y-73992857D01*
X149052380Y-73897619D01*
X149052380Y-73707142D01*
X149004761Y-73611904D01*
X148957142Y-73564285D01*
X148861904Y-73516666D01*
X148052380Y-73516666D01*
X149052380Y-72516666D02*
X149052380Y-73088095D01*
X149052380Y-72802380D02*
X148052380Y-72802380D01*
X148195238Y-72897619D01*
X148290476Y-72992857D01*
X148338095Y-73088095D01*
X148052380Y-71897619D02*
X148052380Y-71802380D01*
X148100000Y-71707142D01*
X148147619Y-71659523D01*
X148242857Y-71611904D01*
X148433333Y-71564285D01*
X148671428Y-71564285D01*
X148861904Y-71611904D01*
X148957142Y-71659523D01*
X149004761Y-71707142D01*
X149052380Y-71802380D01*
X149052380Y-71897619D01*
X149004761Y-71992857D01*
X148957142Y-72040476D01*
X148861904Y-72088095D01*
X148671428Y-72135714D01*
X148433333Y-72135714D01*
X148242857Y-72088095D01*
X148147619Y-72040476D01*
X148100000Y-71992857D01*
X148052380Y-71897619D01*
%TO.C,U9*%
X137172380Y-76761904D02*
X137981904Y-76761904D01*
X138077142Y-76714285D01*
X138124761Y-76666666D01*
X138172380Y-76571428D01*
X138172380Y-76380952D01*
X138124761Y-76285714D01*
X138077142Y-76238095D01*
X137981904Y-76190476D01*
X137172380Y-76190476D01*
X138172380Y-75666666D02*
X138172380Y-75476190D01*
X138124761Y-75380952D01*
X138077142Y-75333333D01*
X137934285Y-75238095D01*
X137743809Y-75190476D01*
X137362857Y-75190476D01*
X137267619Y-75238095D01*
X137220000Y-75285714D01*
X137172380Y-75380952D01*
X137172380Y-75571428D01*
X137220000Y-75666666D01*
X137267619Y-75714285D01*
X137362857Y-75761904D01*
X137600952Y-75761904D01*
X137696190Y-75714285D01*
X137743809Y-75666666D01*
X137791428Y-75571428D01*
X137791428Y-75380952D01*
X137743809Y-75285714D01*
X137696190Y-75238095D01*
X137600952Y-75190476D01*
%TO.C,U5*%
X168338095Y-64752380D02*
X168338095Y-65561904D01*
X168385714Y-65657142D01*
X168433333Y-65704761D01*
X168528571Y-65752380D01*
X168719047Y-65752380D01*
X168814285Y-65704761D01*
X168861904Y-65657142D01*
X168909523Y-65561904D01*
X168909523Y-64752380D01*
X169861904Y-64752380D02*
X169385714Y-64752380D01*
X169338095Y-65228571D01*
X169385714Y-65180952D01*
X169480952Y-65133333D01*
X169719047Y-65133333D01*
X169814285Y-65180952D01*
X169861904Y-65228571D01*
X169909523Y-65323809D01*
X169909523Y-65561904D01*
X169861904Y-65657142D01*
X169814285Y-65704761D01*
X169719047Y-65752380D01*
X169480952Y-65752380D01*
X169385714Y-65704761D01*
X169338095Y-65657142D01*
%TO.C,TP13*%
X153451904Y-57714380D02*
X154023333Y-57714380D01*
X153737619Y-58714380D02*
X153737619Y-57714380D01*
X154356666Y-58714380D02*
X154356666Y-57714380D01*
X154737619Y-57714380D01*
X154832857Y-57762000D01*
X154880476Y-57809619D01*
X154928095Y-57904857D01*
X154928095Y-58047714D01*
X154880476Y-58142952D01*
X154832857Y-58190571D01*
X154737619Y-58238190D01*
X154356666Y-58238190D01*
X155880476Y-58714380D02*
X155309047Y-58714380D01*
X155594761Y-58714380D02*
X155594761Y-57714380D01*
X155499523Y-57857238D01*
X155404285Y-57952476D01*
X155309047Y-58000095D01*
X156213809Y-57714380D02*
X156832857Y-57714380D01*
X156499523Y-58095333D01*
X156642380Y-58095333D01*
X156737619Y-58142952D01*
X156785238Y-58190571D01*
X156832857Y-58285809D01*
X156832857Y-58523904D01*
X156785238Y-58619142D01*
X156737619Y-58666761D01*
X156642380Y-58714380D01*
X156356666Y-58714380D01*
X156261428Y-58666761D01*
X156213809Y-58619142D01*
%TO.C,TP11*%
X174152380Y-80988095D02*
X174152380Y-80416666D01*
X175152380Y-80702380D02*
X174152380Y-80702380D01*
X175152380Y-80083333D02*
X174152380Y-80083333D01*
X174152380Y-79702380D01*
X174200000Y-79607142D01*
X174247619Y-79559523D01*
X174342857Y-79511904D01*
X174485714Y-79511904D01*
X174580952Y-79559523D01*
X174628571Y-79607142D01*
X174676190Y-79702380D01*
X174676190Y-80083333D01*
X175152380Y-78559523D02*
X175152380Y-79130952D01*
X175152380Y-78845238D02*
X174152380Y-78845238D01*
X174295238Y-78940476D01*
X174390476Y-79035714D01*
X174438095Y-79130952D01*
X175152380Y-77607142D02*
X175152380Y-78178571D01*
X175152380Y-77892857D02*
X174152380Y-77892857D01*
X174295238Y-77988095D01*
X174390476Y-78083333D01*
X174438095Y-78178571D01*
%TO.C,TP10*%
X178611904Y-76702380D02*
X179183333Y-76702380D01*
X178897619Y-77702380D02*
X178897619Y-76702380D01*
X179516666Y-77702380D02*
X179516666Y-76702380D01*
X179897619Y-76702380D01*
X179992857Y-76750000D01*
X180040476Y-76797619D01*
X180088095Y-76892857D01*
X180088095Y-77035714D01*
X180040476Y-77130952D01*
X179992857Y-77178571D01*
X179897619Y-77226190D01*
X179516666Y-77226190D01*
X181040476Y-77702380D02*
X180469047Y-77702380D01*
X180754761Y-77702380D02*
X180754761Y-76702380D01*
X180659523Y-76845238D01*
X180564285Y-76940476D01*
X180469047Y-76988095D01*
X181659523Y-76702380D02*
X181754761Y-76702380D01*
X181850000Y-76750000D01*
X181897619Y-76797619D01*
X181945238Y-76892857D01*
X181992857Y-77083333D01*
X181992857Y-77321428D01*
X181945238Y-77511904D01*
X181897619Y-77607142D01*
X181850000Y-77654761D01*
X181754761Y-77702380D01*
X181659523Y-77702380D01*
X181564285Y-77654761D01*
X181516666Y-77607142D01*
X181469047Y-77511904D01*
X181421428Y-77321428D01*
X181421428Y-77083333D01*
X181469047Y-76892857D01*
X181516666Y-76797619D01*
X181564285Y-76750000D01*
X181659523Y-76702380D01*
%TO.C,TP9*%
X139388095Y-32402380D02*
X139959523Y-32402380D01*
X139673809Y-33402380D02*
X139673809Y-32402380D01*
X140292857Y-33402380D02*
X140292857Y-32402380D01*
X140673809Y-32402380D01*
X140769047Y-32450000D01*
X140816666Y-32497619D01*
X140864285Y-32592857D01*
X140864285Y-32735714D01*
X140816666Y-32830952D01*
X140769047Y-32878571D01*
X140673809Y-32926190D01*
X140292857Y-32926190D01*
X141340476Y-33402380D02*
X141530952Y-33402380D01*
X141626190Y-33354761D01*
X141673809Y-33307142D01*
X141769047Y-33164285D01*
X141816666Y-32973809D01*
X141816666Y-32592857D01*
X141769047Y-32497619D01*
X141721428Y-32450000D01*
X141626190Y-32402380D01*
X141435714Y-32402380D01*
X141340476Y-32450000D01*
X141292857Y-32497619D01*
X141245238Y-32592857D01*
X141245238Y-32830952D01*
X141292857Y-32926190D01*
X141340476Y-32973809D01*
X141435714Y-33021428D01*
X141626190Y-33021428D01*
X141721428Y-32973809D01*
X141769047Y-32926190D01*
X141816666Y-32830952D01*
%TO.C,TP8*%
X130388095Y-32702380D02*
X130959523Y-32702380D01*
X130673809Y-33702380D02*
X130673809Y-32702380D01*
X131292857Y-33702380D02*
X131292857Y-32702380D01*
X131673809Y-32702380D01*
X131769047Y-32750000D01*
X131816666Y-32797619D01*
X131864285Y-32892857D01*
X131864285Y-33035714D01*
X131816666Y-33130952D01*
X131769047Y-33178571D01*
X131673809Y-33226190D01*
X131292857Y-33226190D01*
X132435714Y-33130952D02*
X132340476Y-33083333D01*
X132292857Y-33035714D01*
X132245238Y-32940476D01*
X132245238Y-32892857D01*
X132292857Y-32797619D01*
X132340476Y-32750000D01*
X132435714Y-32702380D01*
X132626190Y-32702380D01*
X132721428Y-32750000D01*
X132769047Y-32797619D01*
X132816666Y-32892857D01*
X132816666Y-32940476D01*
X132769047Y-33035714D01*
X132721428Y-33083333D01*
X132626190Y-33130952D01*
X132435714Y-33130952D01*
X132340476Y-33178571D01*
X132292857Y-33226190D01*
X132245238Y-33321428D01*
X132245238Y-33511904D01*
X132292857Y-33607142D01*
X132340476Y-33654761D01*
X132435714Y-33702380D01*
X132626190Y-33702380D01*
X132721428Y-33654761D01*
X132769047Y-33607142D01*
X132816666Y-33511904D01*
X132816666Y-33321428D01*
X132769047Y-33226190D01*
X132721428Y-33178571D01*
X132626190Y-33130952D01*
%TO.C,TP5*%
X152988095Y-26584380D02*
X153559523Y-26584380D01*
X153273809Y-27584380D02*
X153273809Y-26584380D01*
X153892857Y-27584380D02*
X153892857Y-26584380D01*
X154273809Y-26584380D01*
X154369047Y-26632000D01*
X154416666Y-26679619D01*
X154464285Y-26774857D01*
X154464285Y-26917714D01*
X154416666Y-27012952D01*
X154369047Y-27060571D01*
X154273809Y-27108190D01*
X153892857Y-27108190D01*
X155369047Y-26584380D02*
X154892857Y-26584380D01*
X154845238Y-27060571D01*
X154892857Y-27012952D01*
X154988095Y-26965333D01*
X155226190Y-26965333D01*
X155321428Y-27012952D01*
X155369047Y-27060571D01*
X155416666Y-27155809D01*
X155416666Y-27393904D01*
X155369047Y-27489142D01*
X155321428Y-27536761D01*
X155226190Y-27584380D01*
X154988095Y-27584380D01*
X154892857Y-27536761D01*
X154845238Y-27489142D01*
%TO.C,TP4*%
X149928095Y-26774380D02*
X150499523Y-26774380D01*
X150213809Y-27774380D02*
X150213809Y-26774380D01*
X150832857Y-27774380D02*
X150832857Y-26774380D01*
X151213809Y-26774380D01*
X151309047Y-26822000D01*
X151356666Y-26869619D01*
X151404285Y-26964857D01*
X151404285Y-27107714D01*
X151356666Y-27202952D01*
X151309047Y-27250571D01*
X151213809Y-27298190D01*
X150832857Y-27298190D01*
X152261428Y-27107714D02*
X152261428Y-27774380D01*
X152023333Y-26726761D02*
X151785238Y-27441047D01*
X152404285Y-27441047D01*
%TO.C,TP3*%
X155456095Y-46476380D02*
X156027523Y-46476380D01*
X155741809Y-47476380D02*
X155741809Y-46476380D01*
X156360857Y-47476380D02*
X156360857Y-46476380D01*
X156741809Y-46476380D01*
X156837047Y-46524000D01*
X156884666Y-46571619D01*
X156932285Y-46666857D01*
X156932285Y-46809714D01*
X156884666Y-46904952D01*
X156837047Y-46952571D01*
X156741809Y-47000190D01*
X156360857Y-47000190D01*
X157265619Y-46476380D02*
X157884666Y-46476380D01*
X157551333Y-46857333D01*
X157694190Y-46857333D01*
X157789428Y-46904952D01*
X157837047Y-46952571D01*
X157884666Y-47047809D01*
X157884666Y-47285904D01*
X157837047Y-47381142D01*
X157789428Y-47428761D01*
X157694190Y-47476380D01*
X157408476Y-47476380D01*
X157313238Y-47428761D01*
X157265619Y-47381142D01*
%TO.C,TP2*%
X165616095Y-24604380D02*
X166187523Y-24604380D01*
X165901809Y-25604380D02*
X165901809Y-24604380D01*
X166520857Y-25604380D02*
X166520857Y-24604380D01*
X166901809Y-24604380D01*
X166997047Y-24652000D01*
X167044666Y-24699619D01*
X167092285Y-24794857D01*
X167092285Y-24937714D01*
X167044666Y-25032952D01*
X166997047Y-25080571D01*
X166901809Y-25128190D01*
X166520857Y-25128190D01*
X167473238Y-24699619D02*
X167520857Y-24652000D01*
X167616095Y-24604380D01*
X167854190Y-24604380D01*
X167949428Y-24652000D01*
X167997047Y-24699619D01*
X168044666Y-24794857D01*
X168044666Y-24890095D01*
X167997047Y-25032952D01*
X167425619Y-25604380D01*
X168044666Y-25604380D01*
%TO.C,TP1*%
X162588095Y-24854380D02*
X163159523Y-24854380D01*
X162873809Y-25854380D02*
X162873809Y-24854380D01*
X163492857Y-25854380D02*
X163492857Y-24854380D01*
X163873809Y-24854380D01*
X163969047Y-24902000D01*
X164016666Y-24949619D01*
X164064285Y-25044857D01*
X164064285Y-25187714D01*
X164016666Y-25282952D01*
X163969047Y-25330571D01*
X163873809Y-25378190D01*
X163492857Y-25378190D01*
X165016666Y-25854380D02*
X164445238Y-25854380D01*
X164730952Y-25854380D02*
X164730952Y-24854380D01*
X164635714Y-24997238D01*
X164540476Y-25092476D01*
X164445238Y-25140095D01*
%TO.C,R40*%
X181982142Y-47827380D02*
X181648809Y-47351190D01*
X181410714Y-47827380D02*
X181410714Y-46827380D01*
X181791666Y-46827380D01*
X181886904Y-46875000D01*
X181934523Y-46922619D01*
X181982142Y-47017857D01*
X181982142Y-47160714D01*
X181934523Y-47255952D01*
X181886904Y-47303571D01*
X181791666Y-47351190D01*
X181410714Y-47351190D01*
X182839285Y-47160714D02*
X182839285Y-47827380D01*
X182601190Y-46779761D02*
X182363095Y-47494047D01*
X182982142Y-47494047D01*
X183553571Y-46827380D02*
X183648809Y-46827380D01*
X183744047Y-46875000D01*
X183791666Y-46922619D01*
X183839285Y-47017857D01*
X183886904Y-47208333D01*
X183886904Y-47446428D01*
X183839285Y-47636904D01*
X183791666Y-47732142D01*
X183744047Y-47779761D01*
X183648809Y-47827380D01*
X183553571Y-47827380D01*
X183458333Y-47779761D01*
X183410714Y-47732142D01*
X183363095Y-47636904D01*
X183315476Y-47446428D01*
X183315476Y-47208333D01*
X183363095Y-47017857D01*
X183410714Y-46922619D01*
X183458333Y-46875000D01*
X183553571Y-46827380D01*
%TO.C,R39*%
X170823142Y-81352380D02*
X170489809Y-80876190D01*
X170251714Y-81352380D02*
X170251714Y-80352380D01*
X170632666Y-80352380D01*
X170727904Y-80400000D01*
X170775523Y-80447619D01*
X170823142Y-80542857D01*
X170823142Y-80685714D01*
X170775523Y-80780952D01*
X170727904Y-80828571D01*
X170632666Y-80876190D01*
X170251714Y-80876190D01*
X171156476Y-80352380D02*
X171775523Y-80352380D01*
X171442190Y-80733333D01*
X171585047Y-80733333D01*
X171680285Y-80780952D01*
X171727904Y-80828571D01*
X171775523Y-80923809D01*
X171775523Y-81161904D01*
X171727904Y-81257142D01*
X171680285Y-81304761D01*
X171585047Y-81352380D01*
X171299333Y-81352380D01*
X171204095Y-81304761D01*
X171156476Y-81257142D01*
X172251714Y-81352380D02*
X172442190Y-81352380D01*
X172537428Y-81304761D01*
X172585047Y-81257142D01*
X172680285Y-81114285D01*
X172727904Y-80923809D01*
X172727904Y-80542857D01*
X172680285Y-80447619D01*
X172632666Y-80400000D01*
X172537428Y-80352380D01*
X172346952Y-80352380D01*
X172251714Y-80400000D01*
X172204095Y-80447619D01*
X172156476Y-80542857D01*
X172156476Y-80780952D01*
X172204095Y-80876190D01*
X172251714Y-80923809D01*
X172346952Y-80971428D01*
X172537428Y-80971428D01*
X172632666Y-80923809D01*
X172680285Y-80876190D01*
X172727904Y-80780952D01*
%TO.C,R38*%
X156482142Y-63052380D02*
X156148809Y-62576190D01*
X155910714Y-63052380D02*
X155910714Y-62052380D01*
X156291666Y-62052380D01*
X156386904Y-62100000D01*
X156434523Y-62147619D01*
X156482142Y-62242857D01*
X156482142Y-62385714D01*
X156434523Y-62480952D01*
X156386904Y-62528571D01*
X156291666Y-62576190D01*
X155910714Y-62576190D01*
X156815476Y-62052380D02*
X157434523Y-62052380D01*
X157101190Y-62433333D01*
X157244047Y-62433333D01*
X157339285Y-62480952D01*
X157386904Y-62528571D01*
X157434523Y-62623809D01*
X157434523Y-62861904D01*
X157386904Y-62957142D01*
X157339285Y-63004761D01*
X157244047Y-63052380D01*
X156958333Y-63052380D01*
X156863095Y-63004761D01*
X156815476Y-62957142D01*
X158005952Y-62480952D02*
X157910714Y-62433333D01*
X157863095Y-62385714D01*
X157815476Y-62290476D01*
X157815476Y-62242857D01*
X157863095Y-62147619D01*
X157910714Y-62100000D01*
X158005952Y-62052380D01*
X158196428Y-62052380D01*
X158291666Y-62100000D01*
X158339285Y-62147619D01*
X158386904Y-62242857D01*
X158386904Y-62290476D01*
X158339285Y-62385714D01*
X158291666Y-62433333D01*
X158196428Y-62480952D01*
X158005952Y-62480952D01*
X157910714Y-62528571D01*
X157863095Y-62576190D01*
X157815476Y-62671428D01*
X157815476Y-62861904D01*
X157863095Y-62957142D01*
X157910714Y-63004761D01*
X158005952Y-63052380D01*
X158196428Y-63052380D01*
X158291666Y-63004761D01*
X158339285Y-62957142D01*
X158386904Y-62861904D01*
X158386904Y-62671428D01*
X158339285Y-62576190D01*
X158291666Y-62528571D01*
X158196428Y-62480952D01*
%TO.C,R37*%
X168102380Y-80642857D02*
X167626190Y-80976190D01*
X168102380Y-81214285D02*
X167102380Y-81214285D01*
X167102380Y-80833333D01*
X167150000Y-80738095D01*
X167197619Y-80690476D01*
X167292857Y-80642857D01*
X167435714Y-80642857D01*
X167530952Y-80690476D01*
X167578571Y-80738095D01*
X167626190Y-80833333D01*
X167626190Y-81214285D01*
X167102380Y-80309523D02*
X167102380Y-79690476D01*
X167483333Y-80023809D01*
X167483333Y-79880952D01*
X167530952Y-79785714D01*
X167578571Y-79738095D01*
X167673809Y-79690476D01*
X167911904Y-79690476D01*
X168007142Y-79738095D01*
X168054761Y-79785714D01*
X168102380Y-79880952D01*
X168102380Y-80166666D01*
X168054761Y-80261904D01*
X168007142Y-80309523D01*
X167102380Y-79357142D02*
X167102380Y-78690476D01*
X168102380Y-79119047D01*
%TO.C,R36*%
X175532142Y-65352380D02*
X175198809Y-64876190D01*
X174960714Y-65352380D02*
X174960714Y-64352380D01*
X175341666Y-64352380D01*
X175436904Y-64400000D01*
X175484523Y-64447619D01*
X175532142Y-64542857D01*
X175532142Y-64685714D01*
X175484523Y-64780952D01*
X175436904Y-64828571D01*
X175341666Y-64876190D01*
X174960714Y-64876190D01*
X175865476Y-64352380D02*
X176484523Y-64352380D01*
X176151190Y-64733333D01*
X176294047Y-64733333D01*
X176389285Y-64780952D01*
X176436904Y-64828571D01*
X176484523Y-64923809D01*
X176484523Y-65161904D01*
X176436904Y-65257142D01*
X176389285Y-65304761D01*
X176294047Y-65352380D01*
X176008333Y-65352380D01*
X175913095Y-65304761D01*
X175865476Y-65257142D01*
X177341666Y-64352380D02*
X177151190Y-64352380D01*
X177055952Y-64400000D01*
X177008333Y-64447619D01*
X176913095Y-64590476D01*
X176865476Y-64780952D01*
X176865476Y-65161904D01*
X176913095Y-65257142D01*
X176960714Y-65304761D01*
X177055952Y-65352380D01*
X177246428Y-65352380D01*
X177341666Y-65304761D01*
X177389285Y-65257142D01*
X177436904Y-65161904D01*
X177436904Y-64923809D01*
X177389285Y-64828571D01*
X177341666Y-64780952D01*
X177246428Y-64733333D01*
X177055952Y-64733333D01*
X176960714Y-64780952D01*
X176913095Y-64828571D01*
X176865476Y-64923809D01*
%TO.C,R35*%
X163882142Y-71927380D02*
X163548809Y-71451190D01*
X163310714Y-71927380D02*
X163310714Y-70927380D01*
X163691666Y-70927380D01*
X163786904Y-70975000D01*
X163834523Y-71022619D01*
X163882142Y-71117857D01*
X163882142Y-71260714D01*
X163834523Y-71355952D01*
X163786904Y-71403571D01*
X163691666Y-71451190D01*
X163310714Y-71451190D01*
X164215476Y-70927380D02*
X164834523Y-70927380D01*
X164501190Y-71308333D01*
X164644047Y-71308333D01*
X164739285Y-71355952D01*
X164786904Y-71403571D01*
X164834523Y-71498809D01*
X164834523Y-71736904D01*
X164786904Y-71832142D01*
X164739285Y-71879761D01*
X164644047Y-71927380D01*
X164358333Y-71927380D01*
X164263095Y-71879761D01*
X164215476Y-71832142D01*
X165739285Y-70927380D02*
X165263095Y-70927380D01*
X165215476Y-71403571D01*
X165263095Y-71355952D01*
X165358333Y-71308333D01*
X165596428Y-71308333D01*
X165691666Y-71355952D01*
X165739285Y-71403571D01*
X165786904Y-71498809D01*
X165786904Y-71736904D01*
X165739285Y-71832142D01*
X165691666Y-71879761D01*
X165596428Y-71927380D01*
X165358333Y-71927380D01*
X165263095Y-71879761D01*
X165215476Y-71832142D01*
%TO.C,R34*%
X164302380Y-59467857D02*
X163826190Y-59801190D01*
X164302380Y-60039285D02*
X163302380Y-60039285D01*
X163302380Y-59658333D01*
X163350000Y-59563095D01*
X163397619Y-59515476D01*
X163492857Y-59467857D01*
X163635714Y-59467857D01*
X163730952Y-59515476D01*
X163778571Y-59563095D01*
X163826190Y-59658333D01*
X163826190Y-60039285D01*
X163302380Y-59134523D02*
X163302380Y-58515476D01*
X163683333Y-58848809D01*
X163683333Y-58705952D01*
X163730952Y-58610714D01*
X163778571Y-58563095D01*
X163873809Y-58515476D01*
X164111904Y-58515476D01*
X164207142Y-58563095D01*
X164254761Y-58610714D01*
X164302380Y-58705952D01*
X164302380Y-58991666D01*
X164254761Y-59086904D01*
X164207142Y-59134523D01*
X163635714Y-57658333D02*
X164302380Y-57658333D01*
X163254761Y-57896428D02*
X163969047Y-58134523D01*
X163969047Y-57515476D01*
%TO.C,R33*%
X158694380Y-60332857D02*
X158218190Y-60666190D01*
X158694380Y-60904285D02*
X157694380Y-60904285D01*
X157694380Y-60523333D01*
X157742000Y-60428095D01*
X157789619Y-60380476D01*
X157884857Y-60332857D01*
X158027714Y-60332857D01*
X158122952Y-60380476D01*
X158170571Y-60428095D01*
X158218190Y-60523333D01*
X158218190Y-60904285D01*
X157694380Y-59999523D02*
X157694380Y-59380476D01*
X158075333Y-59713809D01*
X158075333Y-59570952D01*
X158122952Y-59475714D01*
X158170571Y-59428095D01*
X158265809Y-59380476D01*
X158503904Y-59380476D01*
X158599142Y-59428095D01*
X158646761Y-59475714D01*
X158694380Y-59570952D01*
X158694380Y-59856666D01*
X158646761Y-59951904D01*
X158599142Y-59999523D01*
X157694380Y-59047142D02*
X157694380Y-58428095D01*
X158075333Y-58761428D01*
X158075333Y-58618571D01*
X158122952Y-58523333D01*
X158170571Y-58475714D01*
X158265809Y-58428095D01*
X158503904Y-58428095D01*
X158599142Y-58475714D01*
X158646761Y-58523333D01*
X158694380Y-58618571D01*
X158694380Y-58904285D01*
X158646761Y-58999523D01*
X158599142Y-59047142D01*
%TO.C,R32*%
X161702380Y-69117857D02*
X161226190Y-69451190D01*
X161702380Y-69689285D02*
X160702380Y-69689285D01*
X160702380Y-69308333D01*
X160750000Y-69213095D01*
X160797619Y-69165476D01*
X160892857Y-69117857D01*
X161035714Y-69117857D01*
X161130952Y-69165476D01*
X161178571Y-69213095D01*
X161226190Y-69308333D01*
X161226190Y-69689285D01*
X160702380Y-68784523D02*
X160702380Y-68165476D01*
X161083333Y-68498809D01*
X161083333Y-68355952D01*
X161130952Y-68260714D01*
X161178571Y-68213095D01*
X161273809Y-68165476D01*
X161511904Y-68165476D01*
X161607142Y-68213095D01*
X161654761Y-68260714D01*
X161702380Y-68355952D01*
X161702380Y-68641666D01*
X161654761Y-68736904D01*
X161607142Y-68784523D01*
X160797619Y-67784523D02*
X160750000Y-67736904D01*
X160702380Y-67641666D01*
X160702380Y-67403571D01*
X160750000Y-67308333D01*
X160797619Y-67260714D01*
X160892857Y-67213095D01*
X160988095Y-67213095D01*
X161130952Y-67260714D01*
X161702380Y-67832142D01*
X161702380Y-67213095D01*
%TO.C,R31*%
X137757142Y-35402380D02*
X137423809Y-34926190D01*
X137185714Y-35402380D02*
X137185714Y-34402380D01*
X137566666Y-34402380D01*
X137661904Y-34450000D01*
X137709523Y-34497619D01*
X137757142Y-34592857D01*
X137757142Y-34735714D01*
X137709523Y-34830952D01*
X137661904Y-34878571D01*
X137566666Y-34926190D01*
X137185714Y-34926190D01*
X138090476Y-34402380D02*
X138709523Y-34402380D01*
X138376190Y-34783333D01*
X138519047Y-34783333D01*
X138614285Y-34830952D01*
X138661904Y-34878571D01*
X138709523Y-34973809D01*
X138709523Y-35211904D01*
X138661904Y-35307142D01*
X138614285Y-35354761D01*
X138519047Y-35402380D01*
X138233333Y-35402380D01*
X138138095Y-35354761D01*
X138090476Y-35307142D01*
X139661904Y-35402380D02*
X139090476Y-35402380D01*
X139376190Y-35402380D02*
X139376190Y-34402380D01*
X139280952Y-34545238D01*
X139185714Y-34640476D01*
X139090476Y-34688095D01*
%TO.C,R30*%
X153602380Y-34142857D02*
X153126190Y-34476190D01*
X153602380Y-34714285D02*
X152602380Y-34714285D01*
X152602380Y-34333333D01*
X152650000Y-34238095D01*
X152697619Y-34190476D01*
X152792857Y-34142857D01*
X152935714Y-34142857D01*
X153030952Y-34190476D01*
X153078571Y-34238095D01*
X153126190Y-34333333D01*
X153126190Y-34714285D01*
X152602380Y-33809523D02*
X152602380Y-33190476D01*
X152983333Y-33523809D01*
X152983333Y-33380952D01*
X153030952Y-33285714D01*
X153078571Y-33238095D01*
X153173809Y-33190476D01*
X153411904Y-33190476D01*
X153507142Y-33238095D01*
X153554761Y-33285714D01*
X153602380Y-33380952D01*
X153602380Y-33666666D01*
X153554761Y-33761904D01*
X153507142Y-33809523D01*
X152602380Y-32571428D02*
X152602380Y-32476190D01*
X152650000Y-32380952D01*
X152697619Y-32333333D01*
X152792857Y-32285714D01*
X152983333Y-32238095D01*
X153221428Y-32238095D01*
X153411904Y-32285714D01*
X153507142Y-32333333D01*
X153554761Y-32380952D01*
X153602380Y-32476190D01*
X153602380Y-32571428D01*
X153554761Y-32666666D01*
X153507142Y-32714285D01*
X153411904Y-32761904D01*
X153221428Y-32809523D01*
X152983333Y-32809523D01*
X152792857Y-32761904D01*
X152697619Y-32714285D01*
X152650000Y-32666666D01*
X152602380Y-32571428D01*
%TO.C,R16*%
X164457142Y-42870380D02*
X164123809Y-42394190D01*
X163885714Y-42870380D02*
X163885714Y-41870380D01*
X164266666Y-41870380D01*
X164361904Y-41918000D01*
X164409523Y-41965619D01*
X164457142Y-42060857D01*
X164457142Y-42203714D01*
X164409523Y-42298952D01*
X164361904Y-42346571D01*
X164266666Y-42394190D01*
X163885714Y-42394190D01*
X165409523Y-42870380D02*
X164838095Y-42870380D01*
X165123809Y-42870380D02*
X165123809Y-41870380D01*
X165028571Y-42013238D01*
X164933333Y-42108476D01*
X164838095Y-42156095D01*
X166266666Y-41870380D02*
X166076190Y-41870380D01*
X165980952Y-41918000D01*
X165933333Y-41965619D01*
X165838095Y-42108476D01*
X165790476Y-42298952D01*
X165790476Y-42679904D01*
X165838095Y-42775142D01*
X165885714Y-42822761D01*
X165980952Y-42870380D01*
X166171428Y-42870380D01*
X166266666Y-42822761D01*
X166314285Y-42775142D01*
X166361904Y-42679904D01*
X166361904Y-42441809D01*
X166314285Y-42346571D01*
X166266666Y-42298952D01*
X166171428Y-42251333D01*
X165980952Y-42251333D01*
X165885714Y-42298952D01*
X165838095Y-42346571D01*
X165790476Y-42441809D01*
%TO.C,R14*%
X182032142Y-49852380D02*
X181698809Y-49376190D01*
X181460714Y-49852380D02*
X181460714Y-48852380D01*
X181841666Y-48852380D01*
X181936904Y-48900000D01*
X181984523Y-48947619D01*
X182032142Y-49042857D01*
X182032142Y-49185714D01*
X181984523Y-49280952D01*
X181936904Y-49328571D01*
X181841666Y-49376190D01*
X181460714Y-49376190D01*
X182984523Y-49852380D02*
X182413095Y-49852380D01*
X182698809Y-49852380D02*
X182698809Y-48852380D01*
X182603571Y-48995238D01*
X182508333Y-49090476D01*
X182413095Y-49138095D01*
X183841666Y-49185714D02*
X183841666Y-49852380D01*
X183603571Y-48804761D02*
X183365476Y-49519047D01*
X183984523Y-49519047D01*
%TO.C,R5*%
X164790380Y-56554666D02*
X164314190Y-56888000D01*
X164790380Y-57126095D02*
X163790380Y-57126095D01*
X163790380Y-56745142D01*
X163838000Y-56649904D01*
X163885619Y-56602285D01*
X163980857Y-56554666D01*
X164123714Y-56554666D01*
X164218952Y-56602285D01*
X164266571Y-56649904D01*
X164314190Y-56745142D01*
X164314190Y-57126095D01*
X163790380Y-55649904D02*
X163790380Y-56126095D01*
X164266571Y-56173714D01*
X164218952Y-56126095D01*
X164171333Y-56030857D01*
X164171333Y-55792761D01*
X164218952Y-55697523D01*
X164266571Y-55649904D01*
X164361809Y-55602285D01*
X164599904Y-55602285D01*
X164695142Y-55649904D01*
X164742761Y-55697523D01*
X164790380Y-55792761D01*
X164790380Y-56030857D01*
X164742761Y-56126095D01*
X164695142Y-56173714D01*
%TO.C,R4*%
X162502380Y-27216666D02*
X162026190Y-27550000D01*
X162502380Y-27788095D02*
X161502380Y-27788095D01*
X161502380Y-27407142D01*
X161550000Y-27311904D01*
X161597619Y-27264285D01*
X161692857Y-27216666D01*
X161835714Y-27216666D01*
X161930952Y-27264285D01*
X161978571Y-27311904D01*
X162026190Y-27407142D01*
X162026190Y-27788095D01*
X161835714Y-26359523D02*
X162502380Y-26359523D01*
X161454761Y-26597619D02*
X162169047Y-26835714D01*
X162169047Y-26216666D01*
%TO.C,R2*%
X162333333Y-32827380D02*
X162000000Y-32351190D01*
X161761904Y-32827380D02*
X161761904Y-31827380D01*
X162142857Y-31827380D01*
X162238095Y-31875000D01*
X162285714Y-31922619D01*
X162333333Y-32017857D01*
X162333333Y-32160714D01*
X162285714Y-32255952D01*
X162238095Y-32303571D01*
X162142857Y-32351190D01*
X161761904Y-32351190D01*
X162714285Y-31922619D02*
X162761904Y-31875000D01*
X162857142Y-31827380D01*
X163095238Y-31827380D01*
X163190476Y-31875000D01*
X163238095Y-31922619D01*
X163285714Y-32017857D01*
X163285714Y-32113095D01*
X163238095Y-32255952D01*
X162666666Y-32827380D01*
X163285714Y-32827380D01*
%TO.C,Q9*%
X153604761Y-64297619D02*
X153509523Y-64250000D01*
X153414285Y-64154761D01*
X153271428Y-64011904D01*
X153176190Y-63964285D01*
X153080952Y-63964285D01*
X153128571Y-64202380D02*
X153033333Y-64154761D01*
X152938095Y-64059523D01*
X152890476Y-63869047D01*
X152890476Y-63535714D01*
X152938095Y-63345238D01*
X153033333Y-63250000D01*
X153128571Y-63202380D01*
X153319047Y-63202380D01*
X153414285Y-63250000D01*
X153509523Y-63345238D01*
X153557142Y-63535714D01*
X153557142Y-63869047D01*
X153509523Y-64059523D01*
X153414285Y-64154761D01*
X153319047Y-64202380D01*
X153128571Y-64202380D01*
X154033333Y-64202380D02*
X154223809Y-64202380D01*
X154319047Y-64154761D01*
X154366666Y-64107142D01*
X154461904Y-63964285D01*
X154509523Y-63773809D01*
X154509523Y-63392857D01*
X154461904Y-63297619D01*
X154414285Y-63250000D01*
X154319047Y-63202380D01*
X154128571Y-63202380D01*
X154033333Y-63250000D01*
X153985714Y-63297619D01*
X153938095Y-63392857D01*
X153938095Y-63630952D01*
X153985714Y-63726190D01*
X154033333Y-63773809D01*
X154128571Y-63821428D01*
X154319047Y-63821428D01*
X154414285Y-63773809D01*
X154461904Y-63726190D01*
X154509523Y-63630952D01*
%TO.C,Q8*%
X165364761Y-82997619D02*
X165269523Y-82950000D01*
X165174285Y-82854761D01*
X165031428Y-82711904D01*
X164936190Y-82664285D01*
X164840952Y-82664285D01*
X164888571Y-82902380D02*
X164793333Y-82854761D01*
X164698095Y-82759523D01*
X164650476Y-82569047D01*
X164650476Y-82235714D01*
X164698095Y-82045238D01*
X164793333Y-81950000D01*
X164888571Y-81902380D01*
X165079047Y-81902380D01*
X165174285Y-81950000D01*
X165269523Y-82045238D01*
X165317142Y-82235714D01*
X165317142Y-82569047D01*
X165269523Y-82759523D01*
X165174285Y-82854761D01*
X165079047Y-82902380D01*
X164888571Y-82902380D01*
X165888571Y-82330952D02*
X165793333Y-82283333D01*
X165745714Y-82235714D01*
X165698095Y-82140476D01*
X165698095Y-82092857D01*
X165745714Y-81997619D01*
X165793333Y-81950000D01*
X165888571Y-81902380D01*
X166079047Y-81902380D01*
X166174285Y-81950000D01*
X166221904Y-81997619D01*
X166269523Y-82092857D01*
X166269523Y-82140476D01*
X166221904Y-82235714D01*
X166174285Y-82283333D01*
X166079047Y-82330952D01*
X165888571Y-82330952D01*
X165793333Y-82378571D01*
X165745714Y-82426190D01*
X165698095Y-82521428D01*
X165698095Y-82711904D01*
X165745714Y-82807142D01*
X165793333Y-82854761D01*
X165888571Y-82902380D01*
X166079047Y-82902380D01*
X166174285Y-82854761D01*
X166221904Y-82807142D01*
X166269523Y-82711904D01*
X166269523Y-82521428D01*
X166221904Y-82426190D01*
X166174285Y-82378571D01*
X166079047Y-82330952D01*
%TO.C,Q7*%
X184038761Y-79943619D02*
X183943523Y-79896000D01*
X183848285Y-79800761D01*
X183705428Y-79657904D01*
X183610190Y-79610285D01*
X183514952Y-79610285D01*
X183562571Y-79848380D02*
X183467333Y-79800761D01*
X183372095Y-79705523D01*
X183324476Y-79515047D01*
X183324476Y-79181714D01*
X183372095Y-78991238D01*
X183467333Y-78896000D01*
X183562571Y-78848380D01*
X183753047Y-78848380D01*
X183848285Y-78896000D01*
X183943523Y-78991238D01*
X183991142Y-79181714D01*
X183991142Y-79515047D01*
X183943523Y-79705523D01*
X183848285Y-79800761D01*
X183753047Y-79848380D01*
X183562571Y-79848380D01*
X184324476Y-78848380D02*
X184991142Y-78848380D01*
X184562571Y-79848380D01*
%TO.C,Q6*%
X181904761Y-53097619D02*
X181809523Y-53050000D01*
X181714285Y-52954761D01*
X181571428Y-52811904D01*
X181476190Y-52764285D01*
X181380952Y-52764285D01*
X181428571Y-53002380D02*
X181333333Y-52954761D01*
X181238095Y-52859523D01*
X181190476Y-52669047D01*
X181190476Y-52335714D01*
X181238095Y-52145238D01*
X181333333Y-52050000D01*
X181428571Y-52002380D01*
X181619047Y-52002380D01*
X181714285Y-52050000D01*
X181809523Y-52145238D01*
X181857142Y-52335714D01*
X181857142Y-52669047D01*
X181809523Y-52859523D01*
X181714285Y-52954761D01*
X181619047Y-53002380D01*
X181428571Y-53002380D01*
X182714285Y-52002380D02*
X182523809Y-52002380D01*
X182428571Y-52050000D01*
X182380952Y-52097619D01*
X182285714Y-52240476D01*
X182238095Y-52430952D01*
X182238095Y-52811904D01*
X182285714Y-52907142D01*
X182333333Y-52954761D01*
X182428571Y-53002380D01*
X182619047Y-53002380D01*
X182714285Y-52954761D01*
X182761904Y-52907142D01*
X182809523Y-52811904D01*
X182809523Y-52573809D01*
X182761904Y-52478571D01*
X182714285Y-52430952D01*
X182619047Y-52383333D01*
X182428571Y-52383333D01*
X182333333Y-52430952D01*
X182285714Y-52478571D01*
X182238095Y-52573809D01*
%TO.C,Q5*%
X164496761Y-51601619D02*
X164401523Y-51554000D01*
X164306285Y-51458761D01*
X164163428Y-51315904D01*
X164068190Y-51268285D01*
X163972952Y-51268285D01*
X164020571Y-51506380D02*
X163925333Y-51458761D01*
X163830095Y-51363523D01*
X163782476Y-51173047D01*
X163782476Y-50839714D01*
X163830095Y-50649238D01*
X163925333Y-50554000D01*
X164020571Y-50506380D01*
X164211047Y-50506380D01*
X164306285Y-50554000D01*
X164401523Y-50649238D01*
X164449142Y-50839714D01*
X164449142Y-51173047D01*
X164401523Y-51363523D01*
X164306285Y-51458761D01*
X164211047Y-51506380D01*
X164020571Y-51506380D01*
X165353904Y-50506380D02*
X164877714Y-50506380D01*
X164830095Y-50982571D01*
X164877714Y-50934952D01*
X164972952Y-50887333D01*
X165211047Y-50887333D01*
X165306285Y-50934952D01*
X165353904Y-50982571D01*
X165401523Y-51077809D01*
X165401523Y-51315904D01*
X165353904Y-51411142D01*
X165306285Y-51458761D01*
X165211047Y-51506380D01*
X164972952Y-51506380D01*
X164877714Y-51458761D01*
X164830095Y-51411142D01*
%TO.C,Q4*%
X166020761Y-50331619D02*
X165925523Y-50284000D01*
X165830285Y-50188761D01*
X165687428Y-50045904D01*
X165592190Y-49998285D01*
X165496952Y-49998285D01*
X165544571Y-50236380D02*
X165449333Y-50188761D01*
X165354095Y-50093523D01*
X165306476Y-49903047D01*
X165306476Y-49569714D01*
X165354095Y-49379238D01*
X165449333Y-49284000D01*
X165544571Y-49236380D01*
X165735047Y-49236380D01*
X165830285Y-49284000D01*
X165925523Y-49379238D01*
X165973142Y-49569714D01*
X165973142Y-49903047D01*
X165925523Y-50093523D01*
X165830285Y-50188761D01*
X165735047Y-50236380D01*
X165544571Y-50236380D01*
X166830285Y-49569714D02*
X166830285Y-50236380D01*
X166592190Y-49188761D02*
X166354095Y-49903047D01*
X166973142Y-49903047D01*
%TO.C,Q3*%
X181779761Y-57047619D02*
X181684523Y-57000000D01*
X181589285Y-56904761D01*
X181446428Y-56761904D01*
X181351190Y-56714285D01*
X181255952Y-56714285D01*
X181303571Y-56952380D02*
X181208333Y-56904761D01*
X181113095Y-56809523D01*
X181065476Y-56619047D01*
X181065476Y-56285714D01*
X181113095Y-56095238D01*
X181208333Y-56000000D01*
X181303571Y-55952380D01*
X181494047Y-55952380D01*
X181589285Y-56000000D01*
X181684523Y-56095238D01*
X181732142Y-56285714D01*
X181732142Y-56619047D01*
X181684523Y-56809523D01*
X181589285Y-56904761D01*
X181494047Y-56952380D01*
X181303571Y-56952380D01*
X182065476Y-55952380D02*
X182684523Y-55952380D01*
X182351190Y-56333333D01*
X182494047Y-56333333D01*
X182589285Y-56380952D01*
X182636904Y-56428571D01*
X182684523Y-56523809D01*
X182684523Y-56761904D01*
X182636904Y-56857142D01*
X182589285Y-56904761D01*
X182494047Y-56952380D01*
X182208333Y-56952380D01*
X182113095Y-56904761D01*
X182065476Y-56857142D01*
%TO.C,Q2*%
X154754761Y-26172619D02*
X154659523Y-26125000D01*
X154564285Y-26029761D01*
X154421428Y-25886904D01*
X154326190Y-25839285D01*
X154230952Y-25839285D01*
X154278571Y-26077380D02*
X154183333Y-26029761D01*
X154088095Y-25934523D01*
X154040476Y-25744047D01*
X154040476Y-25410714D01*
X154088095Y-25220238D01*
X154183333Y-25125000D01*
X154278571Y-25077380D01*
X154469047Y-25077380D01*
X154564285Y-25125000D01*
X154659523Y-25220238D01*
X154707142Y-25410714D01*
X154707142Y-25744047D01*
X154659523Y-25934523D01*
X154564285Y-26029761D01*
X154469047Y-26077380D01*
X154278571Y-26077380D01*
X155088095Y-25172619D02*
X155135714Y-25125000D01*
X155230952Y-25077380D01*
X155469047Y-25077380D01*
X155564285Y-25125000D01*
X155611904Y-25172619D01*
X155659523Y-25267857D01*
X155659523Y-25363095D01*
X155611904Y-25505952D01*
X155040476Y-26077380D01*
X155659523Y-26077380D01*
%TO.C,Q1*%
X157654761Y-34097619D02*
X157559523Y-34050000D01*
X157464285Y-33954761D01*
X157321428Y-33811904D01*
X157226190Y-33764285D01*
X157130952Y-33764285D01*
X157178571Y-34002380D02*
X157083333Y-33954761D01*
X156988095Y-33859523D01*
X156940476Y-33669047D01*
X156940476Y-33335714D01*
X156988095Y-33145238D01*
X157083333Y-33050000D01*
X157178571Y-33002380D01*
X157369047Y-33002380D01*
X157464285Y-33050000D01*
X157559523Y-33145238D01*
X157607142Y-33335714D01*
X157607142Y-33669047D01*
X157559523Y-33859523D01*
X157464285Y-33954761D01*
X157369047Y-34002380D01*
X157178571Y-34002380D01*
X158559523Y-34002380D02*
X157988095Y-34002380D01*
X158273809Y-34002380D02*
X158273809Y-33002380D01*
X158178571Y-33145238D01*
X158083333Y-33240476D01*
X157988095Y-33288095D01*
%TO.C,JP2*%
X159946666Y-63402380D02*
X159946666Y-64116666D01*
X159899047Y-64259523D01*
X159803809Y-64354761D01*
X159660952Y-64402380D01*
X159565714Y-64402380D01*
X160422857Y-64402380D02*
X160422857Y-63402380D01*
X160803809Y-63402380D01*
X160899047Y-63450000D01*
X160946666Y-63497619D01*
X160994285Y-63592857D01*
X160994285Y-63735714D01*
X160946666Y-63830952D01*
X160899047Y-63878571D01*
X160803809Y-63926190D01*
X160422857Y-63926190D01*
X161375238Y-63497619D02*
X161422857Y-63450000D01*
X161518095Y-63402380D01*
X161756190Y-63402380D01*
X161851428Y-63450000D01*
X161899047Y-63497619D01*
X161946666Y-63592857D01*
X161946666Y-63688095D01*
X161899047Y-63830952D01*
X161327619Y-64402380D01*
X161946666Y-64402380D01*
%TO.C,JP1*%
X170346666Y-74502380D02*
X170346666Y-75216666D01*
X170299047Y-75359523D01*
X170203809Y-75454761D01*
X170060952Y-75502380D01*
X169965714Y-75502380D01*
X170822857Y-75502380D02*
X170822857Y-74502380D01*
X171203809Y-74502380D01*
X171299047Y-74550000D01*
X171346666Y-74597619D01*
X171394285Y-74692857D01*
X171394285Y-74835714D01*
X171346666Y-74930952D01*
X171299047Y-74978571D01*
X171203809Y-75026190D01*
X170822857Y-75026190D01*
X172346666Y-75502380D02*
X171775238Y-75502380D01*
X172060952Y-75502380D02*
X172060952Y-74502380D01*
X171965714Y-74645238D01*
X171870476Y-74740476D01*
X171775238Y-74788095D01*
%TO.C,J10*%
X171460476Y-27852380D02*
X171460476Y-28566666D01*
X171412857Y-28709523D01*
X171317619Y-28804761D01*
X171174761Y-28852380D01*
X171079523Y-28852380D01*
X172460476Y-28852380D02*
X171889047Y-28852380D01*
X172174761Y-28852380D02*
X172174761Y-27852380D01*
X172079523Y-27995238D01*
X171984285Y-28090476D01*
X171889047Y-28138095D01*
X173079523Y-27852380D02*
X173174761Y-27852380D01*
X173270000Y-27900000D01*
X173317619Y-27947619D01*
X173365238Y-28042857D01*
X173412857Y-28233333D01*
X173412857Y-28471428D01*
X173365238Y-28661904D01*
X173317619Y-28757142D01*
X173270000Y-28804761D01*
X173174761Y-28852380D01*
X173079523Y-28852380D01*
X172984285Y-28804761D01*
X172936666Y-28757142D01*
X172889047Y-28661904D01*
X172841428Y-28471428D01*
X172841428Y-28233333D01*
X172889047Y-28042857D01*
X172936666Y-27947619D01*
X172984285Y-27900000D01*
X173079523Y-27852380D01*
%TO.C,J8*%
X141144666Y-23332380D02*
X141144666Y-24046666D01*
X141097047Y-24189523D01*
X141001809Y-24284761D01*
X140858952Y-24332380D01*
X140763714Y-24332380D01*
X141763714Y-23760952D02*
X141668476Y-23713333D01*
X141620857Y-23665714D01*
X141573238Y-23570476D01*
X141573238Y-23522857D01*
X141620857Y-23427619D01*
X141668476Y-23380000D01*
X141763714Y-23332380D01*
X141954190Y-23332380D01*
X142049428Y-23380000D01*
X142097047Y-23427619D01*
X142144666Y-23522857D01*
X142144666Y-23570476D01*
X142097047Y-23665714D01*
X142049428Y-23713333D01*
X141954190Y-23760952D01*
X141763714Y-23760952D01*
X141668476Y-23808571D01*
X141620857Y-23856190D01*
X141573238Y-23951428D01*
X141573238Y-24141904D01*
X141620857Y-24237142D01*
X141668476Y-24284761D01*
X141763714Y-24332380D01*
X141954190Y-24332380D01*
X142049428Y-24284761D01*
X142097047Y-24237142D01*
X142144666Y-24141904D01*
X142144666Y-23951428D01*
X142097047Y-23856190D01*
X142049428Y-23808571D01*
X141954190Y-23760952D01*
%TO.C,J7*%
X170606666Y-105702380D02*
X170606666Y-106416666D01*
X170559047Y-106559523D01*
X170463809Y-106654761D01*
X170320952Y-106702380D01*
X170225714Y-106702380D01*
X170987619Y-105702380D02*
X171654285Y-105702380D01*
X171225714Y-106702380D01*
%TO.C,J6*%
X138621666Y-105667380D02*
X138621666Y-106381666D01*
X138574047Y-106524523D01*
X138478809Y-106619761D01*
X138335952Y-106667380D01*
X138240714Y-106667380D01*
X139526428Y-105667380D02*
X139335952Y-105667380D01*
X139240714Y-105715000D01*
X139193095Y-105762619D01*
X139097857Y-105905476D01*
X139050238Y-106095952D01*
X139050238Y-106476904D01*
X139097857Y-106572142D01*
X139145476Y-106619761D01*
X139240714Y-106667380D01*
X139431190Y-106667380D01*
X139526428Y-106619761D01*
X139574047Y-106572142D01*
X139621666Y-106476904D01*
X139621666Y-106238809D01*
X139574047Y-106143571D01*
X139526428Y-106095952D01*
X139431190Y-106048333D01*
X139240714Y-106048333D01*
X139145476Y-106095952D01*
X139097857Y-106143571D01*
X139050238Y-106238809D01*
%TO.C,J5*%
X170626666Y-81652380D02*
X170626666Y-82366666D01*
X170579047Y-82509523D01*
X170483809Y-82604761D01*
X170340952Y-82652380D01*
X170245714Y-82652380D01*
X171579047Y-81652380D02*
X171102857Y-81652380D01*
X171055238Y-82128571D01*
X171102857Y-82080952D01*
X171198095Y-82033333D01*
X171436190Y-82033333D01*
X171531428Y-82080952D01*
X171579047Y-82128571D01*
X171626666Y-82223809D01*
X171626666Y-82461904D01*
X171579047Y-82557142D01*
X171531428Y-82604761D01*
X171436190Y-82652380D01*
X171198095Y-82652380D01*
X171102857Y-82604761D01*
X171055238Y-82557142D01*
%TO.C,J4*%
X138626666Y-81652380D02*
X138626666Y-82366666D01*
X138579047Y-82509523D01*
X138483809Y-82604761D01*
X138340952Y-82652380D01*
X138245714Y-82652380D01*
X139531428Y-81985714D02*
X139531428Y-82652380D01*
X139293333Y-81604761D02*
X139055238Y-82319047D01*
X139674285Y-82319047D01*
%TO.C,J2*%
X159846666Y-78272380D02*
X159846666Y-78986666D01*
X159799047Y-79129523D01*
X159703809Y-79224761D01*
X159560952Y-79272380D01*
X159465714Y-79272380D01*
X160275238Y-78367619D02*
X160322857Y-78320000D01*
X160418095Y-78272380D01*
X160656190Y-78272380D01*
X160751428Y-78320000D01*
X160799047Y-78367619D01*
X160846666Y-78462857D01*
X160846666Y-78558095D01*
X160799047Y-78700952D01*
X160227619Y-79272380D01*
X160846666Y-79272380D01*
X161902380Y-77644285D02*
X161902380Y-78215714D01*
X161902380Y-77930000D02*
X160902380Y-77930000D01*
X161045238Y-78025238D01*
X161140476Y-78120476D01*
X161188095Y-78215714D01*
X160902380Y-73063333D02*
X160902380Y-72444285D01*
X161283333Y-72777619D01*
X161283333Y-72634761D01*
X161330952Y-72539523D01*
X161378571Y-72491904D01*
X161473809Y-72444285D01*
X161711904Y-72444285D01*
X161807142Y-72491904D01*
X161854761Y-72539523D01*
X161902380Y-72634761D01*
X161902380Y-72920476D01*
X161854761Y-73015714D01*
X161807142Y-73063333D01*
%TO.C,J1*%
X165782380Y-75713333D02*
X166496666Y-75713333D01*
X166639523Y-75760952D01*
X166734761Y-75856190D01*
X166782380Y-75999047D01*
X166782380Y-76094285D01*
X166782380Y-74713333D02*
X166782380Y-75284761D01*
X166782380Y-74999047D02*
X165782380Y-74999047D01*
X165925238Y-75094285D01*
X166020476Y-75189523D01*
X166068095Y-75284761D01*
X164802380Y-77644285D02*
X164802380Y-78215714D01*
X164802380Y-77930000D02*
X163802380Y-77930000D01*
X163945238Y-78025238D01*
X164040476Y-78120476D01*
X164088095Y-78215714D01*
X163802380Y-73063333D02*
X163802380Y-72444285D01*
X164183333Y-72777619D01*
X164183333Y-72634761D01*
X164230952Y-72539523D01*
X164278571Y-72491904D01*
X164373809Y-72444285D01*
X164611904Y-72444285D01*
X164707142Y-72491904D01*
X164754761Y-72539523D01*
X164802380Y-72634761D01*
X164802380Y-72920476D01*
X164754761Y-73015714D01*
X164707142Y-73063333D01*
%TO.C,D24*%
X155952380Y-67814285D02*
X154952380Y-67814285D01*
X154952380Y-67576190D01*
X155000000Y-67433333D01*
X155095238Y-67338095D01*
X155190476Y-67290476D01*
X155380952Y-67242857D01*
X155523809Y-67242857D01*
X155714285Y-67290476D01*
X155809523Y-67338095D01*
X155904761Y-67433333D01*
X155952380Y-67576190D01*
X155952380Y-67814285D01*
X155047619Y-66861904D02*
X155000000Y-66814285D01*
X154952380Y-66719047D01*
X154952380Y-66480952D01*
X155000000Y-66385714D01*
X155047619Y-66338095D01*
X155142857Y-66290476D01*
X155238095Y-66290476D01*
X155380952Y-66338095D01*
X155952380Y-66909523D01*
X155952380Y-66290476D01*
X155285714Y-65433333D02*
X155952380Y-65433333D01*
X154904761Y-65671428D02*
X155619047Y-65909523D01*
X155619047Y-65290476D01*
%TO.C,D23*%
X149077380Y-70914285D02*
X148077380Y-70914285D01*
X148077380Y-70676190D01*
X148125000Y-70533333D01*
X148220238Y-70438095D01*
X148315476Y-70390476D01*
X148505952Y-70342857D01*
X148648809Y-70342857D01*
X148839285Y-70390476D01*
X148934523Y-70438095D01*
X149029761Y-70533333D01*
X149077380Y-70676190D01*
X149077380Y-70914285D01*
X148172619Y-69961904D02*
X148125000Y-69914285D01*
X148077380Y-69819047D01*
X148077380Y-69580952D01*
X148125000Y-69485714D01*
X148172619Y-69438095D01*
X148267857Y-69390476D01*
X148363095Y-69390476D01*
X148505952Y-69438095D01*
X149077380Y-70009523D01*
X149077380Y-69390476D01*
X148077380Y-69057142D02*
X148077380Y-68438095D01*
X148458333Y-68771428D01*
X148458333Y-68628571D01*
X148505952Y-68533333D01*
X148553571Y-68485714D01*
X148648809Y-68438095D01*
X148886904Y-68438095D01*
X148982142Y-68485714D01*
X149029761Y-68533333D01*
X149077380Y-68628571D01*
X149077380Y-68914285D01*
X149029761Y-69009523D01*
X148982142Y-69057142D01*
%TO.C,D22*%
X133548380Y-79954285D02*
X132548380Y-79954285D01*
X132548380Y-79716190D01*
X132596000Y-79573333D01*
X132691238Y-79478095D01*
X132786476Y-79430476D01*
X132976952Y-79382857D01*
X133119809Y-79382857D01*
X133310285Y-79430476D01*
X133405523Y-79478095D01*
X133500761Y-79573333D01*
X133548380Y-79716190D01*
X133548380Y-79954285D01*
X132643619Y-79001904D02*
X132596000Y-78954285D01*
X132548380Y-78859047D01*
X132548380Y-78620952D01*
X132596000Y-78525714D01*
X132643619Y-78478095D01*
X132738857Y-78430476D01*
X132834095Y-78430476D01*
X132976952Y-78478095D01*
X133548380Y-79049523D01*
X133548380Y-78430476D01*
X132643619Y-78049523D02*
X132596000Y-78001904D01*
X132548380Y-77906666D01*
X132548380Y-77668571D01*
X132596000Y-77573333D01*
X132643619Y-77525714D01*
X132738857Y-77478095D01*
X132834095Y-77478095D01*
X132976952Y-77525714D01*
X133548380Y-78097142D01*
X133548380Y-77478095D01*
%TO.C,D21*%
X134210714Y-82952380D02*
X134210714Y-81952380D01*
X134448809Y-81952380D01*
X134591666Y-82000000D01*
X134686904Y-82095238D01*
X134734523Y-82190476D01*
X134782142Y-82380952D01*
X134782142Y-82523809D01*
X134734523Y-82714285D01*
X134686904Y-82809523D01*
X134591666Y-82904761D01*
X134448809Y-82952380D01*
X134210714Y-82952380D01*
X135163095Y-82047619D02*
X135210714Y-82000000D01*
X135305952Y-81952380D01*
X135544047Y-81952380D01*
X135639285Y-82000000D01*
X135686904Y-82047619D01*
X135734523Y-82142857D01*
X135734523Y-82238095D01*
X135686904Y-82380952D01*
X135115476Y-82952380D01*
X135734523Y-82952380D01*
X136686904Y-82952380D02*
X136115476Y-82952380D01*
X136401190Y-82952380D02*
X136401190Y-81952380D01*
X136305952Y-82095238D01*
X136210714Y-82190476D01*
X136115476Y-82238095D01*
%TO.C,D20*%
X152735714Y-37202380D02*
X152735714Y-36202380D01*
X152973809Y-36202380D01*
X153116666Y-36250000D01*
X153211904Y-36345238D01*
X153259523Y-36440476D01*
X153307142Y-36630952D01*
X153307142Y-36773809D01*
X153259523Y-36964285D01*
X153211904Y-37059523D01*
X153116666Y-37154761D01*
X152973809Y-37202380D01*
X152735714Y-37202380D01*
X153688095Y-36297619D02*
X153735714Y-36250000D01*
X153830952Y-36202380D01*
X154069047Y-36202380D01*
X154164285Y-36250000D01*
X154211904Y-36297619D01*
X154259523Y-36392857D01*
X154259523Y-36488095D01*
X154211904Y-36630952D01*
X153640476Y-37202380D01*
X154259523Y-37202380D01*
X154878571Y-36202380D02*
X154973809Y-36202380D01*
X155069047Y-36250000D01*
X155116666Y-36297619D01*
X155164285Y-36392857D01*
X155211904Y-36583333D01*
X155211904Y-36821428D01*
X155164285Y-37011904D01*
X155116666Y-37107142D01*
X155069047Y-37154761D01*
X154973809Y-37202380D01*
X154878571Y-37202380D01*
X154783333Y-37154761D01*
X154735714Y-37107142D01*
X154688095Y-37011904D01*
X154640476Y-36821428D01*
X154640476Y-36583333D01*
X154688095Y-36392857D01*
X154735714Y-36297619D01*
X154783333Y-36250000D01*
X154878571Y-36202380D01*
%TO.C,D19*%
X129341714Y-77922380D02*
X129341714Y-76922380D01*
X129579809Y-76922380D01*
X129722666Y-76970000D01*
X129817904Y-77065238D01*
X129865523Y-77160476D01*
X129913142Y-77350952D01*
X129913142Y-77493809D01*
X129865523Y-77684285D01*
X129817904Y-77779523D01*
X129722666Y-77874761D01*
X129579809Y-77922380D01*
X129341714Y-77922380D01*
X130865523Y-77922380D02*
X130294095Y-77922380D01*
X130579809Y-77922380D02*
X130579809Y-76922380D01*
X130484571Y-77065238D01*
X130389333Y-77160476D01*
X130294095Y-77208095D01*
X131341714Y-77922380D02*
X131532190Y-77922380D01*
X131627428Y-77874761D01*
X131675047Y-77827142D01*
X131770285Y-77684285D01*
X131817904Y-77493809D01*
X131817904Y-77112857D01*
X131770285Y-77017619D01*
X131722666Y-76970000D01*
X131627428Y-76922380D01*
X131436952Y-76922380D01*
X131341714Y-76970000D01*
X131294095Y-77017619D01*
X131246476Y-77112857D01*
X131246476Y-77350952D01*
X131294095Y-77446190D01*
X131341714Y-77493809D01*
X131436952Y-77541428D01*
X131627428Y-77541428D01*
X131722666Y-77493809D01*
X131770285Y-77446190D01*
X131817904Y-77350952D01*
%TO.C,D18*%
X132935714Y-71352380D02*
X132935714Y-70352380D01*
X133173809Y-70352380D01*
X133316666Y-70400000D01*
X133411904Y-70495238D01*
X133459523Y-70590476D01*
X133507142Y-70780952D01*
X133507142Y-70923809D01*
X133459523Y-71114285D01*
X133411904Y-71209523D01*
X133316666Y-71304761D01*
X133173809Y-71352380D01*
X132935714Y-71352380D01*
X134459523Y-71352380D02*
X133888095Y-71352380D01*
X134173809Y-71352380D02*
X134173809Y-70352380D01*
X134078571Y-70495238D01*
X133983333Y-70590476D01*
X133888095Y-70638095D01*
X135030952Y-70780952D02*
X134935714Y-70733333D01*
X134888095Y-70685714D01*
X134840476Y-70590476D01*
X134840476Y-70542857D01*
X134888095Y-70447619D01*
X134935714Y-70400000D01*
X135030952Y-70352380D01*
X135221428Y-70352380D01*
X135316666Y-70400000D01*
X135364285Y-70447619D01*
X135411904Y-70542857D01*
X135411904Y-70590476D01*
X135364285Y-70685714D01*
X135316666Y-70733333D01*
X135221428Y-70780952D01*
X135030952Y-70780952D01*
X134935714Y-70828571D01*
X134888095Y-70876190D01*
X134840476Y-70971428D01*
X134840476Y-71161904D01*
X134888095Y-71257142D01*
X134935714Y-71304761D01*
X135030952Y-71352380D01*
X135221428Y-71352380D01*
X135316666Y-71304761D01*
X135364285Y-71257142D01*
X135411904Y-71161904D01*
X135411904Y-70971428D01*
X135364285Y-70876190D01*
X135316666Y-70828571D01*
X135221428Y-70780952D01*
%TO.C,D17*%
X132985714Y-66302380D02*
X132985714Y-65302380D01*
X133223809Y-65302380D01*
X133366666Y-65350000D01*
X133461904Y-65445238D01*
X133509523Y-65540476D01*
X133557142Y-65730952D01*
X133557142Y-65873809D01*
X133509523Y-66064285D01*
X133461904Y-66159523D01*
X133366666Y-66254761D01*
X133223809Y-66302380D01*
X132985714Y-66302380D01*
X134509523Y-66302380D02*
X133938095Y-66302380D01*
X134223809Y-66302380D02*
X134223809Y-65302380D01*
X134128571Y-65445238D01*
X134033333Y-65540476D01*
X133938095Y-65588095D01*
X134842857Y-65302380D02*
X135509523Y-65302380D01*
X135080952Y-66302380D01*
%TO.C,D16*%
X132985714Y-61202380D02*
X132985714Y-60202380D01*
X133223809Y-60202380D01*
X133366666Y-60250000D01*
X133461904Y-60345238D01*
X133509523Y-60440476D01*
X133557142Y-60630952D01*
X133557142Y-60773809D01*
X133509523Y-60964285D01*
X133461904Y-61059523D01*
X133366666Y-61154761D01*
X133223809Y-61202380D01*
X132985714Y-61202380D01*
X134509523Y-61202380D02*
X133938095Y-61202380D01*
X134223809Y-61202380D02*
X134223809Y-60202380D01*
X134128571Y-60345238D01*
X134033333Y-60440476D01*
X133938095Y-60488095D01*
X135366666Y-60202380D02*
X135176190Y-60202380D01*
X135080952Y-60250000D01*
X135033333Y-60297619D01*
X134938095Y-60440476D01*
X134890476Y-60630952D01*
X134890476Y-61011904D01*
X134938095Y-61107142D01*
X134985714Y-61154761D01*
X135080952Y-61202380D01*
X135271428Y-61202380D01*
X135366666Y-61154761D01*
X135414285Y-61107142D01*
X135461904Y-61011904D01*
X135461904Y-60773809D01*
X135414285Y-60678571D01*
X135366666Y-60630952D01*
X135271428Y-60583333D01*
X135080952Y-60583333D01*
X134985714Y-60630952D01*
X134938095Y-60678571D01*
X134890476Y-60773809D01*
%TO.C,D15*%
X132985714Y-56152380D02*
X132985714Y-55152380D01*
X133223809Y-55152380D01*
X133366666Y-55200000D01*
X133461904Y-55295238D01*
X133509523Y-55390476D01*
X133557142Y-55580952D01*
X133557142Y-55723809D01*
X133509523Y-55914285D01*
X133461904Y-56009523D01*
X133366666Y-56104761D01*
X133223809Y-56152380D01*
X132985714Y-56152380D01*
X134509523Y-56152380D02*
X133938095Y-56152380D01*
X134223809Y-56152380D02*
X134223809Y-55152380D01*
X134128571Y-55295238D01*
X134033333Y-55390476D01*
X133938095Y-55438095D01*
X135414285Y-55152380D02*
X134938095Y-55152380D01*
X134890476Y-55628571D01*
X134938095Y-55580952D01*
X135033333Y-55533333D01*
X135271428Y-55533333D01*
X135366666Y-55580952D01*
X135414285Y-55628571D01*
X135461904Y-55723809D01*
X135461904Y-55961904D01*
X135414285Y-56057142D01*
X135366666Y-56104761D01*
X135271428Y-56152380D01*
X135033333Y-56152380D01*
X134938095Y-56104761D01*
X134890476Y-56057142D01*
%TO.C,D14*%
X131385714Y-52802380D02*
X131385714Y-51802380D01*
X131623809Y-51802380D01*
X131766666Y-51850000D01*
X131861904Y-51945238D01*
X131909523Y-52040476D01*
X131957142Y-52230952D01*
X131957142Y-52373809D01*
X131909523Y-52564285D01*
X131861904Y-52659523D01*
X131766666Y-52754761D01*
X131623809Y-52802380D01*
X131385714Y-52802380D01*
X132909523Y-52802380D02*
X132338095Y-52802380D01*
X132623809Y-52802380D02*
X132623809Y-51802380D01*
X132528571Y-51945238D01*
X132433333Y-52040476D01*
X132338095Y-52088095D01*
X133766666Y-52135714D02*
X133766666Y-52802380D01*
X133528571Y-51754761D02*
X133290476Y-52469047D01*
X133909523Y-52469047D01*
%TO.C,D13*%
X134052380Y-46164285D02*
X133052380Y-46164285D01*
X133052380Y-45926190D01*
X133100000Y-45783333D01*
X133195238Y-45688095D01*
X133290476Y-45640476D01*
X133480952Y-45592857D01*
X133623809Y-45592857D01*
X133814285Y-45640476D01*
X133909523Y-45688095D01*
X134004761Y-45783333D01*
X134052380Y-45926190D01*
X134052380Y-46164285D01*
X134052380Y-44640476D02*
X134052380Y-45211904D01*
X134052380Y-44926190D02*
X133052380Y-44926190D01*
X133195238Y-45021428D01*
X133290476Y-45116666D01*
X133338095Y-45211904D01*
X133052380Y-44307142D02*
X133052380Y-43688095D01*
X133433333Y-44021428D01*
X133433333Y-43878571D01*
X133480952Y-43783333D01*
X133528571Y-43735714D01*
X133623809Y-43688095D01*
X133861904Y-43688095D01*
X133957142Y-43735714D01*
X134004761Y-43783333D01*
X134052380Y-43878571D01*
X134052380Y-44164285D01*
X134004761Y-44259523D01*
X133957142Y-44307142D01*
%TO.C,D12*%
X131335714Y-42452380D02*
X131335714Y-41452380D01*
X131573809Y-41452380D01*
X131716666Y-41500000D01*
X131811904Y-41595238D01*
X131859523Y-41690476D01*
X131907142Y-41880952D01*
X131907142Y-42023809D01*
X131859523Y-42214285D01*
X131811904Y-42309523D01*
X131716666Y-42404761D01*
X131573809Y-42452380D01*
X131335714Y-42452380D01*
X132859523Y-42452380D02*
X132288095Y-42452380D01*
X132573809Y-42452380D02*
X132573809Y-41452380D01*
X132478571Y-41595238D01*
X132383333Y-41690476D01*
X132288095Y-41738095D01*
X133240476Y-41547619D02*
X133288095Y-41500000D01*
X133383333Y-41452380D01*
X133621428Y-41452380D01*
X133716666Y-41500000D01*
X133764285Y-41547619D01*
X133811904Y-41642857D01*
X133811904Y-41738095D01*
X133764285Y-41880952D01*
X133192857Y-42452380D01*
X133811904Y-42452380D01*
%TO.C,D11*%
X131485714Y-73392380D02*
X131485714Y-72392380D01*
X131723809Y-72392380D01*
X131866666Y-72440000D01*
X131961904Y-72535238D01*
X132009523Y-72630476D01*
X132057142Y-72820952D01*
X132057142Y-72963809D01*
X132009523Y-73154285D01*
X131961904Y-73249523D01*
X131866666Y-73344761D01*
X131723809Y-73392380D01*
X131485714Y-73392380D01*
X133009523Y-73392380D02*
X132438095Y-73392380D01*
X132723809Y-73392380D02*
X132723809Y-72392380D01*
X132628571Y-72535238D01*
X132533333Y-72630476D01*
X132438095Y-72678095D01*
X133961904Y-73392380D02*
X133390476Y-73392380D01*
X133676190Y-73392380D02*
X133676190Y-72392380D01*
X133580952Y-72535238D01*
X133485714Y-72630476D01*
X133390476Y-72678095D01*
%TO.C,D10*%
X132985714Y-69852380D02*
X132985714Y-68852380D01*
X133223809Y-68852380D01*
X133366666Y-68900000D01*
X133461904Y-68995238D01*
X133509523Y-69090476D01*
X133557142Y-69280952D01*
X133557142Y-69423809D01*
X133509523Y-69614285D01*
X133461904Y-69709523D01*
X133366666Y-69804761D01*
X133223809Y-69852380D01*
X132985714Y-69852380D01*
X134509523Y-69852380D02*
X133938095Y-69852380D01*
X134223809Y-69852380D02*
X134223809Y-68852380D01*
X134128571Y-68995238D01*
X134033333Y-69090476D01*
X133938095Y-69138095D01*
X135128571Y-68852380D02*
X135223809Y-68852380D01*
X135319047Y-68900000D01*
X135366666Y-68947619D01*
X135414285Y-69042857D01*
X135461904Y-69233333D01*
X135461904Y-69471428D01*
X135414285Y-69661904D01*
X135366666Y-69757142D01*
X135319047Y-69804761D01*
X135223809Y-69852380D01*
X135128571Y-69852380D01*
X135033333Y-69804761D01*
X134985714Y-69757142D01*
X134938095Y-69661904D01*
X134890476Y-69471428D01*
X134890476Y-69233333D01*
X134938095Y-69042857D01*
X134985714Y-68947619D01*
X135033333Y-68900000D01*
X135128571Y-68852380D01*
%TO.C,D9*%
X133011904Y-64852380D02*
X133011904Y-63852380D01*
X133250000Y-63852380D01*
X133392857Y-63900000D01*
X133488095Y-63995238D01*
X133535714Y-64090476D01*
X133583333Y-64280952D01*
X133583333Y-64423809D01*
X133535714Y-64614285D01*
X133488095Y-64709523D01*
X133392857Y-64804761D01*
X133250000Y-64852380D01*
X133011904Y-64852380D01*
X134059523Y-64852380D02*
X134250000Y-64852380D01*
X134345238Y-64804761D01*
X134392857Y-64757142D01*
X134488095Y-64614285D01*
X134535714Y-64423809D01*
X134535714Y-64042857D01*
X134488095Y-63947619D01*
X134440476Y-63900000D01*
X134345238Y-63852380D01*
X134154761Y-63852380D01*
X134059523Y-63900000D01*
X134011904Y-63947619D01*
X133964285Y-64042857D01*
X133964285Y-64280952D01*
X134011904Y-64376190D01*
X134059523Y-64423809D01*
X134154761Y-64471428D01*
X134345238Y-64471428D01*
X134440476Y-64423809D01*
X134488095Y-64376190D01*
X134535714Y-64280952D01*
%TO.C,D8*%
X133011904Y-59702380D02*
X133011904Y-58702380D01*
X133250000Y-58702380D01*
X133392857Y-58750000D01*
X133488095Y-58845238D01*
X133535714Y-58940476D01*
X133583333Y-59130952D01*
X133583333Y-59273809D01*
X133535714Y-59464285D01*
X133488095Y-59559523D01*
X133392857Y-59654761D01*
X133250000Y-59702380D01*
X133011904Y-59702380D01*
X134154761Y-59130952D02*
X134059523Y-59083333D01*
X134011904Y-59035714D01*
X133964285Y-58940476D01*
X133964285Y-58892857D01*
X134011904Y-58797619D01*
X134059523Y-58750000D01*
X134154761Y-58702380D01*
X134345238Y-58702380D01*
X134440476Y-58750000D01*
X134488095Y-58797619D01*
X134535714Y-58892857D01*
X134535714Y-58940476D01*
X134488095Y-59035714D01*
X134440476Y-59083333D01*
X134345238Y-59130952D01*
X134154761Y-59130952D01*
X134059523Y-59178571D01*
X134011904Y-59226190D01*
X133964285Y-59321428D01*
X133964285Y-59511904D01*
X134011904Y-59607142D01*
X134059523Y-59654761D01*
X134154761Y-59702380D01*
X134345238Y-59702380D01*
X134440476Y-59654761D01*
X134488095Y-59607142D01*
X134535714Y-59511904D01*
X134535714Y-59321428D01*
X134488095Y-59226190D01*
X134440476Y-59178571D01*
X134345238Y-59130952D01*
%TO.C,D7*%
X133011904Y-54602380D02*
X133011904Y-53602380D01*
X133250000Y-53602380D01*
X133392857Y-53650000D01*
X133488095Y-53745238D01*
X133535714Y-53840476D01*
X133583333Y-54030952D01*
X133583333Y-54173809D01*
X133535714Y-54364285D01*
X133488095Y-54459523D01*
X133392857Y-54554761D01*
X133250000Y-54602380D01*
X133011904Y-54602380D01*
X133916666Y-53602380D02*
X134583333Y-53602380D01*
X134154761Y-54602380D01*
%TO.C,D6*%
X131561904Y-48052380D02*
X131561904Y-47052380D01*
X131800000Y-47052380D01*
X131942857Y-47100000D01*
X132038095Y-47195238D01*
X132085714Y-47290476D01*
X132133333Y-47480952D01*
X132133333Y-47623809D01*
X132085714Y-47814285D01*
X132038095Y-47909523D01*
X131942857Y-48004761D01*
X131800000Y-48052380D01*
X131561904Y-48052380D01*
X132990476Y-47052380D02*
X132800000Y-47052380D01*
X132704761Y-47100000D01*
X132657142Y-47147619D01*
X132561904Y-47290476D01*
X132514285Y-47480952D01*
X132514285Y-47861904D01*
X132561904Y-47957142D01*
X132609523Y-48004761D01*
X132704761Y-48052380D01*
X132895238Y-48052380D01*
X132990476Y-48004761D01*
X133038095Y-47957142D01*
X133085714Y-47861904D01*
X133085714Y-47623809D01*
X133038095Y-47528571D01*
X132990476Y-47480952D01*
X132895238Y-47433333D01*
X132704761Y-47433333D01*
X132609523Y-47480952D01*
X132561904Y-47528571D01*
X132514285Y-47623809D01*
%TO.C,D5*%
X129261904Y-42952380D02*
X129261904Y-41952380D01*
X129500000Y-41952380D01*
X129642857Y-42000000D01*
X129738095Y-42095238D01*
X129785714Y-42190476D01*
X129833333Y-42380952D01*
X129833333Y-42523809D01*
X129785714Y-42714285D01*
X129738095Y-42809523D01*
X129642857Y-42904761D01*
X129500000Y-42952380D01*
X129261904Y-42952380D01*
X130738095Y-41952380D02*
X130261904Y-41952380D01*
X130214285Y-42428571D01*
X130261904Y-42380952D01*
X130357142Y-42333333D01*
X130595238Y-42333333D01*
X130690476Y-42380952D01*
X130738095Y-42428571D01*
X130785714Y-42523809D01*
X130785714Y-42761904D01*
X130738095Y-42857142D01*
X130690476Y-42904761D01*
X130595238Y-42952380D01*
X130357142Y-42952380D01*
X130261904Y-42904761D01*
X130214285Y-42857142D01*
%TO.C,D3*%
X167052380Y-64788095D02*
X166052380Y-64788095D01*
X166052380Y-64550000D01*
X166100000Y-64407142D01*
X166195238Y-64311904D01*
X166290476Y-64264285D01*
X166480952Y-64216666D01*
X166623809Y-64216666D01*
X166814285Y-64264285D01*
X166909523Y-64311904D01*
X167004761Y-64407142D01*
X167052380Y-64550000D01*
X167052380Y-64788095D01*
X166052380Y-63883333D02*
X166052380Y-63264285D01*
X166433333Y-63597619D01*
X166433333Y-63454761D01*
X166480952Y-63359523D01*
X166528571Y-63311904D01*
X166623809Y-63264285D01*
X166861904Y-63264285D01*
X166957142Y-63311904D01*
X167004761Y-63359523D01*
X167052380Y-63454761D01*
X167052380Y-63740476D01*
X167004761Y-63835714D01*
X166957142Y-63883333D01*
%TO.C,D2*%
X129411904Y-36502380D02*
X129411904Y-35502380D01*
X129650000Y-35502380D01*
X129792857Y-35550000D01*
X129888095Y-35645238D01*
X129935714Y-35740476D01*
X129983333Y-35930952D01*
X129983333Y-36073809D01*
X129935714Y-36264285D01*
X129888095Y-36359523D01*
X129792857Y-36454761D01*
X129650000Y-36502380D01*
X129411904Y-36502380D01*
X130364285Y-35597619D02*
X130411904Y-35550000D01*
X130507142Y-35502380D01*
X130745238Y-35502380D01*
X130840476Y-35550000D01*
X130888095Y-35597619D01*
X130935714Y-35692857D01*
X130935714Y-35788095D01*
X130888095Y-35930952D01*
X130316666Y-36502380D01*
X130935714Y-36502380D01*
%TO.C,D1*%
X130289404Y-28562380D02*
X130289404Y-27562380D01*
X130527500Y-27562380D01*
X130670357Y-27610000D01*
X130765595Y-27705238D01*
X130813214Y-27800476D01*
X130860833Y-27990952D01*
X130860833Y-28133809D01*
X130813214Y-28324285D01*
X130765595Y-28419523D01*
X130670357Y-28514761D01*
X130527500Y-28562380D01*
X130289404Y-28562380D01*
X131813214Y-28562380D02*
X131241785Y-28562380D01*
X131527500Y-28562380D02*
X131527500Y-27562380D01*
X131432261Y-27705238D01*
X131337023Y-27800476D01*
X131241785Y-27848095D01*
%TO.C,C11*%
X161657142Y-71742857D02*
X161704761Y-71790476D01*
X161752380Y-71933333D01*
X161752380Y-72028571D01*
X161704761Y-72171428D01*
X161609523Y-72266666D01*
X161514285Y-72314285D01*
X161323809Y-72361904D01*
X161180952Y-72361904D01*
X160990476Y-72314285D01*
X160895238Y-72266666D01*
X160800000Y-72171428D01*
X160752380Y-72028571D01*
X160752380Y-71933333D01*
X160800000Y-71790476D01*
X160847619Y-71742857D01*
X161752380Y-70790476D02*
X161752380Y-71361904D01*
X161752380Y-71076190D02*
X160752380Y-71076190D01*
X160895238Y-71171428D01*
X160990476Y-71266666D01*
X161038095Y-71361904D01*
X161752380Y-69838095D02*
X161752380Y-70409523D01*
X161752380Y-70123809D02*
X160752380Y-70123809D01*
X160895238Y-70219047D01*
X160990476Y-70314285D01*
X161038095Y-70409523D01*
%TO.C,C10*%
X136307142Y-72207142D02*
X136259523Y-72254761D01*
X136116666Y-72302380D01*
X136021428Y-72302380D01*
X135878571Y-72254761D01*
X135783333Y-72159523D01*
X135735714Y-72064285D01*
X135688095Y-71873809D01*
X135688095Y-71730952D01*
X135735714Y-71540476D01*
X135783333Y-71445238D01*
X135878571Y-71350000D01*
X136021428Y-71302380D01*
X136116666Y-71302380D01*
X136259523Y-71350000D01*
X136307142Y-71397619D01*
X137259523Y-72302380D02*
X136688095Y-72302380D01*
X136973809Y-72302380D02*
X136973809Y-71302380D01*
X136878571Y-71445238D01*
X136783333Y-71540476D01*
X136688095Y-71588095D01*
X137878571Y-71302380D02*
X137973809Y-71302380D01*
X138069047Y-71350000D01*
X138116666Y-71397619D01*
X138164285Y-71492857D01*
X138211904Y-71683333D01*
X138211904Y-71921428D01*
X138164285Y-72111904D01*
X138116666Y-72207142D01*
X138069047Y-72254761D01*
X137973809Y-72302380D01*
X137878571Y-72302380D01*
X137783333Y-72254761D01*
X137735714Y-72207142D01*
X137688095Y-72111904D01*
X137640476Y-71921428D01*
X137640476Y-71683333D01*
X137688095Y-71492857D01*
X137735714Y-71397619D01*
X137783333Y-71350000D01*
X137878571Y-71302380D01*
%TO.C,C9*%
X158845833Y-82537142D02*
X158798214Y-82584761D01*
X158655357Y-82632380D01*
X158560119Y-82632380D01*
X158417261Y-82584761D01*
X158322023Y-82489523D01*
X158274404Y-82394285D01*
X158226785Y-82203809D01*
X158226785Y-82060952D01*
X158274404Y-81870476D01*
X158322023Y-81775238D01*
X158417261Y-81680000D01*
X158560119Y-81632380D01*
X158655357Y-81632380D01*
X158798214Y-81680000D01*
X158845833Y-81727619D01*
X159322023Y-82632380D02*
X159512500Y-82632380D01*
X159607738Y-82584761D01*
X159655357Y-82537142D01*
X159750595Y-82394285D01*
X159798214Y-82203809D01*
X159798214Y-81822857D01*
X159750595Y-81727619D01*
X159702976Y-81680000D01*
X159607738Y-81632380D01*
X159417261Y-81632380D01*
X159322023Y-81680000D01*
X159274404Y-81727619D01*
X159226785Y-81822857D01*
X159226785Y-82060952D01*
X159274404Y-82156190D01*
X159322023Y-82203809D01*
X159417261Y-82251428D01*
X159607738Y-82251428D01*
X159702976Y-82203809D01*
X159750595Y-82156190D01*
X159798214Y-82060952D01*
%TO.C,C8*%
X163533333Y-65757142D02*
X163485714Y-65804761D01*
X163342857Y-65852380D01*
X163247619Y-65852380D01*
X163104761Y-65804761D01*
X163009523Y-65709523D01*
X162961904Y-65614285D01*
X162914285Y-65423809D01*
X162914285Y-65280952D01*
X162961904Y-65090476D01*
X163009523Y-64995238D01*
X163104761Y-64900000D01*
X163247619Y-64852380D01*
X163342857Y-64852380D01*
X163485714Y-64900000D01*
X163533333Y-64947619D01*
X164104761Y-65280952D02*
X164009523Y-65233333D01*
X163961904Y-65185714D01*
X163914285Y-65090476D01*
X163914285Y-65042857D01*
X163961904Y-64947619D01*
X164009523Y-64900000D01*
X164104761Y-64852380D01*
X164295238Y-64852380D01*
X164390476Y-64900000D01*
X164438095Y-64947619D01*
X164485714Y-65042857D01*
X164485714Y-65090476D01*
X164438095Y-65185714D01*
X164390476Y-65233333D01*
X164295238Y-65280952D01*
X164104761Y-65280952D01*
X164009523Y-65328571D01*
X163961904Y-65376190D01*
X163914285Y-65471428D01*
X163914285Y-65661904D01*
X163961904Y-65757142D01*
X164009523Y-65804761D01*
X164104761Y-65852380D01*
X164295238Y-65852380D01*
X164390476Y-65804761D01*
X164438095Y-65757142D01*
X164485714Y-65661904D01*
X164485714Y-65471428D01*
X164438095Y-65376190D01*
X164390476Y-65328571D01*
X164295238Y-65280952D01*
%TO.C,C7*%
X160907142Y-66166666D02*
X160954761Y-66214285D01*
X161002380Y-66357142D01*
X161002380Y-66452380D01*
X160954761Y-66595238D01*
X160859523Y-66690476D01*
X160764285Y-66738095D01*
X160573809Y-66785714D01*
X160430952Y-66785714D01*
X160240476Y-66738095D01*
X160145238Y-66690476D01*
X160050000Y-66595238D01*
X160002380Y-66452380D01*
X160002380Y-66357142D01*
X160050000Y-66214285D01*
X160097619Y-66166666D01*
X160002380Y-65833333D02*
X160002380Y-65166666D01*
X161002380Y-65595238D01*
%TO.C,C6*%
X135657142Y-43816666D02*
X135704761Y-43864285D01*
X135752380Y-44007142D01*
X135752380Y-44102380D01*
X135704761Y-44245238D01*
X135609523Y-44340476D01*
X135514285Y-44388095D01*
X135323809Y-44435714D01*
X135180952Y-44435714D01*
X134990476Y-44388095D01*
X134895238Y-44340476D01*
X134800000Y-44245238D01*
X134752380Y-44102380D01*
X134752380Y-44007142D01*
X134800000Y-43864285D01*
X134847619Y-43816666D01*
X134752380Y-42959523D02*
X134752380Y-43150000D01*
X134800000Y-43245238D01*
X134847619Y-43292857D01*
X134990476Y-43388095D01*
X135180952Y-43435714D01*
X135561904Y-43435714D01*
X135657142Y-43388095D01*
X135704761Y-43340476D01*
X135752380Y-43245238D01*
X135752380Y-43054761D01*
X135704761Y-42959523D01*
X135657142Y-42911904D01*
X135561904Y-42864285D01*
X135323809Y-42864285D01*
X135228571Y-42911904D01*
X135180952Y-42959523D01*
X135133333Y-43054761D01*
X135133333Y-43245238D01*
X135180952Y-43340476D01*
X135228571Y-43388095D01*
X135323809Y-43435714D01*
%TO.C,C5*%
X133602142Y-36904166D02*
X133649761Y-36951785D01*
X133697380Y-37094642D01*
X133697380Y-37189880D01*
X133649761Y-37332738D01*
X133554523Y-37427976D01*
X133459285Y-37475595D01*
X133268809Y-37523214D01*
X133125952Y-37523214D01*
X132935476Y-37475595D01*
X132840238Y-37427976D01*
X132745000Y-37332738D01*
X132697380Y-37189880D01*
X132697380Y-37094642D01*
X132745000Y-36951785D01*
X132792619Y-36904166D01*
X132697380Y-35999404D02*
X132697380Y-36475595D01*
X133173571Y-36523214D01*
X133125952Y-36475595D01*
X133078333Y-36380357D01*
X133078333Y-36142261D01*
X133125952Y-36047023D01*
X133173571Y-35999404D01*
X133268809Y-35951785D01*
X133506904Y-35951785D01*
X133602142Y-35999404D01*
X133649761Y-36047023D01*
X133697380Y-36142261D01*
X133697380Y-36380357D01*
X133649761Y-36475595D01*
X133602142Y-36523214D01*
%TO.C,BT1*%
X139128571Y-63910714D02*
X139176190Y-63767857D01*
X139223809Y-63720238D01*
X139319047Y-63672619D01*
X139461904Y-63672619D01*
X139557142Y-63720238D01*
X139604761Y-63767857D01*
X139652380Y-63863095D01*
X139652380Y-64244047D01*
X138652380Y-64244047D01*
X138652380Y-63910714D01*
X138700000Y-63815476D01*
X138747619Y-63767857D01*
X138842857Y-63720238D01*
X138938095Y-63720238D01*
X139033333Y-63767857D01*
X139080952Y-63815476D01*
X139128571Y-63910714D01*
X139128571Y-64244047D01*
X138652380Y-63386904D02*
X138652380Y-62815476D01*
X139652380Y-63101190D02*
X138652380Y-63101190D01*
X139652380Y-61958333D02*
X139652380Y-62529761D01*
X139652380Y-62244047D02*
X138652380Y-62244047D01*
X138795238Y-62339285D01*
X138890476Y-62434523D01*
X138938095Y-62529761D01*
D10*
%TO.C,J3*%
X157510000Y-77380000D02*
X157510000Y-73280000D01*
X157510000Y-73280000D02*
X159510000Y-73280000D01*
X159510000Y-73280000D02*
X159510000Y-77380000D01*
X159510000Y-77380000D02*
X157510000Y-77380000D01*
%TO.C,JP3*%
X179250000Y-65530000D02*
X179550000Y-65830000D01*
X178950000Y-65830000D02*
X179550000Y-65830000D01*
X179250000Y-65530000D02*
X178950000Y-65830000D01*
X178500000Y-65330000D02*
X178500000Y-63330000D01*
X182600000Y-65330000D02*
X178500000Y-65330000D01*
X182600000Y-63330000D02*
X182600000Y-65330000D01*
X178500000Y-63330000D02*
X182600000Y-63330000D01*
%TO.C,Y1*%
X155125000Y-43075000D02*
G75*
G03*
X155125000Y-39675000I0J1700000D01*
G01*
X155125000Y-39675000D02*
G75*
G03*
X155125000Y-43075000I0J-1700000D01*
G01*
%TO.C,C13*%
X144501248Y-70065000D02*
X145023752Y-70065000D01*
X144501248Y-71535000D02*
X145023752Y-71535000D01*
%TO.C,C12*%
X147473752Y-68010000D02*
X146951248Y-68010000D01*
X147473752Y-66540000D02*
X146951248Y-66540000D01*
%TO.C,J11*%
X182940000Y-62544000D02*
X182940000Y-59884000D01*
X180340000Y-62544000D02*
X182940000Y-62544000D01*
X180340000Y-59884000D02*
X182940000Y-59884000D01*
X180340000Y-62544000D02*
X180340000Y-59884000D01*
X179070000Y-62544000D02*
X177740000Y-62544000D01*
X177740000Y-62544000D02*
X177740000Y-61214000D01*
%TO.C,D4*%
X129355000Y-39500000D02*
X131840000Y-39500000D01*
X129355000Y-38130000D02*
X129355000Y-39500000D01*
X131840000Y-38130000D02*
X129355000Y-38130000D01*
%TO.C,U10*%
X153000000Y-71565000D02*
X149550000Y-71565000D01*
X153000000Y-71565000D02*
X154950000Y-71565000D01*
X153000000Y-80435000D02*
X151050000Y-80435000D01*
X153000000Y-80435000D02*
X154950000Y-80435000D01*
%TO.C,U9*%
X138565000Y-76000000D02*
X138565000Y-79450000D01*
X138565000Y-76000000D02*
X138565000Y-74050000D01*
X147435000Y-76000000D02*
X147435000Y-77950000D01*
X147435000Y-76000000D02*
X147435000Y-74050000D01*
%TO.C,U5*%
X165940000Y-69700000D02*
X165940000Y-73150000D01*
X165940000Y-69700000D02*
X165940000Y-67750000D01*
X176060000Y-69700000D02*
X176060000Y-71650000D01*
X176060000Y-69700000D02*
X176060000Y-67750000D01*
%TO.C,TP13*%
X156390000Y-60260000D02*
G75*
G03*
X156390000Y-60260000I-1200000J0D01*
G01*
%TO.C,TP11*%
X178060000Y-79290000D02*
G75*
G03*
X178060000Y-79290000I-1200000J0D01*
G01*
%TO.C,TP10*%
X181310000Y-79390000D02*
G75*
G03*
X181310000Y-79390000I-1200000J0D01*
G01*
%TO.C,TP9*%
X138975000Y-32950000D02*
G75*
G03*
X138975000Y-32950000I-1200000J0D01*
G01*
%TO.C,TP8*%
X135725000Y-32925000D02*
G75*
G03*
X135725000Y-32925000I-1200000J0D01*
G01*
%TO.C,TP5*%
X155450000Y-29130000D02*
G75*
G03*
X155450000Y-29130000I-1200000J0D01*
G01*
%TO.C,TP4*%
X152390000Y-29320000D02*
G75*
G03*
X152390000Y-29320000I-1200000J0D01*
G01*
%TO.C,TP3*%
X157918000Y-49022000D02*
G75*
G03*
X157918000Y-49022000I-1200000J0D01*
G01*
%TO.C,TP2*%
X168078000Y-27150000D02*
G75*
G03*
X168078000Y-27150000I-1200000J0D01*
G01*
%TO.C,TP1*%
X165050000Y-27400000D02*
G75*
G03*
X165050000Y-27400000I-1200000J0D01*
G01*
%TO.C,R40*%
X178922936Y-48075000D02*
X179377064Y-48075000D01*
X178922936Y-46605000D02*
X179377064Y-46605000D01*
%TO.C,R39*%
X171238936Y-79983000D02*
X171693064Y-79983000D01*
X171238936Y-78513000D02*
X171693064Y-78513000D01*
%TO.C,R38*%
X156897936Y-64985000D02*
X157352064Y-64985000D01*
X156897936Y-63515000D02*
X157352064Y-63515000D01*
%TO.C,R37*%
X166597000Y-80253064D02*
X166597000Y-79798936D01*
X165127000Y-80253064D02*
X165127000Y-79798936D01*
%TO.C,R36*%
X172508936Y-65505000D02*
X172963064Y-65505000D01*
X172508936Y-64035000D02*
X172963064Y-64035000D01*
%TO.C,R35*%
X163586936Y-70585000D02*
X164041064Y-70585000D01*
X163586936Y-69115000D02*
X164041064Y-69115000D01*
%TO.C,R34*%
X164575000Y-62377064D02*
X164575000Y-61922936D01*
X163105000Y-62377064D02*
X163105000Y-61922936D01*
%TO.C,R33*%
X161177064Y-59015000D02*
X160722936Y-59015000D01*
X161177064Y-60485000D02*
X160722936Y-60485000D01*
%TO.C,R32*%
X158852064Y-68215000D02*
X158397936Y-68215000D01*
X158852064Y-69685000D02*
X158397936Y-69685000D01*
%TO.C,R31*%
X138186936Y-37057000D02*
X138641064Y-37057000D01*
X138186936Y-35587000D02*
X138641064Y-35587000D01*
%TO.C,R30*%
X150765000Y-33272936D02*
X150765000Y-33727064D01*
X152235000Y-33272936D02*
X152235000Y-33727064D01*
%TO.C,R16*%
X165427064Y-43315000D02*
X164972936Y-43315000D01*
X165427064Y-44785000D02*
X164972936Y-44785000D01*
%TO.C,R14*%
X178897936Y-50160000D02*
X179352064Y-50160000D01*
X178897936Y-48690000D02*
X179352064Y-48690000D01*
%TO.C,R5*%
X166985000Y-57802064D02*
X166985000Y-57347936D01*
X165515000Y-57802064D02*
X165515000Y-57347936D01*
%TO.C,R4*%
X161309533Y-27391064D02*
X161309533Y-26936936D01*
X159839533Y-27391064D02*
X159839533Y-26936936D01*
%TO.C,R2*%
X159839533Y-30776936D02*
X159839533Y-31231064D01*
X161309533Y-30776936D02*
X161309533Y-31231064D01*
%TO.C,Q9*%
X152465000Y-64570000D02*
X153925000Y-64570000D01*
X152465000Y-67730000D02*
X154625000Y-67730000D01*
X152465000Y-67730000D02*
X152465000Y-66800000D01*
X152465000Y-64570000D02*
X152465000Y-65500000D01*
%TO.C,Q8*%
X162040000Y-78840000D02*
X163500000Y-78840000D01*
X162040000Y-82000000D02*
X164200000Y-82000000D01*
X162040000Y-82000000D02*
X162040000Y-81070000D01*
X162040000Y-78840000D02*
X162040000Y-79770000D01*
%TO.C,Q7*%
X183374000Y-75316000D02*
X184834000Y-75316000D01*
X183374000Y-78476000D02*
X185534000Y-78476000D01*
X183374000Y-78476000D02*
X183374000Y-77546000D01*
X183374000Y-75316000D02*
X183374000Y-76246000D01*
%TO.C,Q6*%
X179830000Y-58040000D02*
X178370000Y-58040000D01*
X179830000Y-54880000D02*
X177670000Y-54880000D01*
X179830000Y-54880000D02*
X179830000Y-55810000D01*
X179830000Y-58040000D02*
X179830000Y-57110000D01*
%TO.C,Q5*%
X166352000Y-55108000D02*
X164892000Y-55108000D01*
X166352000Y-51948000D02*
X164192000Y-51948000D01*
X166352000Y-51948000D02*
X166352000Y-52878000D01*
X166352000Y-55108000D02*
X166352000Y-54178000D01*
%TO.C,Q4*%
X166035000Y-48805000D02*
X164575000Y-48805000D01*
X166035000Y-45645000D02*
X163875000Y-45645000D01*
X166035000Y-45645000D02*
X166035000Y-46575000D01*
X166035000Y-48805000D02*
X166035000Y-47875000D01*
%TO.C,Q3*%
X178315000Y-50845000D02*
X179775000Y-50845000D01*
X178315000Y-54005000D02*
X180475000Y-54005000D01*
X178315000Y-54005000D02*
X178315000Y-53075000D01*
X178315000Y-50845000D02*
X178315000Y-51775000D01*
%TO.C,Q2*%
X158510000Y-28758000D02*
X157050000Y-28758000D01*
X158510000Y-25598000D02*
X156350000Y-25598000D01*
X158510000Y-25598000D02*
X158510000Y-26528000D01*
X158510000Y-28758000D02*
X158510000Y-27828000D01*
%TO.C,Q1*%
X158510000Y-32502000D02*
X157050000Y-32502000D01*
X158510000Y-29342000D02*
X156350000Y-29342000D01*
X158510000Y-29342000D02*
X158510000Y-30272000D01*
X158510000Y-32502000D02*
X158510000Y-31572000D01*
%TO.C,JP2*%
X162180000Y-63150000D02*
X159380000Y-63150000D01*
X159380000Y-63150000D02*
X159380000Y-61150000D01*
X159380000Y-61150000D02*
X162180000Y-61150000D01*
X162180000Y-61150000D02*
X162180000Y-63150000D01*
%TO.C,JP1*%
X169780000Y-75850000D02*
X172580000Y-75850000D01*
X172580000Y-75850000D02*
X172580000Y-77850000D01*
X172580000Y-77850000D02*
X169780000Y-77850000D01*
X169780000Y-77850000D02*
X169780000Y-75850000D01*
%TO.C,J10*%
X166320000Y-35000000D02*
X167320000Y-34500000D01*
X166320000Y-34000000D02*
X166320000Y-35000000D01*
X167320000Y-34500000D02*
X166320000Y-34000000D01*
X169020000Y-47980000D02*
X167710000Y-47980000D01*
X169020000Y-47980000D02*
X169020000Y-47980000D01*
X169020000Y-61270000D02*
X169020000Y-47980000D01*
X175520000Y-61270000D02*
X169020000Y-61270000D01*
X175520000Y-30590000D02*
X175520000Y-61270000D01*
X169020000Y-30590000D02*
X175520000Y-30590000D01*
X169020000Y-43880000D02*
X169020000Y-30590000D01*
X167710000Y-43880000D02*
X169020000Y-43880000D01*
X167710000Y-62570000D02*
X167710000Y-29290000D01*
X176830000Y-62570000D02*
X167710000Y-62570000D01*
X176830000Y-29290000D02*
X176830000Y-62570000D01*
X167710000Y-29290000D02*
X176830000Y-29290000D01*
%TO.C,J8*%
X147358000Y-25570000D02*
X147358000Y-24970000D01*
X145758000Y-25570000D02*
X147358000Y-25570000D01*
X145758000Y-24970000D02*
X145758000Y-25570000D01*
X144818000Y-25570000D02*
X144818000Y-24970000D01*
X143218000Y-25570000D02*
X144818000Y-25570000D01*
X143218000Y-24970000D02*
X143218000Y-25570000D01*
X142278000Y-25570000D02*
X142278000Y-24970000D01*
X140678000Y-25570000D02*
X142278000Y-25570000D01*
X140678000Y-24970000D02*
X140678000Y-25570000D01*
X139738000Y-25570000D02*
X139738000Y-24970000D01*
X138138000Y-25570000D02*
X139738000Y-25570000D01*
X138138000Y-24970000D02*
X138138000Y-25570000D01*
X137198000Y-25570000D02*
X137198000Y-24970000D01*
X135598000Y-25570000D02*
X137198000Y-25570000D01*
X135598000Y-24970000D02*
X135598000Y-25570000D01*
X146308000Y-30990000D02*
X146308000Y-29990000D01*
X136648000Y-30990000D02*
X136648000Y-29990000D01*
X146308000Y-29460000D02*
X146558000Y-29990000D01*
X136648000Y-29460000D02*
X146308000Y-29460000D01*
X136398000Y-29990000D02*
X136648000Y-29460000D01*
X146558000Y-29990000D02*
X146558000Y-30990000D01*
X136398000Y-29990000D02*
X146558000Y-29990000D01*
X136398000Y-30990000D02*
X136398000Y-29990000D01*
X134728000Y-26000000D02*
X134728000Y-30000000D01*
X147938000Y-24970000D02*
X135018000Y-24970000D01*
X147938000Y-30990000D02*
X147938000Y-24970000D01*
X135018000Y-30990000D02*
X147938000Y-30990000D01*
X135018000Y-24970000D02*
X135018000Y-30990000D01*
%TO.C,J7*%
X180000000Y-97950000D02*
X179500000Y-97450000D01*
X180000000Y-96950000D02*
X180000000Y-97950000D01*
X179500000Y-97450000D02*
X180000000Y-96950000D01*
X162575000Y-88890000D02*
X162575000Y-94450000D01*
X179305000Y-88890000D02*
X179305000Y-94450000D01*
X179305000Y-88890000D02*
X162575000Y-88890000D01*
X162575000Y-104860000D02*
X162575000Y-97250000D01*
X179305000Y-104860000D02*
X179305000Y-97250000D01*
X179305000Y-104860000D02*
X162575000Y-104860000D01*
%TO.C,J6*%
X148015000Y-97915000D02*
X147515000Y-97415000D01*
X148015000Y-96915000D02*
X148015000Y-97915000D01*
X147515000Y-97415000D02*
X148015000Y-96915000D01*
X130590000Y-88855000D02*
X130590000Y-94415000D01*
X147320000Y-88855000D02*
X147320000Y-94415000D01*
X147320000Y-88855000D02*
X130590000Y-88855000D01*
X130590000Y-104825000D02*
X130590000Y-97215000D01*
X147320000Y-104825000D02*
X147320000Y-97215000D01*
X147320000Y-104825000D02*
X130590000Y-104825000D01*
%TO.C,J5*%
X176500000Y-82678675D02*
X176250000Y-82245662D01*
X176750000Y-82245662D02*
X176500000Y-82678675D01*
X176250000Y-82245662D02*
X176750000Y-82245662D01*
X186445000Y-83140000D02*
X186445000Y-97680000D01*
X155475000Y-83140000D02*
X186445000Y-83140000D01*
X155475000Y-97680000D02*
X155475000Y-83140000D01*
%TO.C,J4*%
X144500000Y-82678675D02*
X144250000Y-82245662D01*
X144750000Y-82245662D02*
X144500000Y-82678675D01*
X144250000Y-82245662D02*
X144750000Y-82245662D01*
X154445000Y-83140000D02*
X154445000Y-97680000D01*
X123475000Y-83140000D02*
X154445000Y-83140000D01*
X123475000Y-97680000D02*
X123475000Y-83140000D01*
%TO.C,J2*%
X160450000Y-77380000D02*
X160450000Y-73280000D01*
X160450000Y-73280000D02*
X162450000Y-73280000D01*
X162450000Y-73280000D02*
X162450000Y-77380000D01*
X162450000Y-77380000D02*
X160450000Y-77380000D01*
%TO.C,J1*%
X163350000Y-77380000D02*
X163350000Y-73280000D01*
X163350000Y-73280000D02*
X165350000Y-73280000D01*
X165350000Y-73280000D02*
X165350000Y-77380000D01*
X165350000Y-77380000D02*
X163350000Y-77380000D01*
%TO.C,D24*%
X156455000Y-68940000D02*
X156455000Y-70400000D01*
X153295000Y-68940000D02*
X153295000Y-71100000D01*
X153295000Y-68940000D02*
X154225000Y-68940000D01*
X156455000Y-68940000D02*
X155525000Y-68940000D01*
%TO.C,D23*%
X152705000Y-68940000D02*
X152705000Y-70400000D01*
X149545000Y-68940000D02*
X149545000Y-71100000D01*
X149545000Y-68940000D02*
X150475000Y-68940000D01*
X152705000Y-68940000D02*
X151775000Y-68940000D01*
%TO.C,D22*%
X134665000Y-74820000D02*
X136125000Y-74820000D01*
X134665000Y-77980000D02*
X136825000Y-77980000D01*
X134665000Y-77980000D02*
X134665000Y-77050000D01*
X134665000Y-74820000D02*
X134665000Y-75750000D01*
%TO.C,D21*%
X134665000Y-78420000D02*
X136125000Y-78420000D01*
X134665000Y-81580000D02*
X136825000Y-81580000D01*
X134665000Y-81580000D02*
X134665000Y-80650000D01*
X134665000Y-78420000D02*
X134665000Y-79350000D01*
%TO.C,D20*%
X148940000Y-37460000D02*
X151425000Y-37460000D01*
X148940000Y-36090000D02*
X148940000Y-37460000D01*
X151425000Y-36090000D02*
X148940000Y-36090000D01*
%TO.C,D19*%
X129327500Y-76660000D02*
X131812500Y-76660000D01*
X129327500Y-75290000D02*
X129327500Y-76660000D01*
X131812500Y-75290000D02*
X129327500Y-75290000D01*
%TO.C,D18*%
X129352500Y-71585000D02*
X131837500Y-71585000D01*
X129352500Y-70215000D02*
X129352500Y-71585000D01*
X131837500Y-70215000D02*
X129352500Y-70215000D01*
%TO.C,D17*%
X129352500Y-66485000D02*
X131837500Y-66485000D01*
X129352500Y-65115000D02*
X129352500Y-66485000D01*
X131837500Y-65115000D02*
X129352500Y-65115000D01*
%TO.C,D16*%
X129352500Y-61385000D02*
X131837500Y-61385000D01*
X129352500Y-60015000D02*
X129352500Y-61385000D01*
X131837500Y-60015000D02*
X129352500Y-60015000D01*
%TO.C,D15*%
X129355000Y-56314533D02*
X131840000Y-56314533D01*
X129355000Y-54944533D02*
X129355000Y-56314533D01*
X131840000Y-54944533D02*
X129355000Y-54944533D01*
%TO.C,D14*%
X129352500Y-51260000D02*
X131837500Y-51260000D01*
X129352500Y-49890000D02*
X129352500Y-51260000D01*
X131837500Y-49890000D02*
X129352500Y-49890000D01*
%TO.C,D13*%
X129352500Y-46185000D02*
X131837500Y-46185000D01*
X129352500Y-44815000D02*
X129352500Y-46185000D01*
X131837500Y-44815000D02*
X129352500Y-44815000D01*
%TO.C,D12*%
X129342500Y-41160000D02*
X131827500Y-41160000D01*
X129342500Y-39790000D02*
X129342500Y-41160000D01*
X131827500Y-39790000D02*
X129342500Y-39790000D01*
%TO.C,D11*%
X129352500Y-75135000D02*
X131837500Y-75135000D01*
X129352500Y-73765000D02*
X129352500Y-75135000D01*
X131837500Y-73765000D02*
X129352500Y-73765000D01*
%TO.C,D10*%
X129352500Y-70060000D02*
X131837500Y-70060000D01*
X129352500Y-68690000D02*
X129352500Y-70060000D01*
X131837500Y-68690000D02*
X129352500Y-68690000D01*
%TO.C,D9*%
X129327500Y-65010000D02*
X131812500Y-65010000D01*
X129327500Y-63640000D02*
X129327500Y-65010000D01*
X131812500Y-63640000D02*
X129327500Y-63640000D01*
%TO.C,D8*%
X129355000Y-59914533D02*
X131840000Y-59914533D01*
X129355000Y-58544533D02*
X129355000Y-59914533D01*
X131840000Y-58544533D02*
X129355000Y-58544533D01*
%TO.C,D7*%
X129352500Y-54835000D02*
X131837500Y-54835000D01*
X129352500Y-53465000D02*
X129352500Y-54835000D01*
X131837500Y-53465000D02*
X129352500Y-53465000D01*
%TO.C,D6*%
X129352500Y-49760000D02*
X131837500Y-49760000D01*
X129352500Y-48390000D02*
X129352500Y-49760000D01*
X131837500Y-48390000D02*
X129352500Y-48390000D01*
%TO.C,D5*%
X129377500Y-44660000D02*
X131862500Y-44660000D01*
X129377500Y-43290000D02*
X129377500Y-44660000D01*
X131862500Y-43290000D02*
X129377500Y-43290000D01*
%TO.C,D3*%
X165790000Y-59602500D02*
X165790000Y-62087500D01*
X167160000Y-59602500D02*
X165790000Y-59602500D01*
X167160000Y-62087500D02*
X167160000Y-59602500D01*
%TO.C,D2*%
X129352500Y-35265000D02*
X131837500Y-35265000D01*
X129352500Y-33895000D02*
X129352500Y-35265000D01*
X131837500Y-33895000D02*
X129352500Y-33895000D01*
%TO.C,D1*%
X129342500Y-30175000D02*
X131827500Y-30175000D01*
X129342500Y-28805000D02*
X129342500Y-30175000D01*
X131827500Y-28805000D02*
X129342500Y-28805000D01*
%TO.C,C11*%
X158928752Y-70235000D02*
X158406248Y-70235000D01*
X158928752Y-71705000D02*
X158406248Y-71705000D01*
%TO.C,C10*%
X136176248Y-74185000D02*
X136698752Y-74185000D01*
X136176248Y-72715000D02*
X136698752Y-72715000D01*
%TO.C,C9*%
X159273752Y-79765000D02*
X158751248Y-79765000D01*
X159273752Y-81235000D02*
X158751248Y-81235000D01*
%TO.C,C8*%
X163476248Y-67760000D02*
X163998752Y-67760000D01*
X163476248Y-66290000D02*
X163998752Y-66290000D01*
%TO.C,C7*%
X157576248Y-67685000D02*
X158098752Y-67685000D01*
X157576248Y-66215000D02*
X158098752Y-66215000D01*
%TO.C,C6*%
X134190000Y-40376248D02*
X134190000Y-40898752D01*
X135660000Y-40376248D02*
X135660000Y-40898752D01*
%TO.C,C5*%
X135660000Y-36998752D02*
X135660000Y-36476248D01*
X134190000Y-36998752D02*
X134190000Y-36476248D01*
%TO.C,BT1*%
X150500000Y-61000000D02*
X150500000Y-63000000D01*
X149500000Y-62000000D02*
X151500000Y-62000000D01*
X136150000Y-37650000D02*
X140650000Y-37650000D01*
X136150000Y-60350000D02*
X140650000Y-60350000D01*
X136150000Y-60350000D02*
X136150000Y-37650000D01*
X140650000Y-34450000D02*
X142200000Y-34450000D01*
X140650000Y-37650000D02*
X140650000Y-34450000D01*
X140650000Y-63550000D02*
X142200000Y-63550000D01*
X140650000Y-60350000D02*
X140650000Y-63550000D01*
X148350000Y-63550000D02*
X146800000Y-63550000D01*
X148350000Y-60350000D02*
X148350000Y-63550000D01*
X152850000Y-58550000D02*
X151050000Y-60350000D01*
X151050000Y-60350000D02*
X148350000Y-60350000D01*
X152850000Y-37650000D02*
X152850000Y-58550000D01*
X152850000Y-37650000D02*
X148350000Y-37650000D01*
X148350000Y-34450000D02*
X146800000Y-34450000D01*
X148350000Y-37650000D02*
X148350000Y-34450000D01*
%TD*%
M02*
