M48
; DRILL file {KiCad (6.0.1)} date Mon Feb 14 21:44:04 2022
; FORMAT={-:-/ absolute / inch / decimal}
; #@! TF.CreationDate,2022-02-14T21:44:04+00:00
; #@! TF.GenerationSoftware,Kicad,Pcbnew,(6.0.1)
; #@! TF.FileFunction,Plated,1,4,PTH
FMAT,2
INCH
; #@! TA.AperFunction,Plated,PTH,ViaDrill
T1C0.0157
; #@! TA.AperFunction,Plated,PTH,ComponentDrill
T2C0.0197
; #@! TA.AperFunction,Plated,PTH,ComponentDrill
T3C0.0350
; #@! TA.AperFunction,Plated,PTH,ComponentDrill
T4C0.0394
; #@! TA.AperFunction,Plated,PTH,ComponentDrill
T5C0.0469
; #@! TA.AperFunction,Plated,PTH,ComponentDrill
T6C0.0618
; #@! TA.AperFunction,Plated,PTH,ComponentDrill
T7C0.1260
%
G90
G05
T1
X5.0574Y-3.0718
X5.0679Y-3.7795
X5.0699Y-1.439
X5.0787Y-3.6841
X5.0797Y-1.5305
X5.0817Y-2.1329
X5.0846Y-2.3327
X5.0856Y-1.7234
X5.1Y-1.89
X5.1024Y-2.685
X5.1024Y-3.6318
X5.1152Y-1.1053
X5.1152Y-2.8917
X5.1201Y-2.4902
X5.123Y-1.31
X5.1836Y-3.0856
X5.1998Y-2.6742
X5.2037Y-2.2726
X5.2047Y-2.874
X5.2057Y-1.6604
X5.2067Y-2.0719
X5.2146Y-3.3041
X5.2165Y-3.0571
X5.2165Y-3.1132
X5.2175Y-3.3996
X5.2244Y-2.5984
X5.2293Y-2.9921
X5.2303Y-1.5945
X5.2362Y-1.1644
X5.2374Y-2.0037
X5.2392Y-1.7972
X5.2402Y-3.4685
X5.2411Y-1.3612
X5.2411Y-2.1998
X5.247Y-3.7805
X5.251Y-2.4065
X5.251Y-2.7953
X5.2569Y-2.9341
X5.2608Y-3.0797
X5.2756Y-3.2746
X5.2835Y-3.3986
X5.2972Y-1.7897
X5.2992Y-2.5827
X5.3Y-3.24
X5.3041Y-3.1929
X5.3268Y-2.7244
X5.3356Y-3.0098
X5.338Y-2.9238
X5.3602Y-1.4705
X5.3612Y-1.4035
X5.3612Y-3.4341
X5.3612Y-3.5512
X5.3716Y-1.526
X5.376Y-1.7933
X5.3799Y-2.5807
X5.3873Y-3.0094
X5.3878Y-1.5994
X5.3937Y-2.7442
X5.4144Y-2.9557
X5.4181Y-3.029
X5.4419Y-2.627
X5.4429Y-3.0925
X5.4459Y-3.2283
X5.4478Y-2.936
X5.4537Y-2.8937
X5.4646Y-3.874
X5.4853Y-2.5837
X5.4941Y-3.2382
X5.498Y-3.0424
X5.5157Y-1.6545
X5.5167Y-1.29
X5.5197Y-1.3514
X5.5207Y-1.7008
X5.524Y-1.85
X5.5256Y-1.7589
X5.5266Y-2.7531
X5.5331Y-2.5518
X5.5367Y-2.6583
X5.54Y-1.32
X5.5443Y-2.9448
X5.5512Y-1.4724
X5.5669Y-4.0394
X5.5669Y-4.0945
X5.5719Y-3.5522
X5.5728Y-2.7451
X5.5805Y-2.248
X5.5827Y-3.877
X5.5906Y-1.8189
X5.5906Y-3.2523
X5.5915Y-2.8484
X5.5984Y-4.0709
X5.6185Y-1.4913
X5.6299Y-3.2523
X5.6319Y-3.3701
X5.6417Y-1.8819
X5.6479Y-2.6862
X5.6535Y-2.1772
X5.6555Y-2.9547
X5.6579Y-1.4913
X5.6772Y-1.4528
X5.6843Y-2.6843
X5.6843Y-2.7357
X5.69Y-1.27
X5.6939Y-3.11
X5.6973Y-2.6143
X5.7Y-3.42
X5.7008Y-3.7736
X5.7028Y-2.4016
X5.7047Y-1.6181
X5.7081Y-2.5778
X5.7087Y-1.6969
X5.7126Y-1.5709
X5.7146Y-3.4646
X5.7165Y-2.2559
X5.7205Y-2.1142
X5.7244Y-1.9921
X5.7264Y-2.4331
X5.7275Y-2.3283
X5.7415Y-1.6009
X5.751Y-3.3553
X5.752Y-1.5354
X5.7598Y-1.6929
X5.7598Y-1.7264
X5.7598Y-1.7598
X5.7602Y-2.9935
X5.7628Y-3.1516
X5.7781Y-1.5843
X5.78Y-2.69
X5.78Y-3.05
X5.7854Y-2.7461
X5.7874Y-3.2523
X5.79Y-2.47
X5.7992Y-1.8898
X5.7992Y-2.0394
X5.811Y-4.0394
X5.811Y-4.1417
X5.8164Y-3.5636
X5.8189Y-2.003
X5.82Y-2.5
X5.8228Y-2.872
X5.8287Y-2.748
X5.8356Y-2.5994
X5.8376Y-3.4183
X5.84Y-3.51
X5.8547Y-2.1445
X5.86Y-3.89
X5.8602Y-2.7913
X5.8642Y-2.8711
X5.8642Y-3.7382
X5.8685Y-2.994
X5.87Y-1.95
X5.8878Y-3.3258
X5.8907Y-1.4026
X5.8957Y-1.3012
X5.8967Y-1.251
X5.8976Y-1.752
X5.9Y-1.34
X5.9035Y-2.622
X5.91Y-3.8022
X5.9124Y-2.6742
X5.9216Y-2.2165
X5.939Y-1.6781
X5.9449Y-1.752
X5.9449Y-2.3154
X5.95Y-2.18
X5.9606Y-3.8189
X5.9606Y-3.9743
X5.9764Y-4.0256
X5.98Y-2.5843
X5.9823Y-3.1132
X5.9855Y-3.0484
X5.9855Y-2.9299
X5.9882Y-2.9941
X6.0Y-1.2254
X6.0059Y-1.4045
X6.0079Y-3.811
X6.0157Y-4.1496
X6.0187Y-2.9068
X6.0196Y-3.1104
X6.0197Y-3.3061
X6.0217Y-3.0533
X6.0256Y-1.9156
X6.03Y-3.89
X6.0315Y-1.7874
X6.0315Y-4.0256
X6.0354Y-2.4646
X6.0433Y-3.0827
X6.0443Y-2.8219
X6.0511Y-2.9449
X6.0571Y-1.5965
X6.0692Y-2.9902
X6.07Y-1.32
X6.07Y-3.8
X6.0768Y-1.5531
X6.0787Y-1.7874
X6.0842Y-3.2693
X6.0886Y-1.2362
X6.09Y-2.9
X6.09Y-3.37
X6.09Y-3.4065
X6.0918Y-1.92
X6.0922Y-3.4499
X6.1093Y-2.0413
X6.1161Y-2.2583
X6.1211Y-2.6398
X6.1211Y-3.2321
X6.122Y-1.7874
X6.1243Y-1.8713
X6.13Y-1.03
X6.1311Y-1.4289
X6.1319Y-1.3169
X6.1346Y-2.1524
X6.1457Y-3.8022
X6.15Y-3.88
X6.1575Y-1.5984
X6.1604Y-1.6841
X6.1614Y-1.7874
X6.1663Y-1.4035
X6.1711Y-1.5471
X6.1723Y-2.8188
X6.181Y-2.1013
X6.189Y-3.811
X6.2008Y-1.4295
X6.203Y-2.0672
X6.2195Y-1.3858
X6.2244Y-3.0669
X6.2264Y-3.1299
X6.2277Y-3.8098
X6.237Y-1.7964
X6.2421Y-3.25
X6.2551Y-2.4449
X6.2559Y-2.8856
X6.2756Y-2.5846
X6.2756Y-3.8189
X6.3031Y-3.4862
X6.311Y-2.5039
X6.32Y-3.79
X6.32Y-3.88
X6.3211Y-3.1252
X6.3289Y-2.5621
X6.3425Y-3.7044
X6.3445Y-3.3996
X6.3465Y-3.4882
X6.3583Y-2.8799
X6.3654Y-2.5621
X6.3858Y-3.435
X6.3859Y-2.7057
X6.39Y-2.45
X6.3978Y-3.3587
X6.3996Y-2.872
X6.3998Y-2.3874
X6.4213Y-2.6969
X6.435Y-1.8642
X6.436Y-2.065
X6.4449Y-1.6673
X6.4508Y-3.2942
X6.4518Y-1.3189
X6.47Y-2.86
X6.4732Y-3.1669
X6.4862Y-1.5551
X6.49Y-1.41
X6.4921Y-2.189
X6.4921Y-2.2874
X6.4921Y-2.6929
X6.4941Y-1.4646
X6.5079Y-1.878
X6.5079Y-2.3661
X6.5118Y-4.0256
X6.5148Y-3.7717
X6.5207Y-2.9457
X6.5256Y-2.6398
X6.5335Y-2.7067
X6.5561Y-1.4035
X6.56Y-2.7843
X6.5659Y-1.9695
X6.5669Y-3.3268
X6.5689Y-2.498
X6.5827Y-1.5512
X6.5827Y-1.6496
X6.6063Y-2.189
X6.6063Y-2.6969
X6.6063Y-3.1654
X6.6063Y-3.2087
X6.6083Y-2.0551
X6.6102Y-1.9331
X6.6134Y-2.7969
X6.6142Y-4.1811
X6.624Y-1.4646
X6.626Y-1.3189
X6.626Y-2.3061
X6.6457Y-3.9449
X6.6481Y-2.9134
X6.6486Y-3.5738
X6.6535Y-2.7956
X6.6555Y-2.1594
X6.66Y-2.54
X6.6614Y-2.3898
X6.6634Y-3.0886
X6.6693Y-3.8819
X6.6732Y-1.5472
X6.6811Y-1.4134
X6.6821Y-3.5423
X6.7067Y-2.9213
X6.7147Y-2.5734
X6.7205Y-3.5886
X6.7244Y-2.7283
X6.7244Y-4.1811
X6.7264Y-2.3169
X6.748Y-2.437
X6.7579Y-2.8957
X6.7687Y-3.5423
X6.7736Y-2.935
X6.7795Y-2.4094
X6.7844Y-3.3583
X6.7972Y-2.3061
X6.8301Y-2.939
X6.8307Y-2.7717
X6.8325Y-3.0458
X6.8346Y-4.0157
X6.8386Y-3.122
X6.8415Y-3.5837
X6.8661Y-2.311
X6.872Y-3.2937
X6.8819Y-2.9035
X6.8917Y-3.0561
X6.9003Y-2.7676
X6.9055Y-2.4528
X6.9075Y-1.3179
X6.9075Y-1.3967
X6.9075Y-1.501
X6.9094Y-1.9646
X6.93Y-2.12
X6.93Y-2.19
X6.94Y-2.24
X6.9567Y-1.8858
X6.9675Y-3.4783
X6.9685Y-3.7244
X6.9724Y-2.7106
X6.9734Y-2.7972
X6.9744Y-2.8789
X6.98Y-2.49
X6.9843Y-4.1811
X6.9904Y-3.2521
X7.0059Y-3.0571
X7.0059Y-3.4774
X7.0079Y-2.0157
X7.0079Y-2.1181
X7.0433Y-2.4724
X7.0453Y-3.3907
X7.0551Y-2.063
X7.0743Y-3.06
X7.09Y-2.27
X7.1102Y-4.1811
X7.1152Y-3.6663
X7.13Y-2.17
X7.1339Y-2.063
X7.1457Y-1.8634
X7.1535Y-3.4941
X7.25Y-3.07
T2
X6.1073Y-1.5915
X6.1073Y-1.6663
T3
X5.2006Y-3.5478
X5.2907Y-3.5478
X5.3308Y-3.7376
X5.3708Y-3.8077
X5.4108Y-3.7376
X5.4508Y-3.8077
X5.4908Y-3.7376
X5.5308Y-3.8077
X5.5708Y-3.7376
X5.6108Y-3.8077
X5.6506Y-3.5478
X5.7407Y-3.5478
X6.4598Y-3.5492
X6.55Y-3.5492
X6.5901Y-3.739
X6.6301Y-3.8091
X6.6701Y-3.739
X6.7101Y-3.8091
X6.7501Y-3.739
X6.7901Y-3.8091
X6.8301Y-3.739
X6.8701Y-3.8091
X6.9098Y-3.5492
X7.0Y-3.5492
T4
X5.2528Y-3.3465
X5.3073Y-3.4583
X5.3618Y-3.3465
X5.4163Y-3.4583
X5.4709Y-3.3465
X5.5254Y-3.4583
X5.5799Y-3.3465
X5.6344Y-3.4583
X5.689Y-3.3465
X6.2756Y-1.3583
X6.2756Y-1.4583
X6.2756Y-1.5583
X6.2756Y-1.6583
X6.2756Y-1.7583
X6.2756Y-1.8583
X6.2756Y-1.9583
X6.2756Y-2.0583
X6.2756Y-2.1583
X6.2756Y-2.2583
X6.3756Y-1.3583
X6.3756Y-1.4583
X6.3756Y-1.5583
X6.3756Y-1.6583
X6.3756Y-1.7583
X6.3756Y-1.8583
X6.3756Y-1.9583
X6.3756Y-2.0583
X6.3756Y-2.1583
X6.3756Y-2.2583
X6.5126Y-3.3465
X6.5671Y-3.4583
X6.6217Y-3.3465
X6.6762Y-3.4583
X6.7307Y-3.3465
X6.7323Y-1.3583
X6.7323Y-1.4583
X6.7323Y-1.5583
X6.7323Y-1.6583
X6.7323Y-1.7583
X6.7323Y-1.8583
X6.7323Y-1.9583
X6.7323Y-2.0583
X6.7323Y-2.1583
X6.7323Y-2.2583
X6.7852Y-3.4583
X6.8323Y-1.3583
X6.8323Y-1.4583
X6.8323Y-1.5583
X6.8323Y-1.6583
X6.8323Y-1.7583
X6.8323Y-1.8583
X6.8323Y-1.9583
X6.8323Y-2.0583
X6.8323Y-2.1583
X6.8323Y-2.2583
X6.8398Y-3.3465
X6.8943Y-3.4583
X6.9488Y-3.3465
X7.05Y-2.41
X7.15Y-2.41
T5
X5.37Y-1.1024
X5.47Y-1.1024
X5.57Y-1.1024
X5.67Y-1.1024
X5.77Y-1.1024
T6
X5.1506Y-3.7726
X5.7907Y-3.7726
X6.4098Y-3.774
X7.05Y-3.774
T7
X4.9787Y-3.4024
X5.963Y-3.4024
X6.2386Y-3.4024
X7.2228Y-3.4024
T0
M30
