%TF.GenerationSoftware,KiCad,Pcbnew,(6.0.1)*%
%TF.CreationDate,2022-02-13T12:19:39+00:00*%
%TF.ProjectId,module-io,6d6f6475-6c65-42d6-996f-2e6b69636164,rev?*%
%TF.SameCoordinates,Original*%
%TF.FileFunction,Soldermask,Top*%
%TF.FilePolarity,Negative*%
%FSLAX46Y46*%
G04 Gerber Fmt 4.6, Leading zero omitted, Abs format (unit mm)*
G04 Created by KiCad (PCBNEW (6.0.1)) date 2022-02-13 12:19:39*
%MOMM*%
%LPD*%
G01*
G04 APERTURE LIST*
G04 Aperture macros list*
%AMRoundRect*
0 Rectangle with rounded corners*
0 $1 Rounding radius*
0 $2 $3 $4 $5 $6 $7 $8 $9 X,Y pos of 4 corners*
0 Add a 4 corners polygon primitive as box body*
4,1,4,$2,$3,$4,$5,$6,$7,$8,$9,$2,$3,0*
0 Add four circle primitives for the rounded corners*
1,1,$1+$1,$2,$3*
1,1,$1+$1,$4,$5*
1,1,$1+$1,$6,$7*
1,1,$1+$1,$8,$9*
0 Add four rect primitives between the rounded corners*
20,1,$1+$1,$2,$3,$4,$5,0*
20,1,$1+$1,$4,$5,$6,$7,0*
20,1,$1+$1,$6,$7,$8,$9,0*
20,1,$1+$1,$8,$9,$2,$3,0*%
G04 Aperture macros list end*
%ADD10R,1.500000X1.000000*%
%ADD11R,1.000000X1.500000*%
%ADD12C,1.000000*%
%ADD13RoundRect,0.250000X-0.337500X-0.475000X0.337500X-0.475000X0.337500X0.475000X-0.337500X0.475000X0*%
%ADD14RoundRect,0.250000X0.337500X0.475000X-0.337500X0.475000X-0.337500X-0.475000X0.337500X-0.475000X0*%
%ADD15O,1.700000X1.700000*%
%ADD16R,1.700000X1.700000*%
%ADD17C,2.500000*%
%ADD18RoundRect,0.212500X-0.400000X-0.212500X0.400000X-0.212500X0.400000X0.212500X-0.400000X0.212500X0*%
%ADD19RoundRect,0.150000X-0.825000X-0.150000X0.825000X-0.150000X0.825000X0.150000X-0.825000X0.150000X0*%
%ADD20RoundRect,0.150000X0.150000X-0.825000X0.150000X0.825000X-0.150000X0.825000X-0.150000X-0.825000X0*%
%ADD21C,2.000000*%
%ADD22RoundRect,0.250000X-0.350000X-0.450000X0.350000X-0.450000X0.350000X0.450000X-0.350000X0.450000X0*%
%ADD23RoundRect,0.250000X0.450000X-0.350000X0.450000X0.350000X-0.450000X0.350000X-0.450000X-0.350000X0*%
%ADD24RoundRect,0.250000X0.350000X0.450000X-0.350000X0.450000X-0.350000X-0.450000X0.350000X-0.450000X0*%
%ADD25RoundRect,0.250000X-0.450000X0.350000X-0.450000X-0.350000X0.450000X-0.350000X0.450000X0.350000X0*%
%ADD26R,0.900000X0.800000*%
%ADD27C,1.700000*%
%ADD28RoundRect,0.250000X-0.600000X-0.600000X0.600000X-0.600000X0.600000X0.600000X-0.600000X0.600000X0*%
%ADD29RoundRect,0.250000X0.600000X0.600000X-0.600000X0.600000X-0.600000X-0.600000X0.600000X-0.600000X0*%
%ADD30O,1.740000X2.190000*%
%ADD31RoundRect,0.250000X-0.620000X-0.845000X0.620000X-0.845000X0.620000X0.845000X-0.620000X0.845000X0*%
%ADD32C,1.500000*%
%ADD33C,2.300000*%
%ADD34C,3.250000*%
%ADD35R,1.500000X1.500000*%
%ADD36C,4.000000*%
%ADD37C,1.600000*%
%ADD38R,1.600000X1.600000*%
%ADD39R,0.800000X0.900000*%
%ADD40RoundRect,0.212500X-0.212500X0.400000X-0.212500X-0.400000X0.212500X-0.400000X0.212500X0.400000X0*%
%ADD41RoundRect,0.250000X-0.475000X0.337500X-0.475000X-0.337500X0.475000X-0.337500X0.475000X0.337500X0*%
%ADD42RoundRect,0.250000X0.475000X-0.337500X0.475000X0.337500X-0.475000X0.337500X-0.475000X-0.337500X0*%
%ADD43R,3.600000X2.600000*%
G04 APERTURE END LIST*
D10*
%TO.C,J3*%
X158510000Y-76630000D03*
X158510000Y-75330000D03*
X158510000Y-74030000D03*
%TD*%
D11*
%TO.C,JP3*%
X179250000Y-64330000D03*
X180550000Y-64330000D03*
X181850000Y-64330000D03*
%TD*%
D12*
%TO.C,Y1*%
X155125000Y-40425000D03*
X155125000Y-42325000D03*
%TD*%
D13*
%TO.C,C13*%
X145800000Y-70800000D03*
X143725000Y-70800000D03*
%TD*%
D14*
%TO.C,C12*%
X146175000Y-67275000D03*
X148250000Y-67275000D03*
%TD*%
D15*
%TO.C,J11*%
X181610000Y-61214000D03*
D16*
X179070000Y-61214000D03*
%TD*%
D17*
%TO.C,H10*%
X126730000Y-75210000D03*
%TD*%
%TO.C,H9*%
X126730000Y-70130000D03*
%TD*%
%TO.C,H8*%
X126730000Y-65050000D03*
%TD*%
%TO.C,H7*%
X126730000Y-59970000D03*
%TD*%
%TO.C,H6*%
X126740000Y-54890000D03*
%TD*%
%TO.C,H5*%
X126730000Y-49810000D03*
%TD*%
%TO.C,H4*%
X126740000Y-44730000D03*
%TD*%
%TO.C,H3*%
X126730000Y-39640000D03*
%TD*%
%TO.C,H2*%
X126730000Y-34570000D03*
%TD*%
%TO.C,H1*%
X126730000Y-29480000D03*
%TD*%
D18*
%TO.C,D4*%
X131852500Y-38815000D03*
X130227500Y-38815000D03*
%TD*%
D19*
%TO.C,U10*%
X155475000Y-72190000D03*
X155475000Y-73460000D03*
X155475000Y-74730000D03*
X155475000Y-76000000D03*
X155475000Y-77270000D03*
X155475000Y-78540000D03*
X155475000Y-79810000D03*
X150525000Y-79810000D03*
X150525000Y-78540000D03*
X150525000Y-77270000D03*
X150525000Y-76000000D03*
X150525000Y-74730000D03*
X150525000Y-73460000D03*
X150525000Y-72190000D03*
%TD*%
D20*
%TO.C,U9*%
X139190000Y-73525000D03*
X140460000Y-73525000D03*
X141730000Y-73525000D03*
X143000000Y-73525000D03*
X144270000Y-73525000D03*
X145540000Y-73525000D03*
X146810000Y-73525000D03*
X146810000Y-78475000D03*
X145540000Y-78475000D03*
X144270000Y-78475000D03*
X143000000Y-78475000D03*
X141730000Y-78475000D03*
X140460000Y-78475000D03*
X139190000Y-78475000D03*
%TD*%
%TO.C,U5*%
X166555000Y-67225000D03*
X167825000Y-67225000D03*
X169095000Y-67225000D03*
X170365000Y-67225000D03*
X171635000Y-67225000D03*
X172905000Y-67225000D03*
X174175000Y-67225000D03*
X175445000Y-67225000D03*
X175445000Y-72175000D03*
X174175000Y-72175000D03*
X172905000Y-72175000D03*
X171635000Y-72175000D03*
X170365000Y-72175000D03*
X169095000Y-72175000D03*
X167825000Y-72175000D03*
X166555000Y-72175000D03*
%TD*%
D21*
%TO.C,TP13*%
X155190000Y-60260000D03*
%TD*%
%TO.C,TP11*%
X176860000Y-79290000D03*
%TD*%
%TO.C,TP10*%
X180110000Y-79390000D03*
%TD*%
%TO.C,TP9*%
X137775000Y-32950000D03*
%TD*%
%TO.C,TP8*%
X134525000Y-32925000D03*
%TD*%
%TO.C,TP5*%
X154250000Y-29130000D03*
%TD*%
%TO.C,TP4*%
X151190000Y-29320000D03*
%TD*%
%TO.C,TP3*%
X156718000Y-49022000D03*
%TD*%
%TO.C,TP2*%
X166878000Y-27150000D03*
%TD*%
%TO.C,TP1*%
X163850000Y-27400000D03*
%TD*%
D22*
%TO.C,R40*%
X180150000Y-47340000D03*
X178150000Y-47340000D03*
%TD*%
%TO.C,R39*%
X172466000Y-79248000D03*
X170466000Y-79248000D03*
%TD*%
%TO.C,R38*%
X158125000Y-64250000D03*
X156125000Y-64250000D03*
%TD*%
D23*
%TO.C,R37*%
X165862000Y-79026000D03*
X165862000Y-81026000D03*
%TD*%
D22*
%TO.C,R36*%
X173736000Y-64770000D03*
X171736000Y-64770000D03*
%TD*%
%TO.C,R35*%
X164814000Y-69850000D03*
X162814000Y-69850000D03*
%TD*%
D23*
%TO.C,R34*%
X163840000Y-61150000D03*
X163840000Y-63150000D03*
%TD*%
D24*
%TO.C,R33*%
X159950000Y-59750000D03*
X161950000Y-59750000D03*
%TD*%
%TO.C,R32*%
X157625000Y-68950000D03*
X159625000Y-68950000D03*
%TD*%
D22*
%TO.C,R31*%
X139414000Y-36322000D03*
X137414000Y-36322000D03*
%TD*%
D25*
%TO.C,R30*%
X151500000Y-34500000D03*
X151500000Y-32500000D03*
%TD*%
D24*
%TO.C,R16*%
X164200000Y-44050000D03*
X166200000Y-44050000D03*
%TD*%
D22*
%TO.C,R14*%
X180125000Y-49425000D03*
X178125000Y-49425000D03*
%TD*%
D23*
%TO.C,R5*%
X166250000Y-56575000D03*
X166250000Y-58575000D03*
%TD*%
%TO.C,R4*%
X160574533Y-26164000D03*
X160574533Y-28164000D03*
%TD*%
D25*
%TO.C,R2*%
X160574533Y-32004000D03*
X160574533Y-30004000D03*
%TD*%
D26*
%TO.C,Q9*%
X152225000Y-66150000D03*
X154225000Y-65200000D03*
X154225000Y-67100000D03*
%TD*%
%TO.C,Q8*%
X161800000Y-80420000D03*
X163800000Y-79470000D03*
X163800000Y-81370000D03*
%TD*%
%TO.C,Q7*%
X183134000Y-76896000D03*
X185134000Y-75946000D03*
X185134000Y-77846000D03*
%TD*%
%TO.C,Q6*%
X180070000Y-56460000D03*
X178070000Y-57410000D03*
X178070000Y-55510000D03*
%TD*%
%TO.C,Q5*%
X166592000Y-53528000D03*
X164592000Y-54478000D03*
X164592000Y-52578000D03*
%TD*%
%TO.C,Q4*%
X166275000Y-47225000D03*
X164275000Y-48175000D03*
X164275000Y-46275000D03*
%TD*%
%TO.C,Q3*%
X178075000Y-52425000D03*
X180075000Y-51475000D03*
X180075000Y-53375000D03*
%TD*%
%TO.C,Q2*%
X158750000Y-27178000D03*
X156750000Y-28128000D03*
X156750000Y-26228000D03*
%TD*%
%TO.C,Q1*%
X158750000Y-30922000D03*
X156750000Y-31872000D03*
X156750000Y-29972000D03*
%TD*%
D11*
%TO.C,JP2*%
X161430000Y-62150000D03*
X160130000Y-62150000D03*
%TD*%
%TO.C,JP1*%
X170530000Y-76850000D03*
X171830000Y-76850000D03*
%TD*%
D27*
%TO.C,J10*%
X173540000Y-57360000D03*
X173540000Y-54820000D03*
X173540000Y-52280000D03*
X173540000Y-49740000D03*
X173540000Y-47200000D03*
X173540000Y-44660000D03*
X173540000Y-42120000D03*
X173540000Y-39580000D03*
X173540000Y-37040000D03*
X173540000Y-34500000D03*
X171000000Y-57360000D03*
X171000000Y-54820000D03*
X171000000Y-52280000D03*
X171000000Y-49740000D03*
X171000000Y-47200000D03*
X171000000Y-44660000D03*
X171000000Y-42120000D03*
X171000000Y-39580000D03*
X171000000Y-37040000D03*
D28*
X171000000Y-34500000D03*
%TD*%
D27*
%TO.C,J9*%
X159400000Y-57360000D03*
X159400000Y-54820000D03*
X159400000Y-52280000D03*
X159400000Y-49740000D03*
X159400000Y-47200000D03*
X159400000Y-44660000D03*
X159400000Y-42120000D03*
X159400000Y-39580000D03*
X159400000Y-37040000D03*
X159400000Y-34500000D03*
X161940000Y-57360000D03*
X161940000Y-54820000D03*
X161940000Y-52280000D03*
X161940000Y-49740000D03*
X161940000Y-47200000D03*
X161940000Y-44660000D03*
X161940000Y-42120000D03*
X161940000Y-39580000D03*
X161940000Y-37040000D03*
D29*
X161940000Y-34500000D03*
%TD*%
D30*
%TO.C,J8*%
X146558000Y-28000000D03*
X144018000Y-28000000D03*
X141478000Y-28000000D03*
X138938000Y-28000000D03*
D31*
X136398000Y-28000000D03*
%TD*%
D32*
%TO.C,J7*%
X164080000Y-90150000D03*
X166370000Y-90150000D03*
X175510000Y-90150000D03*
X177800000Y-90150000D03*
D33*
X179070000Y-95860000D03*
X162810000Y-95860000D03*
D34*
X164590000Y-99290000D03*
X177290000Y-99290000D03*
D32*
X167388000Y-94970000D03*
X169420000Y-94970000D03*
X171452000Y-94970000D03*
X173484000Y-94970000D03*
X168404000Y-96750000D03*
X170436000Y-96750000D03*
X172468000Y-96750000D03*
D35*
X174500000Y-96750000D03*
%TD*%
D32*
%TO.C,J6*%
X132095000Y-90115000D03*
X134385000Y-90115000D03*
X143525000Y-90115000D03*
X145815000Y-90115000D03*
D33*
X147085000Y-95825000D03*
X130825000Y-95825000D03*
D34*
X132605000Y-99255000D03*
X145305000Y-99255000D03*
D32*
X135403000Y-94935000D03*
X137435000Y-94935000D03*
X139467000Y-94935000D03*
X141499000Y-94935000D03*
X136419000Y-96715000D03*
X138451000Y-96715000D03*
X140483000Y-96715000D03*
D35*
X142515000Y-96715000D03*
%TD*%
D36*
%TO.C,J5*%
X183460000Y-86420000D03*
X158460000Y-86420000D03*
D37*
X166805000Y-87840000D03*
X169575000Y-87840000D03*
X172345000Y-87840000D03*
X175115000Y-87840000D03*
X165420000Y-85000000D03*
X168190000Y-85000000D03*
X170960000Y-85000000D03*
X173730000Y-85000000D03*
D38*
X176500000Y-85000000D03*
%TD*%
D36*
%TO.C,J4*%
X151460000Y-86420000D03*
X126460000Y-86420000D03*
D37*
X134805000Y-87840000D03*
X137575000Y-87840000D03*
X140345000Y-87840000D03*
X143115000Y-87840000D03*
X133420000Y-85000000D03*
X136190000Y-85000000D03*
X138960000Y-85000000D03*
X141730000Y-85000000D03*
D38*
X144500000Y-85000000D03*
%TD*%
D10*
%TO.C,J2*%
X161450000Y-76630000D03*
X161450000Y-75330000D03*
X161450000Y-74030000D03*
%TD*%
%TO.C,J1*%
X164350000Y-76630000D03*
X164350000Y-75330000D03*
X164350000Y-74030000D03*
%TD*%
D39*
%TO.C,D24*%
X154875000Y-68700000D03*
X155825000Y-70700000D03*
X153925000Y-70700000D03*
%TD*%
%TO.C,D23*%
X151125000Y-68700000D03*
X152075000Y-70700000D03*
X150175000Y-70700000D03*
%TD*%
D26*
%TO.C,D22*%
X134425000Y-76400000D03*
X136425000Y-75450000D03*
X136425000Y-77350000D03*
%TD*%
%TO.C,D21*%
X134425000Y-80000000D03*
X136425000Y-79050000D03*
X136425000Y-80950000D03*
%TD*%
D18*
%TO.C,D20*%
X151437500Y-36775000D03*
X149812500Y-36775000D03*
%TD*%
%TO.C,D19*%
X131825000Y-75975000D03*
X130200000Y-75975000D03*
%TD*%
%TO.C,D18*%
X131850000Y-70900000D03*
X130225000Y-70900000D03*
%TD*%
%TO.C,D17*%
X131850000Y-65800000D03*
X130225000Y-65800000D03*
%TD*%
%TO.C,D16*%
X131850000Y-60700000D03*
X130225000Y-60700000D03*
%TD*%
%TO.C,D15*%
X131852500Y-55629533D03*
X130227500Y-55629533D03*
%TD*%
%TO.C,D14*%
X131850000Y-50575000D03*
X130225000Y-50575000D03*
%TD*%
%TO.C,D13*%
X131850000Y-45500000D03*
X130225000Y-45500000D03*
%TD*%
%TO.C,D12*%
X131840000Y-40475000D03*
X130215000Y-40475000D03*
%TD*%
%TO.C,D11*%
X131850000Y-74450000D03*
X130225000Y-74450000D03*
%TD*%
%TO.C,D10*%
X131850000Y-69375000D03*
X130225000Y-69375000D03*
%TD*%
%TO.C,D9*%
X131825000Y-64325000D03*
X130200000Y-64325000D03*
%TD*%
%TO.C,D8*%
X131852500Y-59229533D03*
X130227500Y-59229533D03*
%TD*%
%TO.C,D7*%
X131850000Y-54150000D03*
X130225000Y-54150000D03*
%TD*%
%TO.C,D6*%
X131850000Y-49075000D03*
X130225000Y-49075000D03*
%TD*%
%TO.C,D5*%
X131875000Y-43975000D03*
X130250000Y-43975000D03*
%TD*%
D40*
%TO.C,D3*%
X166475000Y-62100000D03*
X166475000Y-60475000D03*
%TD*%
D18*
%TO.C,D2*%
X131850000Y-34580000D03*
X130225000Y-34580000D03*
%TD*%
%TO.C,D1*%
X131840000Y-29490000D03*
X130215000Y-29490000D03*
%TD*%
D14*
%TO.C,C11*%
X157630000Y-70970000D03*
X159705000Y-70970000D03*
%TD*%
D13*
%TO.C,C10*%
X137475000Y-73450000D03*
X135400000Y-73450000D03*
%TD*%
D14*
%TO.C,C9*%
X157975000Y-80500000D03*
X160050000Y-80500000D03*
%TD*%
D13*
%TO.C,C8*%
X164775000Y-67025000D03*
X162700000Y-67025000D03*
%TD*%
%TO.C,C7*%
X158875000Y-66950000D03*
X156800000Y-66950000D03*
%TD*%
D41*
%TO.C,C6*%
X134925000Y-41675000D03*
X134925000Y-39600000D03*
%TD*%
D42*
%TO.C,C5*%
X134925000Y-35700000D03*
X134925000Y-37775000D03*
%TD*%
D43*
%TO.C,BT1*%
X144500000Y-63650000D03*
X144500000Y-34350000D03*
%TD*%
M02*
