%TF.GenerationSoftware,KiCad,Pcbnew,(6.0.1)*%
%TF.CreationDate,2022-02-14T21:44:02+00:00*%
%TF.ProjectId,module-io,6d6f6475-6c65-42d6-996f-2e6b69636164,rev?*%
%TF.SameCoordinates,Original*%
%TF.FileFunction,Legend,Bot*%
%TF.FilePolarity,Positive*%
%FSLAX46Y46*%
G04 Gerber Fmt 4.6, Leading zero omitted, Abs format (unit mm)*
G04 Created by KiCad (PCBNEW (6.0.1)) date 2022-02-14 21:44:02*
%MOMM*%
%LPD*%
G01*
G04 APERTURE LIST*
%ADD10C,0.150000*%
%ADD11C,0.120000*%
G04 APERTURE END LIST*
D10*
%TO.C,F4*%
X174133333Y-99728571D02*
X174466666Y-99728571D01*
X174466666Y-100252380D02*
X174466666Y-99252380D01*
X173990476Y-99252380D01*
X173180952Y-99585714D02*
X173180952Y-100252380D01*
X173419047Y-99204761D02*
X173657142Y-99919047D01*
X173038095Y-99919047D01*
%TO.C,F3*%
X180128571Y-98491666D02*
X180128571Y-98158333D01*
X180652380Y-98158333D02*
X179652380Y-98158333D01*
X179652380Y-98634523D01*
X179652380Y-98920238D02*
X179652380Y-99539285D01*
X180033333Y-99205952D01*
X180033333Y-99348809D01*
X180080952Y-99444047D01*
X180128571Y-99491666D01*
X180223809Y-99539285D01*
X180461904Y-99539285D01*
X180557142Y-99491666D01*
X180604761Y-99444047D01*
X180652380Y-99348809D01*
X180652380Y-99063095D01*
X180604761Y-98967857D01*
X180557142Y-98920238D01*
%TO.C,F2*%
X133528571Y-103466666D02*
X133528571Y-103133333D01*
X134052380Y-103133333D02*
X133052380Y-103133333D01*
X133052380Y-103609523D01*
X133147619Y-103942857D02*
X133100000Y-103990476D01*
X133052380Y-104085714D01*
X133052380Y-104323809D01*
X133100000Y-104419047D01*
X133147619Y-104466666D01*
X133242857Y-104514285D01*
X133338095Y-104514285D01*
X133480952Y-104466666D01*
X134052380Y-103895238D01*
X134052380Y-104514285D01*
%TO.C,F1*%
X141928571Y-99266666D02*
X141928571Y-98933333D01*
X142452380Y-98933333D02*
X141452380Y-98933333D01*
X141452380Y-99409523D01*
X142452380Y-100314285D02*
X142452380Y-99742857D01*
X142452380Y-100028571D02*
X141452380Y-100028571D01*
X141595238Y-99933333D01*
X141690476Y-99838095D01*
X141738095Y-99742857D01*
%TO.C,D28*%
X180814285Y-101652380D02*
X180814285Y-100652380D01*
X180576190Y-100652380D01*
X180433333Y-100700000D01*
X180338095Y-100795238D01*
X180290476Y-100890476D01*
X180242857Y-101080952D01*
X180242857Y-101223809D01*
X180290476Y-101414285D01*
X180338095Y-101509523D01*
X180433333Y-101604761D01*
X180576190Y-101652380D01*
X180814285Y-101652380D01*
X179861904Y-100747619D02*
X179814285Y-100700000D01*
X179719047Y-100652380D01*
X179480952Y-100652380D01*
X179385714Y-100700000D01*
X179338095Y-100747619D01*
X179290476Y-100842857D01*
X179290476Y-100938095D01*
X179338095Y-101080952D01*
X179909523Y-101652380D01*
X179290476Y-101652380D01*
X178719047Y-101080952D02*
X178814285Y-101033333D01*
X178861904Y-100985714D01*
X178909523Y-100890476D01*
X178909523Y-100842857D01*
X178861904Y-100747619D01*
X178814285Y-100700000D01*
X178719047Y-100652380D01*
X178528571Y-100652380D01*
X178433333Y-100700000D01*
X178385714Y-100747619D01*
X178338095Y-100842857D01*
X178338095Y-100890476D01*
X178385714Y-100985714D01*
X178433333Y-101033333D01*
X178528571Y-101080952D01*
X178719047Y-101080952D01*
X178814285Y-101128571D01*
X178861904Y-101176190D01*
X178909523Y-101271428D01*
X178909523Y-101461904D01*
X178861904Y-101557142D01*
X178814285Y-101604761D01*
X178719047Y-101652380D01*
X178528571Y-101652380D01*
X178433333Y-101604761D01*
X178385714Y-101557142D01*
X178338095Y-101461904D01*
X178338095Y-101271428D01*
X178385714Y-101176190D01*
X178433333Y-101128571D01*
X178528571Y-101080952D01*
%TO.C,D27*%
X151214285Y-101052380D02*
X151214285Y-100052380D01*
X150976190Y-100052380D01*
X150833333Y-100100000D01*
X150738095Y-100195238D01*
X150690476Y-100290476D01*
X150642857Y-100480952D01*
X150642857Y-100623809D01*
X150690476Y-100814285D01*
X150738095Y-100909523D01*
X150833333Y-101004761D01*
X150976190Y-101052380D01*
X151214285Y-101052380D01*
X150261904Y-100147619D02*
X150214285Y-100100000D01*
X150119047Y-100052380D01*
X149880952Y-100052380D01*
X149785714Y-100100000D01*
X149738095Y-100147619D01*
X149690476Y-100242857D01*
X149690476Y-100338095D01*
X149738095Y-100480952D01*
X150309523Y-101052380D01*
X149690476Y-101052380D01*
X149357142Y-100052380D02*
X148690476Y-100052380D01*
X149119047Y-101052380D01*
%TO.C,D26*%
X168214285Y-107652380D02*
X168214285Y-106652380D01*
X167976190Y-106652380D01*
X167833333Y-106700000D01*
X167738095Y-106795238D01*
X167690476Y-106890476D01*
X167642857Y-107080952D01*
X167642857Y-107223809D01*
X167690476Y-107414285D01*
X167738095Y-107509523D01*
X167833333Y-107604761D01*
X167976190Y-107652380D01*
X168214285Y-107652380D01*
X167261904Y-106747619D02*
X167214285Y-106700000D01*
X167119047Y-106652380D01*
X166880952Y-106652380D01*
X166785714Y-106700000D01*
X166738095Y-106747619D01*
X166690476Y-106842857D01*
X166690476Y-106938095D01*
X166738095Y-107080952D01*
X167309523Y-107652380D01*
X166690476Y-107652380D01*
X165833333Y-106652380D02*
X166023809Y-106652380D01*
X166119047Y-106700000D01*
X166166666Y-106747619D01*
X166261904Y-106890476D01*
X166309523Y-107080952D01*
X166309523Y-107461904D01*
X166261904Y-107557142D01*
X166214285Y-107604761D01*
X166119047Y-107652380D01*
X165928571Y-107652380D01*
X165833333Y-107604761D01*
X165785714Y-107557142D01*
X165738095Y-107461904D01*
X165738095Y-107223809D01*
X165785714Y-107128571D01*
X165833333Y-107080952D01*
X165928571Y-107033333D01*
X166119047Y-107033333D01*
X166214285Y-107080952D01*
X166261904Y-107128571D01*
X166309523Y-107223809D01*
%TO.C,D25*%
X161814285Y-101052380D02*
X161814285Y-100052380D01*
X161576190Y-100052380D01*
X161433333Y-100100000D01*
X161338095Y-100195238D01*
X161290476Y-100290476D01*
X161242857Y-100480952D01*
X161242857Y-100623809D01*
X161290476Y-100814285D01*
X161338095Y-100909523D01*
X161433333Y-101004761D01*
X161576190Y-101052380D01*
X161814285Y-101052380D01*
X160861904Y-100147619D02*
X160814285Y-100100000D01*
X160719047Y-100052380D01*
X160480952Y-100052380D01*
X160385714Y-100100000D01*
X160338095Y-100147619D01*
X160290476Y-100242857D01*
X160290476Y-100338095D01*
X160338095Y-100480952D01*
X160909523Y-101052380D01*
X160290476Y-101052380D01*
X159385714Y-100052380D02*
X159861904Y-100052380D01*
X159909523Y-100528571D01*
X159861904Y-100480952D01*
X159766666Y-100433333D01*
X159528571Y-100433333D01*
X159433333Y-100480952D01*
X159385714Y-100528571D01*
X159338095Y-100623809D01*
X159338095Y-100861904D01*
X159385714Y-100957142D01*
X159433333Y-101004761D01*
X159528571Y-101052380D01*
X159766666Y-101052380D01*
X159861904Y-101004761D01*
X159909523Y-100957142D01*
%TO.C,C1*%
X152036666Y-38467142D02*
X152084285Y-38514761D01*
X152227142Y-38562380D01*
X152322380Y-38562380D01*
X152465238Y-38514761D01*
X152560476Y-38419523D01*
X152608095Y-38324285D01*
X152655714Y-38133809D01*
X152655714Y-37990952D01*
X152608095Y-37800476D01*
X152560476Y-37705238D01*
X152465238Y-37610000D01*
X152322380Y-37562380D01*
X152227142Y-37562380D01*
X152084285Y-37610000D01*
X152036666Y-37657619D01*
X151084285Y-38562380D02*
X151655714Y-38562380D01*
X151370000Y-38562380D02*
X151370000Y-37562380D01*
X151465238Y-37705238D01*
X151560476Y-37800476D01*
X151655714Y-37848095D01*
%TO.C,C2*%
X154066666Y-46107142D02*
X154114285Y-46154761D01*
X154257142Y-46202380D01*
X154352380Y-46202380D01*
X154495238Y-46154761D01*
X154590476Y-46059523D01*
X154638095Y-45964285D01*
X154685714Y-45773809D01*
X154685714Y-45630952D01*
X154638095Y-45440476D01*
X154590476Y-45345238D01*
X154495238Y-45250000D01*
X154352380Y-45202380D01*
X154257142Y-45202380D01*
X154114285Y-45250000D01*
X154066666Y-45297619D01*
X153685714Y-45297619D02*
X153638095Y-45250000D01*
X153542857Y-45202380D01*
X153304761Y-45202380D01*
X153209523Y-45250000D01*
X153161904Y-45297619D01*
X153114285Y-45392857D01*
X153114285Y-45488095D01*
X153161904Y-45630952D01*
X153733333Y-46202380D01*
X153114285Y-46202380D01*
%TO.C,C3*%
X154566666Y-99157142D02*
X154614285Y-99204761D01*
X154757142Y-99252380D01*
X154852380Y-99252380D01*
X154995238Y-99204761D01*
X155090476Y-99109523D01*
X155138095Y-99014285D01*
X155185714Y-98823809D01*
X155185714Y-98680952D01*
X155138095Y-98490476D01*
X155090476Y-98395238D01*
X154995238Y-98300000D01*
X154852380Y-98252380D01*
X154757142Y-98252380D01*
X154614285Y-98300000D01*
X154566666Y-98347619D01*
X154233333Y-98252380D02*
X153614285Y-98252380D01*
X153947619Y-98633333D01*
X153804761Y-98633333D01*
X153709523Y-98680952D01*
X153661904Y-98728571D01*
X153614285Y-98823809D01*
X153614285Y-99061904D01*
X153661904Y-99157142D01*
X153709523Y-99204761D01*
X153804761Y-99252380D01*
X154090476Y-99252380D01*
X154185714Y-99204761D01*
X154233333Y-99157142D01*
%TO.C,C4*%
X161566666Y-99157142D02*
X161614285Y-99204761D01*
X161757142Y-99252380D01*
X161852380Y-99252380D01*
X161995238Y-99204761D01*
X162090476Y-99109523D01*
X162138095Y-99014285D01*
X162185714Y-98823809D01*
X162185714Y-98680952D01*
X162138095Y-98490476D01*
X162090476Y-98395238D01*
X161995238Y-98300000D01*
X161852380Y-98252380D01*
X161757142Y-98252380D01*
X161614285Y-98300000D01*
X161566666Y-98347619D01*
X160709523Y-98585714D02*
X160709523Y-99252380D01*
X160947619Y-98204761D02*
X161185714Y-98919047D01*
X160566666Y-98919047D01*
%TO.C,IC1*%
X149312190Y-29154380D02*
X149312190Y-28154380D01*
X148264571Y-29059142D02*
X148312190Y-29106761D01*
X148455047Y-29154380D01*
X148550285Y-29154380D01*
X148693142Y-29106761D01*
X148788380Y-29011523D01*
X148836000Y-28916285D01*
X148883619Y-28725809D01*
X148883619Y-28582952D01*
X148836000Y-28392476D01*
X148788380Y-28297238D01*
X148693142Y-28202000D01*
X148550285Y-28154380D01*
X148455047Y-28154380D01*
X148312190Y-28202000D01*
X148264571Y-28249619D01*
X147312190Y-29154380D02*
X147883619Y-29154380D01*
X147597904Y-29154380D02*
X147597904Y-28154380D01*
X147693142Y-28297238D01*
X147788380Y-28392476D01*
X147883619Y-28440095D01*
%TO.C,J9*%
X161003333Y-27852380D02*
X161003333Y-28566666D01*
X161050952Y-28709523D01*
X161146190Y-28804761D01*
X161289047Y-28852380D01*
X161384285Y-28852380D01*
X160479523Y-28852380D02*
X160289047Y-28852380D01*
X160193809Y-28804761D01*
X160146190Y-28757142D01*
X160050952Y-28614285D01*
X160003333Y-28423809D01*
X160003333Y-28042857D01*
X160050952Y-27947619D01*
X160098571Y-27900000D01*
X160193809Y-27852380D01*
X160384285Y-27852380D01*
X160479523Y-27900000D01*
X160527142Y-27947619D01*
X160574761Y-28042857D01*
X160574761Y-28280952D01*
X160527142Y-28376190D01*
X160479523Y-28423809D01*
X160384285Y-28471428D01*
X160193809Y-28471428D01*
X160098571Y-28423809D01*
X160050952Y-28376190D01*
X160003333Y-28280952D01*
%TO.C,R1*%
X131016666Y-28302380D02*
X131350000Y-27826190D01*
X131588095Y-28302380D02*
X131588095Y-27302380D01*
X131207142Y-27302380D01*
X131111904Y-27350000D01*
X131064285Y-27397619D01*
X131016666Y-27492857D01*
X131016666Y-27635714D01*
X131064285Y-27730952D01*
X131111904Y-27778571D01*
X131207142Y-27826190D01*
X131588095Y-27826190D01*
X130064285Y-28302380D02*
X130635714Y-28302380D01*
X130350000Y-28302380D02*
X130350000Y-27302380D01*
X130445238Y-27445238D01*
X130540476Y-27540476D01*
X130635714Y-27588095D01*
%TO.C,R3*%
X134024666Y-35250380D02*
X134358000Y-34774190D01*
X134596095Y-35250380D02*
X134596095Y-34250380D01*
X134215142Y-34250380D01*
X134119904Y-34298000D01*
X134072285Y-34345619D01*
X134024666Y-34440857D01*
X134024666Y-34583714D01*
X134072285Y-34678952D01*
X134119904Y-34726571D01*
X134215142Y-34774190D01*
X134596095Y-34774190D01*
X133691333Y-34250380D02*
X133072285Y-34250380D01*
X133405619Y-34631333D01*
X133262761Y-34631333D01*
X133167523Y-34678952D01*
X133119904Y-34726571D01*
X133072285Y-34821809D01*
X133072285Y-35059904D01*
X133119904Y-35155142D01*
X133167523Y-35202761D01*
X133262761Y-35250380D01*
X133548476Y-35250380D01*
X133643714Y-35202761D01*
X133691333Y-35155142D01*
%TO.C,R7*%
X134024666Y-37282380D02*
X134358000Y-36806190D01*
X134596095Y-37282380D02*
X134596095Y-36282380D01*
X134215142Y-36282380D01*
X134119904Y-36330000D01*
X134072285Y-36377619D01*
X134024666Y-36472857D01*
X134024666Y-36615714D01*
X134072285Y-36710952D01*
X134119904Y-36758571D01*
X134215142Y-36806190D01*
X134596095Y-36806190D01*
X133691333Y-36282380D02*
X133024666Y-36282380D01*
X133453238Y-37282380D01*
%TO.C,R8*%
X134278666Y-44140380D02*
X134612000Y-43664190D01*
X134850095Y-44140380D02*
X134850095Y-43140380D01*
X134469142Y-43140380D01*
X134373904Y-43188000D01*
X134326285Y-43235619D01*
X134278666Y-43330857D01*
X134278666Y-43473714D01*
X134326285Y-43568952D01*
X134373904Y-43616571D01*
X134469142Y-43664190D01*
X134850095Y-43664190D01*
X133707238Y-43568952D02*
X133802476Y-43521333D01*
X133850095Y-43473714D01*
X133897714Y-43378476D01*
X133897714Y-43330857D01*
X133850095Y-43235619D01*
X133802476Y-43188000D01*
X133707238Y-43140380D01*
X133516761Y-43140380D01*
X133421523Y-43188000D01*
X133373904Y-43235619D01*
X133326285Y-43330857D01*
X133326285Y-43378476D01*
X133373904Y-43473714D01*
X133421523Y-43521333D01*
X133516761Y-43568952D01*
X133707238Y-43568952D01*
X133802476Y-43616571D01*
X133850095Y-43664190D01*
X133897714Y-43759428D01*
X133897714Y-43949904D01*
X133850095Y-44045142D01*
X133802476Y-44092761D01*
X133707238Y-44140380D01*
X133516761Y-44140380D01*
X133421523Y-44092761D01*
X133373904Y-44045142D01*
X133326285Y-43949904D01*
X133326285Y-43759428D01*
X133373904Y-43664190D01*
X133421523Y-43616571D01*
X133516761Y-43568952D01*
%TO.C,R9*%
X134278666Y-49474380D02*
X134612000Y-48998190D01*
X134850095Y-49474380D02*
X134850095Y-48474380D01*
X134469142Y-48474380D01*
X134373904Y-48522000D01*
X134326285Y-48569619D01*
X134278666Y-48664857D01*
X134278666Y-48807714D01*
X134326285Y-48902952D01*
X134373904Y-48950571D01*
X134469142Y-48998190D01*
X134850095Y-48998190D01*
X133802476Y-49474380D02*
X133612000Y-49474380D01*
X133516761Y-49426761D01*
X133469142Y-49379142D01*
X133373904Y-49236285D01*
X133326285Y-49045809D01*
X133326285Y-48664857D01*
X133373904Y-48569619D01*
X133421523Y-48522000D01*
X133516761Y-48474380D01*
X133707238Y-48474380D01*
X133802476Y-48522000D01*
X133850095Y-48569619D01*
X133897714Y-48664857D01*
X133897714Y-48902952D01*
X133850095Y-48998190D01*
X133802476Y-49045809D01*
X133707238Y-49093428D01*
X133516761Y-49093428D01*
X133421523Y-49045809D01*
X133373904Y-48998190D01*
X133326285Y-48902952D01*
%TO.C,R10*%
X135262857Y-54554380D02*
X135596190Y-54078190D01*
X135834285Y-54554380D02*
X135834285Y-53554380D01*
X135453333Y-53554380D01*
X135358095Y-53602000D01*
X135310476Y-53649619D01*
X135262857Y-53744857D01*
X135262857Y-53887714D01*
X135310476Y-53982952D01*
X135358095Y-54030571D01*
X135453333Y-54078190D01*
X135834285Y-54078190D01*
X134310476Y-54554380D02*
X134881904Y-54554380D01*
X134596190Y-54554380D02*
X134596190Y-53554380D01*
X134691428Y-53697238D01*
X134786666Y-53792476D01*
X134881904Y-53840095D01*
X133691428Y-53554380D02*
X133596190Y-53554380D01*
X133500952Y-53602000D01*
X133453333Y-53649619D01*
X133405714Y-53744857D01*
X133358095Y-53935333D01*
X133358095Y-54173428D01*
X133405714Y-54363904D01*
X133453333Y-54459142D01*
X133500952Y-54506761D01*
X133596190Y-54554380D01*
X133691428Y-54554380D01*
X133786666Y-54506761D01*
X133834285Y-54459142D01*
X133881904Y-54363904D01*
X133929523Y-54173428D01*
X133929523Y-53935333D01*
X133881904Y-53744857D01*
X133834285Y-53649619D01*
X133786666Y-53602000D01*
X133691428Y-53554380D01*
%TO.C,R11*%
X135008857Y-61412380D02*
X135342190Y-60936190D01*
X135580285Y-61412380D02*
X135580285Y-60412380D01*
X135199333Y-60412380D01*
X135104095Y-60460000D01*
X135056476Y-60507619D01*
X135008857Y-60602857D01*
X135008857Y-60745714D01*
X135056476Y-60840952D01*
X135104095Y-60888571D01*
X135199333Y-60936190D01*
X135580285Y-60936190D01*
X134056476Y-61412380D02*
X134627904Y-61412380D01*
X134342190Y-61412380D02*
X134342190Y-60412380D01*
X134437428Y-60555238D01*
X134532666Y-60650476D01*
X134627904Y-60698095D01*
X133104095Y-61412380D02*
X133675523Y-61412380D01*
X133389809Y-61412380D02*
X133389809Y-60412380D01*
X133485047Y-60555238D01*
X133580285Y-60650476D01*
X133675523Y-60698095D01*
%TO.C,R12*%
X134052380Y-62857142D02*
X133576190Y-62523809D01*
X134052380Y-62285714D02*
X133052380Y-62285714D01*
X133052380Y-62666666D01*
X133100000Y-62761904D01*
X133147619Y-62809523D01*
X133242857Y-62857142D01*
X133385714Y-62857142D01*
X133480952Y-62809523D01*
X133528571Y-62761904D01*
X133576190Y-62666666D01*
X133576190Y-62285714D01*
X134052380Y-63809523D02*
X134052380Y-63238095D01*
X134052380Y-63523809D02*
X133052380Y-63523809D01*
X133195238Y-63428571D01*
X133290476Y-63333333D01*
X133338095Y-63238095D01*
X133147619Y-64190476D02*
X133100000Y-64238095D01*
X133052380Y-64333333D01*
X133052380Y-64571428D01*
X133100000Y-64666666D01*
X133147619Y-64714285D01*
X133242857Y-64761904D01*
X133338095Y-64761904D01*
X133480952Y-64714285D01*
X134052380Y-64142857D01*
X134052380Y-64761904D01*
%TO.C,R13*%
X134310380Y-72001142D02*
X133834190Y-71667809D01*
X134310380Y-71429714D02*
X133310380Y-71429714D01*
X133310380Y-71810666D01*
X133358000Y-71905904D01*
X133405619Y-71953523D01*
X133500857Y-72001142D01*
X133643714Y-72001142D01*
X133738952Y-71953523D01*
X133786571Y-71905904D01*
X133834190Y-71810666D01*
X133834190Y-71429714D01*
X134310380Y-72953523D02*
X134310380Y-72382095D01*
X134310380Y-72667809D02*
X133310380Y-72667809D01*
X133453238Y-72572571D01*
X133548476Y-72477333D01*
X133596095Y-72382095D01*
X133310380Y-73286857D02*
X133310380Y-73905904D01*
X133691333Y-73572571D01*
X133691333Y-73715428D01*
X133738952Y-73810666D01*
X133786571Y-73858285D01*
X133881809Y-73905904D01*
X134119904Y-73905904D01*
X134215142Y-73858285D01*
X134262761Y-73810666D01*
X134310380Y-73715428D01*
X134310380Y-73429714D01*
X134262761Y-73334476D01*
X134215142Y-73286857D01*
%TO.C,R15*%
X132468857Y-78430380D02*
X132802190Y-77954190D01*
X133040285Y-78430380D02*
X133040285Y-77430380D01*
X132659333Y-77430380D01*
X132564095Y-77478000D01*
X132516476Y-77525619D01*
X132468857Y-77620857D01*
X132468857Y-77763714D01*
X132516476Y-77858952D01*
X132564095Y-77906571D01*
X132659333Y-77954190D01*
X133040285Y-77954190D01*
X131516476Y-78430380D02*
X132087904Y-78430380D01*
X131802190Y-78430380D02*
X131802190Y-77430380D01*
X131897428Y-77573238D01*
X131992666Y-77668476D01*
X132087904Y-77716095D01*
X130611714Y-77430380D02*
X131087904Y-77430380D01*
X131135523Y-77906571D01*
X131087904Y-77858952D01*
X130992666Y-77811333D01*
X130754571Y-77811333D01*
X130659333Y-77858952D01*
X130611714Y-77906571D01*
X130564095Y-78001809D01*
X130564095Y-78239904D01*
X130611714Y-78335142D01*
X130659333Y-78382761D01*
X130754571Y-78430380D01*
X130992666Y-78430380D01*
X131087904Y-78382761D01*
X131135523Y-78335142D01*
%TO.C,R17*%
X135008857Y-41346380D02*
X135342190Y-40870190D01*
X135580285Y-41346380D02*
X135580285Y-40346380D01*
X135199333Y-40346380D01*
X135104095Y-40394000D01*
X135056476Y-40441619D01*
X135008857Y-40536857D01*
X135008857Y-40679714D01*
X135056476Y-40774952D01*
X135104095Y-40822571D01*
X135199333Y-40870190D01*
X135580285Y-40870190D01*
X134056476Y-41346380D02*
X134627904Y-41346380D01*
X134342190Y-41346380D02*
X134342190Y-40346380D01*
X134437428Y-40489238D01*
X134532666Y-40584476D01*
X134627904Y-40632095D01*
X133723142Y-40346380D02*
X133056476Y-40346380D01*
X133485047Y-41346380D01*
%TO.C,R18*%
X135262857Y-45918380D02*
X135596190Y-45442190D01*
X135834285Y-45918380D02*
X135834285Y-44918380D01*
X135453333Y-44918380D01*
X135358095Y-44966000D01*
X135310476Y-45013619D01*
X135262857Y-45108857D01*
X135262857Y-45251714D01*
X135310476Y-45346952D01*
X135358095Y-45394571D01*
X135453333Y-45442190D01*
X135834285Y-45442190D01*
X134310476Y-45918380D02*
X134881904Y-45918380D01*
X134596190Y-45918380D02*
X134596190Y-44918380D01*
X134691428Y-45061238D01*
X134786666Y-45156476D01*
X134881904Y-45204095D01*
X133739047Y-45346952D02*
X133834285Y-45299333D01*
X133881904Y-45251714D01*
X133929523Y-45156476D01*
X133929523Y-45108857D01*
X133881904Y-45013619D01*
X133834285Y-44966000D01*
X133739047Y-44918380D01*
X133548571Y-44918380D01*
X133453333Y-44966000D01*
X133405714Y-45013619D01*
X133358095Y-45108857D01*
X133358095Y-45156476D01*
X133405714Y-45251714D01*
X133453333Y-45299333D01*
X133548571Y-45346952D01*
X133739047Y-45346952D01*
X133834285Y-45394571D01*
X133881904Y-45442190D01*
X133929523Y-45537428D01*
X133929523Y-45727904D01*
X133881904Y-45823142D01*
X133834285Y-45870761D01*
X133739047Y-45918380D01*
X133548571Y-45918380D01*
X133453333Y-45870761D01*
X133405714Y-45823142D01*
X133358095Y-45727904D01*
X133358095Y-45537428D01*
X133405714Y-45442190D01*
X133453333Y-45394571D01*
X133548571Y-45346952D01*
%TO.C,R19*%
X135262857Y-51252380D02*
X135596190Y-50776190D01*
X135834285Y-51252380D02*
X135834285Y-50252380D01*
X135453333Y-50252380D01*
X135358095Y-50300000D01*
X135310476Y-50347619D01*
X135262857Y-50442857D01*
X135262857Y-50585714D01*
X135310476Y-50680952D01*
X135358095Y-50728571D01*
X135453333Y-50776190D01*
X135834285Y-50776190D01*
X134310476Y-51252380D02*
X134881904Y-51252380D01*
X134596190Y-51252380D02*
X134596190Y-50252380D01*
X134691428Y-50395238D01*
X134786666Y-50490476D01*
X134881904Y-50538095D01*
X133834285Y-51252380D02*
X133643809Y-51252380D01*
X133548571Y-51204761D01*
X133500952Y-51157142D01*
X133405714Y-51014285D01*
X133358095Y-50823809D01*
X133358095Y-50442857D01*
X133405714Y-50347619D01*
X133453333Y-50300000D01*
X133548571Y-50252380D01*
X133739047Y-50252380D01*
X133834285Y-50300000D01*
X133881904Y-50347619D01*
X133929523Y-50442857D01*
X133929523Y-50680952D01*
X133881904Y-50776190D01*
X133834285Y-50823809D01*
X133739047Y-50871428D01*
X133548571Y-50871428D01*
X133453333Y-50823809D01*
X133405714Y-50776190D01*
X133358095Y-50680952D01*
%TO.C,R20*%
X135262857Y-56332380D02*
X135596190Y-55856190D01*
X135834285Y-56332380D02*
X135834285Y-55332380D01*
X135453333Y-55332380D01*
X135358095Y-55380000D01*
X135310476Y-55427619D01*
X135262857Y-55522857D01*
X135262857Y-55665714D01*
X135310476Y-55760952D01*
X135358095Y-55808571D01*
X135453333Y-55856190D01*
X135834285Y-55856190D01*
X134881904Y-55427619D02*
X134834285Y-55380000D01*
X134739047Y-55332380D01*
X134500952Y-55332380D01*
X134405714Y-55380000D01*
X134358095Y-55427619D01*
X134310476Y-55522857D01*
X134310476Y-55618095D01*
X134358095Y-55760952D01*
X134929523Y-56332380D01*
X134310476Y-56332380D01*
X133691428Y-55332380D02*
X133596190Y-55332380D01*
X133500952Y-55380000D01*
X133453333Y-55427619D01*
X133405714Y-55522857D01*
X133358095Y-55713333D01*
X133358095Y-55951428D01*
X133405714Y-56141904D01*
X133453333Y-56237142D01*
X133500952Y-56284761D01*
X133596190Y-56332380D01*
X133691428Y-56332380D01*
X133786666Y-56284761D01*
X133834285Y-56237142D01*
X133881904Y-56141904D01*
X133929523Y-55951428D01*
X133929523Y-55713333D01*
X133881904Y-55522857D01*
X133834285Y-55427619D01*
X133786666Y-55380000D01*
X133691428Y-55332380D01*
%TO.C,R21*%
X135008857Y-59380380D02*
X135342190Y-58904190D01*
X135580285Y-59380380D02*
X135580285Y-58380380D01*
X135199333Y-58380380D01*
X135104095Y-58428000D01*
X135056476Y-58475619D01*
X135008857Y-58570857D01*
X135008857Y-58713714D01*
X135056476Y-58808952D01*
X135104095Y-58856571D01*
X135199333Y-58904190D01*
X135580285Y-58904190D01*
X134627904Y-58475619D02*
X134580285Y-58428000D01*
X134485047Y-58380380D01*
X134246952Y-58380380D01*
X134151714Y-58428000D01*
X134104095Y-58475619D01*
X134056476Y-58570857D01*
X134056476Y-58666095D01*
X134104095Y-58808952D01*
X134675523Y-59380380D01*
X134056476Y-59380380D01*
X133104095Y-59380380D02*
X133675523Y-59380380D01*
X133389809Y-59380380D02*
X133389809Y-58380380D01*
X133485047Y-58523238D01*
X133580285Y-58618476D01*
X133675523Y-58666095D01*
%TO.C,R22*%
X134056380Y-65905142D02*
X133580190Y-65571809D01*
X134056380Y-65333714D02*
X133056380Y-65333714D01*
X133056380Y-65714666D01*
X133104000Y-65809904D01*
X133151619Y-65857523D01*
X133246857Y-65905142D01*
X133389714Y-65905142D01*
X133484952Y-65857523D01*
X133532571Y-65809904D01*
X133580190Y-65714666D01*
X133580190Y-65333714D01*
X133151619Y-66286095D02*
X133104000Y-66333714D01*
X133056380Y-66428952D01*
X133056380Y-66667047D01*
X133104000Y-66762285D01*
X133151619Y-66809904D01*
X133246857Y-66857523D01*
X133342095Y-66857523D01*
X133484952Y-66809904D01*
X134056380Y-66238476D01*
X134056380Y-66857523D01*
X133151619Y-67238476D02*
X133104000Y-67286095D01*
X133056380Y-67381333D01*
X133056380Y-67619428D01*
X133104000Y-67714666D01*
X133151619Y-67762285D01*
X133246857Y-67809904D01*
X133342095Y-67809904D01*
X133484952Y-67762285D01*
X134056380Y-67190857D01*
X134056380Y-67809904D01*
%TO.C,R23*%
X134310380Y-68953142D02*
X133834190Y-68619809D01*
X134310380Y-68381714D02*
X133310380Y-68381714D01*
X133310380Y-68762666D01*
X133358000Y-68857904D01*
X133405619Y-68905523D01*
X133500857Y-68953142D01*
X133643714Y-68953142D01*
X133738952Y-68905523D01*
X133786571Y-68857904D01*
X133834190Y-68762666D01*
X133834190Y-68381714D01*
X133405619Y-69334095D02*
X133358000Y-69381714D01*
X133310380Y-69476952D01*
X133310380Y-69715047D01*
X133358000Y-69810285D01*
X133405619Y-69857904D01*
X133500857Y-69905523D01*
X133596095Y-69905523D01*
X133738952Y-69857904D01*
X134310380Y-69286476D01*
X134310380Y-69905523D01*
X133310380Y-70238857D02*
X133310380Y-70857904D01*
X133691333Y-70524571D01*
X133691333Y-70667428D01*
X133738952Y-70762666D01*
X133786571Y-70810285D01*
X133881809Y-70857904D01*
X134119904Y-70857904D01*
X134215142Y-70810285D01*
X134262761Y-70762666D01*
X134310380Y-70667428D01*
X134310380Y-70381714D01*
X134262761Y-70286476D01*
X134215142Y-70238857D01*
%TO.C,R24*%
X134310380Y-75049142D02*
X133834190Y-74715809D01*
X134310380Y-74477714D02*
X133310380Y-74477714D01*
X133310380Y-74858666D01*
X133358000Y-74953904D01*
X133405619Y-75001523D01*
X133500857Y-75049142D01*
X133643714Y-75049142D01*
X133738952Y-75001523D01*
X133786571Y-74953904D01*
X133834190Y-74858666D01*
X133834190Y-74477714D01*
X133405619Y-75430095D02*
X133358000Y-75477714D01*
X133310380Y-75572952D01*
X133310380Y-75811047D01*
X133358000Y-75906285D01*
X133405619Y-75953904D01*
X133500857Y-76001523D01*
X133596095Y-76001523D01*
X133738952Y-75953904D01*
X134310380Y-75382476D01*
X134310380Y-76001523D01*
X133643714Y-76858666D02*
X134310380Y-76858666D01*
X133262761Y-76620571D02*
X133977047Y-76382476D01*
X133977047Y-77001523D01*
%TO.C,R25*%
X145192857Y-94152380D02*
X145526190Y-93676190D01*
X145764285Y-94152380D02*
X145764285Y-93152380D01*
X145383333Y-93152380D01*
X145288095Y-93200000D01*
X145240476Y-93247619D01*
X145192857Y-93342857D01*
X145192857Y-93485714D01*
X145240476Y-93580952D01*
X145288095Y-93628571D01*
X145383333Y-93676190D01*
X145764285Y-93676190D01*
X144811904Y-93247619D02*
X144764285Y-93200000D01*
X144669047Y-93152380D01*
X144430952Y-93152380D01*
X144335714Y-93200000D01*
X144288095Y-93247619D01*
X144240476Y-93342857D01*
X144240476Y-93438095D01*
X144288095Y-93580952D01*
X144859523Y-94152380D01*
X144240476Y-94152380D01*
X143335714Y-93152380D02*
X143811904Y-93152380D01*
X143859523Y-93628571D01*
X143811904Y-93580952D01*
X143716666Y-93533333D01*
X143478571Y-93533333D01*
X143383333Y-93580952D01*
X143335714Y-93628571D01*
X143288095Y-93723809D01*
X143288095Y-93961904D01*
X143335714Y-94057142D01*
X143383333Y-94104761D01*
X143478571Y-94152380D01*
X143716666Y-94152380D01*
X143811904Y-94104761D01*
X143859523Y-94057142D01*
%TO.C,R27*%
X133742857Y-94502380D02*
X134076190Y-94026190D01*
X134314285Y-94502380D02*
X134314285Y-93502380D01*
X133933333Y-93502380D01*
X133838095Y-93550000D01*
X133790476Y-93597619D01*
X133742857Y-93692857D01*
X133742857Y-93835714D01*
X133790476Y-93930952D01*
X133838095Y-93978571D01*
X133933333Y-94026190D01*
X134314285Y-94026190D01*
X133361904Y-93597619D02*
X133314285Y-93550000D01*
X133219047Y-93502380D01*
X132980952Y-93502380D01*
X132885714Y-93550000D01*
X132838095Y-93597619D01*
X132790476Y-93692857D01*
X132790476Y-93788095D01*
X132838095Y-93930952D01*
X133409523Y-94502380D01*
X132790476Y-94502380D01*
X132457142Y-93502380D02*
X131790476Y-93502380D01*
X132219047Y-94502380D01*
%TO.C,R28*%
X165742857Y-94152380D02*
X166076190Y-93676190D01*
X166314285Y-94152380D02*
X166314285Y-93152380D01*
X165933333Y-93152380D01*
X165838095Y-93200000D01*
X165790476Y-93247619D01*
X165742857Y-93342857D01*
X165742857Y-93485714D01*
X165790476Y-93580952D01*
X165838095Y-93628571D01*
X165933333Y-93676190D01*
X166314285Y-93676190D01*
X165361904Y-93247619D02*
X165314285Y-93200000D01*
X165219047Y-93152380D01*
X164980952Y-93152380D01*
X164885714Y-93200000D01*
X164838095Y-93247619D01*
X164790476Y-93342857D01*
X164790476Y-93438095D01*
X164838095Y-93580952D01*
X165409523Y-94152380D01*
X164790476Y-94152380D01*
X164219047Y-93580952D02*
X164314285Y-93533333D01*
X164361904Y-93485714D01*
X164409523Y-93390476D01*
X164409523Y-93342857D01*
X164361904Y-93247619D01*
X164314285Y-93200000D01*
X164219047Y-93152380D01*
X164028571Y-93152380D01*
X163933333Y-93200000D01*
X163885714Y-93247619D01*
X163838095Y-93342857D01*
X163838095Y-93390476D01*
X163885714Y-93485714D01*
X163933333Y-93533333D01*
X164028571Y-93580952D01*
X164219047Y-93580952D01*
X164314285Y-93628571D01*
X164361904Y-93676190D01*
X164409523Y-93771428D01*
X164409523Y-93961904D01*
X164361904Y-94057142D01*
X164314285Y-94104761D01*
X164219047Y-94152380D01*
X164028571Y-94152380D01*
X163933333Y-94104761D01*
X163885714Y-94057142D01*
X163838095Y-93961904D01*
X163838095Y-93771428D01*
X163885714Y-93676190D01*
X163933333Y-93628571D01*
X164028571Y-93580952D01*
%TO.C,R29*%
X133484857Y-32202380D02*
X133818190Y-31726190D01*
X134056285Y-32202380D02*
X134056285Y-31202380D01*
X133675333Y-31202380D01*
X133580095Y-31250000D01*
X133532476Y-31297619D01*
X133484857Y-31392857D01*
X133484857Y-31535714D01*
X133532476Y-31630952D01*
X133580095Y-31678571D01*
X133675333Y-31726190D01*
X134056285Y-31726190D01*
X133103904Y-31297619D02*
X133056285Y-31250000D01*
X132961047Y-31202380D01*
X132722952Y-31202380D01*
X132627714Y-31250000D01*
X132580095Y-31297619D01*
X132532476Y-31392857D01*
X132532476Y-31488095D01*
X132580095Y-31630952D01*
X133151523Y-32202380D01*
X132532476Y-32202380D01*
X132056285Y-32202380D02*
X131865809Y-32202380D01*
X131770571Y-32154761D01*
X131722952Y-32107142D01*
X131627714Y-31964285D01*
X131580095Y-31773809D01*
X131580095Y-31392857D01*
X131627714Y-31297619D01*
X131675333Y-31250000D01*
X131770571Y-31202380D01*
X131961047Y-31202380D01*
X132056285Y-31250000D01*
X132103904Y-31297619D01*
X132151523Y-31392857D01*
X132151523Y-31630952D01*
X132103904Y-31726190D01*
X132056285Y-31773809D01*
X131961047Y-31821428D01*
X131770571Y-31821428D01*
X131675333Y-31773809D01*
X131627714Y-31726190D01*
X131580095Y-31630952D01*
%TO.C,TP12*%
X137882095Y-82510380D02*
X137310666Y-82510380D01*
X137596380Y-83510380D02*
X137596380Y-82510380D01*
X136977333Y-83510380D02*
X136977333Y-82510380D01*
X136596380Y-82510380D01*
X136501142Y-82558000D01*
X136453523Y-82605619D01*
X136405904Y-82700857D01*
X136405904Y-82843714D01*
X136453523Y-82938952D01*
X136501142Y-82986571D01*
X136596380Y-83034190D01*
X136977333Y-83034190D01*
X135453523Y-83510380D02*
X136024952Y-83510380D01*
X135739238Y-83510380D02*
X135739238Y-82510380D01*
X135834476Y-82653238D01*
X135929714Y-82748476D01*
X136024952Y-82796095D01*
X135072571Y-82605619D02*
X135024952Y-82558000D01*
X134929714Y-82510380D01*
X134691619Y-82510380D01*
X134596380Y-82558000D01*
X134548761Y-82605619D01*
X134501142Y-82700857D01*
X134501142Y-82796095D01*
X134548761Y-82938952D01*
X135120190Y-83510380D01*
X134501142Y-83510380D01*
%TO.C,TP14*%
X131024095Y-82002380D02*
X130452666Y-82002380D01*
X130738380Y-83002380D02*
X130738380Y-82002380D01*
X130119333Y-83002380D02*
X130119333Y-82002380D01*
X129738380Y-82002380D01*
X129643142Y-82050000D01*
X129595523Y-82097619D01*
X129547904Y-82192857D01*
X129547904Y-82335714D01*
X129595523Y-82430952D01*
X129643142Y-82478571D01*
X129738380Y-82526190D01*
X130119333Y-82526190D01*
X128595523Y-83002380D02*
X129166952Y-83002380D01*
X128881238Y-83002380D02*
X128881238Y-82002380D01*
X128976476Y-82145238D01*
X129071714Y-82240476D01*
X129166952Y-82288095D01*
X127738380Y-82335714D02*
X127738380Y-83002380D01*
X127976476Y-81954761D02*
X128214571Y-82669047D01*
X127595523Y-82669047D01*
%TO.C,TP15*%
X137597380Y-62260904D02*
X137597380Y-62832333D01*
X138597380Y-62546619D02*
X137597380Y-62546619D01*
X138597380Y-63165666D02*
X137597380Y-63165666D01*
X137597380Y-63546619D01*
X137645000Y-63641857D01*
X137692619Y-63689476D01*
X137787857Y-63737095D01*
X137930714Y-63737095D01*
X138025952Y-63689476D01*
X138073571Y-63641857D01*
X138121190Y-63546619D01*
X138121190Y-63165666D01*
X138597380Y-64689476D02*
X138597380Y-64118047D01*
X138597380Y-64403761D02*
X137597380Y-64403761D01*
X137740238Y-64308523D01*
X137835476Y-64213285D01*
X137883095Y-64118047D01*
X137597380Y-65594238D02*
X137597380Y-65118047D01*
X138073571Y-65070428D01*
X138025952Y-65118047D01*
X137978333Y-65213285D01*
X137978333Y-65451380D01*
X138025952Y-65546619D01*
X138073571Y-65594238D01*
X138168809Y-65641857D01*
X138406904Y-65641857D01*
X138502142Y-65594238D01*
X138549761Y-65546619D01*
X138597380Y-65451380D01*
X138597380Y-65213285D01*
X138549761Y-65118047D01*
X138502142Y-65070428D01*
%TO.C,TP16*%
X137452380Y-66079904D02*
X137452380Y-66651333D01*
X138452380Y-66365619D02*
X137452380Y-66365619D01*
X138452380Y-66984666D02*
X137452380Y-66984666D01*
X137452380Y-67365619D01*
X137500000Y-67460857D01*
X137547619Y-67508476D01*
X137642857Y-67556095D01*
X137785714Y-67556095D01*
X137880952Y-67508476D01*
X137928571Y-67460857D01*
X137976190Y-67365619D01*
X137976190Y-66984666D01*
X138452380Y-68508476D02*
X138452380Y-67937047D01*
X138452380Y-68222761D02*
X137452380Y-68222761D01*
X137595238Y-68127523D01*
X137690476Y-68032285D01*
X137738095Y-67937047D01*
X137452380Y-69365619D02*
X137452380Y-69175142D01*
X137500000Y-69079904D01*
X137547619Y-69032285D01*
X137690476Y-68937047D01*
X137880952Y-68889428D01*
X138261904Y-68889428D01*
X138357142Y-68937047D01*
X138404761Y-68984666D01*
X138452380Y-69079904D01*
X138452380Y-69270380D01*
X138404761Y-69365619D01*
X138357142Y-69413238D01*
X138261904Y-69460857D01*
X138023809Y-69460857D01*
X137928571Y-69413238D01*
X137880952Y-69365619D01*
X137833333Y-69270380D01*
X137833333Y-69079904D01*
X137880952Y-68984666D01*
X137928571Y-68937047D01*
X138023809Y-68889428D01*
%TO.C,TP18*%
X154900095Y-78192380D02*
X154328666Y-78192380D01*
X154614380Y-79192380D02*
X154614380Y-78192380D01*
X153995333Y-79192380D02*
X153995333Y-78192380D01*
X153614380Y-78192380D01*
X153519142Y-78240000D01*
X153471523Y-78287619D01*
X153423904Y-78382857D01*
X153423904Y-78525714D01*
X153471523Y-78620952D01*
X153519142Y-78668571D01*
X153614380Y-78716190D01*
X153995333Y-78716190D01*
X152471523Y-79192380D02*
X153042952Y-79192380D01*
X152757238Y-79192380D02*
X152757238Y-78192380D01*
X152852476Y-78335238D01*
X152947714Y-78430476D01*
X153042952Y-78478095D01*
X151900095Y-78620952D02*
X151995333Y-78573333D01*
X152042952Y-78525714D01*
X152090571Y-78430476D01*
X152090571Y-78382857D01*
X152042952Y-78287619D01*
X151995333Y-78240000D01*
X151900095Y-78192380D01*
X151709619Y-78192380D01*
X151614380Y-78240000D01*
X151566761Y-78287619D01*
X151519142Y-78382857D01*
X151519142Y-78430476D01*
X151566761Y-78525714D01*
X151614380Y-78573333D01*
X151709619Y-78620952D01*
X151900095Y-78620952D01*
X151995333Y-78668571D01*
X152042952Y-78716190D01*
X152090571Y-78811428D01*
X152090571Y-79001904D01*
X152042952Y-79097142D01*
X151995333Y-79144761D01*
X151900095Y-79192380D01*
X151709619Y-79192380D01*
X151614380Y-79144761D01*
X151566761Y-79097142D01*
X151519142Y-79001904D01*
X151519142Y-78811428D01*
X151566761Y-78716190D01*
X151614380Y-78668571D01*
X151709619Y-78620952D01*
%TO.C,TP19*%
X148594095Y-83105380D02*
X148022666Y-83105380D01*
X148308380Y-84105380D02*
X148308380Y-83105380D01*
X147689333Y-84105380D02*
X147689333Y-83105380D01*
X147308380Y-83105380D01*
X147213142Y-83153000D01*
X147165523Y-83200619D01*
X147117904Y-83295857D01*
X147117904Y-83438714D01*
X147165523Y-83533952D01*
X147213142Y-83581571D01*
X147308380Y-83629190D01*
X147689333Y-83629190D01*
X146165523Y-84105380D02*
X146736952Y-84105380D01*
X146451238Y-84105380D02*
X146451238Y-83105380D01*
X146546476Y-83248238D01*
X146641714Y-83343476D01*
X146736952Y-83391095D01*
X145689333Y-84105380D02*
X145498857Y-84105380D01*
X145403619Y-84057761D01*
X145356000Y-84010142D01*
X145260761Y-83867285D01*
X145213142Y-83676809D01*
X145213142Y-83295857D01*
X145260761Y-83200619D01*
X145308380Y-83153000D01*
X145403619Y-83105380D01*
X145594095Y-83105380D01*
X145689333Y-83153000D01*
X145736952Y-83200619D01*
X145784571Y-83295857D01*
X145784571Y-83533952D01*
X145736952Y-83629190D01*
X145689333Y-83676809D01*
X145594095Y-83724428D01*
X145403619Y-83724428D01*
X145308380Y-83676809D01*
X145260761Y-83629190D01*
X145213142Y-83533952D01*
%TO.C,U1*%
X149859904Y-88098380D02*
X149859904Y-88907904D01*
X149812285Y-89003142D01*
X149764666Y-89050761D01*
X149669428Y-89098380D01*
X149478952Y-89098380D01*
X149383714Y-89050761D01*
X149336095Y-89003142D01*
X149288476Y-88907904D01*
X149288476Y-88098380D01*
X148288476Y-89098380D02*
X148859904Y-89098380D01*
X148574190Y-89098380D02*
X148574190Y-88098380D01*
X148669428Y-88241238D01*
X148764666Y-88336476D01*
X148859904Y-88384095D01*
%TO.C,U2*%
X156971904Y-88098380D02*
X156971904Y-88907904D01*
X156924285Y-89003142D01*
X156876666Y-89050761D01*
X156781428Y-89098380D01*
X156590952Y-89098380D01*
X156495714Y-89050761D01*
X156448095Y-89003142D01*
X156400476Y-88907904D01*
X156400476Y-88098380D01*
X155971904Y-88193619D02*
X155924285Y-88146000D01*
X155829047Y-88098380D01*
X155590952Y-88098380D01*
X155495714Y-88146000D01*
X155448095Y-88193619D01*
X155400476Y-88288857D01*
X155400476Y-88384095D01*
X155448095Y-88526952D01*
X156019523Y-89098380D01*
X155400476Y-89098380D01*
%TO.C,U3*%
X170179904Y-73620380D02*
X170179904Y-74429904D01*
X170132285Y-74525142D01*
X170084666Y-74572761D01*
X169989428Y-74620380D01*
X169798952Y-74620380D01*
X169703714Y-74572761D01*
X169656095Y-74525142D01*
X169608476Y-74429904D01*
X169608476Y-73620380D01*
X169227523Y-73620380D02*
X168608476Y-73620380D01*
X168941809Y-74001333D01*
X168798952Y-74001333D01*
X168703714Y-74048952D01*
X168656095Y-74096571D01*
X168608476Y-74191809D01*
X168608476Y-74429904D01*
X168656095Y-74525142D01*
X168703714Y-74572761D01*
X168798952Y-74620380D01*
X169084666Y-74620380D01*
X169179904Y-74572761D01*
X169227523Y-74525142D01*
%TO.C,U4*%
X159947380Y-66263095D02*
X160756904Y-66263095D01*
X160852142Y-66310714D01*
X160899761Y-66358333D01*
X160947380Y-66453571D01*
X160947380Y-66644047D01*
X160899761Y-66739285D01*
X160852142Y-66786904D01*
X160756904Y-66834523D01*
X159947380Y-66834523D01*
X160280714Y-67739285D02*
X160947380Y-67739285D01*
X159899761Y-67501190D02*
X160614047Y-67263095D01*
X160614047Y-67882142D01*
%TO.C,U6*%
X159003904Y-73620380D02*
X159003904Y-74429904D01*
X158956285Y-74525142D01*
X158908666Y-74572761D01*
X158813428Y-74620380D01*
X158622952Y-74620380D01*
X158527714Y-74572761D01*
X158480095Y-74525142D01*
X158432476Y-74429904D01*
X158432476Y-73620380D01*
X157527714Y-73620380D02*
X157718190Y-73620380D01*
X157813428Y-73668000D01*
X157861047Y-73715619D01*
X157956285Y-73858476D01*
X158003904Y-74048952D01*
X158003904Y-74429904D01*
X157956285Y-74525142D01*
X157908666Y-74572761D01*
X157813428Y-74620380D01*
X157622952Y-74620380D01*
X157527714Y-74572761D01*
X157480095Y-74525142D01*
X157432476Y-74429904D01*
X157432476Y-74191809D01*
X157480095Y-74096571D01*
X157527714Y-74048952D01*
X157622952Y-74001333D01*
X157813428Y-74001333D01*
X157908666Y-74048952D01*
X157956285Y-74096571D01*
X158003904Y-74191809D01*
%TO.C,U8*%
X145061904Y-68302380D02*
X145061904Y-69111904D01*
X145014285Y-69207142D01*
X144966666Y-69254761D01*
X144871428Y-69302380D01*
X144680952Y-69302380D01*
X144585714Y-69254761D01*
X144538095Y-69207142D01*
X144490476Y-69111904D01*
X144490476Y-68302380D01*
X143871428Y-68730952D02*
X143966666Y-68683333D01*
X144014285Y-68635714D01*
X144061904Y-68540476D01*
X144061904Y-68492857D01*
X144014285Y-68397619D01*
X143966666Y-68350000D01*
X143871428Y-68302380D01*
X143680952Y-68302380D01*
X143585714Y-68350000D01*
X143538095Y-68397619D01*
X143490476Y-68492857D01*
X143490476Y-68540476D01*
X143538095Y-68635714D01*
X143585714Y-68683333D01*
X143680952Y-68730952D01*
X143871428Y-68730952D01*
X143966666Y-68778571D01*
X144014285Y-68826190D01*
X144061904Y-68921428D01*
X144061904Y-69111904D01*
X144014285Y-69207142D01*
X143966666Y-69254761D01*
X143871428Y-69302380D01*
X143680952Y-69302380D01*
X143585714Y-69254761D01*
X143538095Y-69207142D01*
X143490476Y-69111904D01*
X143490476Y-68921428D01*
X143538095Y-68826190D01*
X143585714Y-68778571D01*
X143680952Y-68730952D01*
%TO.C,R26*%
X177142857Y-94602380D02*
X177476190Y-94126190D01*
X177714285Y-94602380D02*
X177714285Y-93602380D01*
X177333333Y-93602380D01*
X177238095Y-93650000D01*
X177190476Y-93697619D01*
X177142857Y-93792857D01*
X177142857Y-93935714D01*
X177190476Y-94030952D01*
X177238095Y-94078571D01*
X177333333Y-94126190D01*
X177714285Y-94126190D01*
X176761904Y-93697619D02*
X176714285Y-93650000D01*
X176619047Y-93602380D01*
X176380952Y-93602380D01*
X176285714Y-93650000D01*
X176238095Y-93697619D01*
X176190476Y-93792857D01*
X176190476Y-93888095D01*
X176238095Y-94030952D01*
X176809523Y-94602380D01*
X176190476Y-94602380D01*
X175333333Y-93602380D02*
X175523809Y-93602380D01*
X175619047Y-93650000D01*
X175666666Y-93697619D01*
X175761904Y-93840476D01*
X175809523Y-94030952D01*
X175809523Y-94411904D01*
X175761904Y-94507142D01*
X175714285Y-94554761D01*
X175619047Y-94602380D01*
X175428571Y-94602380D01*
X175333333Y-94554761D01*
X175285714Y-94507142D01*
X175238095Y-94411904D01*
X175238095Y-94173809D01*
X175285714Y-94078571D01*
X175333333Y-94030952D01*
X175428571Y-93983333D01*
X175619047Y-93983333D01*
X175714285Y-94030952D01*
X175761904Y-94078571D01*
X175809523Y-94173809D01*
%TO.C,U7*%
X148302380Y-75238095D02*
X149111904Y-75238095D01*
X149207142Y-75285714D01*
X149254761Y-75333333D01*
X149302380Y-75428571D01*
X149302380Y-75619047D01*
X149254761Y-75714285D01*
X149207142Y-75761904D01*
X149111904Y-75809523D01*
X148302380Y-75809523D01*
X148302380Y-76190476D02*
X148302380Y-76857142D01*
X149302380Y-76428571D01*
%TO.C,TP20*%
X154338095Y-82525380D02*
X153766666Y-82525380D01*
X154052380Y-83525380D02*
X154052380Y-82525380D01*
X153433333Y-83525380D02*
X153433333Y-82525380D01*
X153052380Y-82525380D01*
X152957142Y-82573000D01*
X152909523Y-82620619D01*
X152861904Y-82715857D01*
X152861904Y-82858714D01*
X152909523Y-82953952D01*
X152957142Y-83001571D01*
X153052380Y-83049190D01*
X153433333Y-83049190D01*
X152480952Y-82620619D02*
X152433333Y-82573000D01*
X152338095Y-82525380D01*
X152100000Y-82525380D01*
X152004761Y-82573000D01*
X151957142Y-82620619D01*
X151909523Y-82715857D01*
X151909523Y-82811095D01*
X151957142Y-82953952D01*
X152528571Y-83525380D01*
X151909523Y-83525380D01*
X151290476Y-82525380D02*
X151195238Y-82525380D01*
X151100000Y-82573000D01*
X151052380Y-82620619D01*
X151004761Y-82715857D01*
X150957142Y-82906333D01*
X150957142Y-83144428D01*
X151004761Y-83334904D01*
X151052380Y-83430142D01*
X151100000Y-83477761D01*
X151195238Y-83525380D01*
X151290476Y-83525380D01*
X151385714Y-83477761D01*
X151433333Y-83430142D01*
X151480952Y-83334904D01*
X151528571Y-83144428D01*
X151528571Y-82906333D01*
X151480952Y-82715857D01*
X151433333Y-82620619D01*
X151385714Y-82573000D01*
X151290476Y-82525380D01*
%TO.C,TP17*%
X151598095Y-58888380D02*
X151026666Y-58888380D01*
X151312380Y-59888380D02*
X151312380Y-58888380D01*
X150693333Y-59888380D02*
X150693333Y-58888380D01*
X150312380Y-58888380D01*
X150217142Y-58936000D01*
X150169523Y-58983619D01*
X150121904Y-59078857D01*
X150121904Y-59221714D01*
X150169523Y-59316952D01*
X150217142Y-59364571D01*
X150312380Y-59412190D01*
X150693333Y-59412190D01*
X149169523Y-59888380D02*
X149740952Y-59888380D01*
X149455238Y-59888380D02*
X149455238Y-58888380D01*
X149550476Y-59031238D01*
X149645714Y-59126476D01*
X149740952Y-59174095D01*
X148836190Y-58888380D02*
X148169523Y-58888380D01*
X148598095Y-59888380D01*
%TO.C,R6*%
X134024666Y-39314380D02*
X134358000Y-38838190D01*
X134596095Y-39314380D02*
X134596095Y-38314380D01*
X134215142Y-38314380D01*
X134119904Y-38362000D01*
X134072285Y-38409619D01*
X134024666Y-38504857D01*
X134024666Y-38647714D01*
X134072285Y-38742952D01*
X134119904Y-38790571D01*
X134215142Y-38838190D01*
X134596095Y-38838190D01*
X133167523Y-38314380D02*
X133358000Y-38314380D01*
X133453238Y-38362000D01*
X133500857Y-38409619D01*
X133596095Y-38552476D01*
X133643714Y-38742952D01*
X133643714Y-39123904D01*
X133596095Y-39219142D01*
X133548476Y-39266761D01*
X133453238Y-39314380D01*
X133262761Y-39314380D01*
X133167523Y-39266761D01*
X133119904Y-39219142D01*
X133072285Y-39123904D01*
X133072285Y-38885809D01*
X133119904Y-38790571D01*
X133167523Y-38742952D01*
X133262761Y-38695333D01*
X133453238Y-38695333D01*
X133548476Y-38742952D01*
X133596095Y-38790571D01*
X133643714Y-38885809D01*
D11*
%TO.C,F4*%
X171011252Y-101510000D02*
X168238748Y-101510000D01*
X171011252Y-98090000D02*
X168238748Y-98090000D01*
%TO.C,F3*%
X181290000Y-100211252D02*
X181290000Y-97438748D01*
X184710000Y-100211252D02*
X184710000Y-97438748D01*
%TO.C,F2*%
X139186252Y-105510000D02*
X136413748Y-105510000D01*
X139186252Y-102090000D02*
X136413748Y-102090000D01*
%TO.C,F1*%
X139211252Y-101310000D02*
X136438748Y-101310000D01*
X139211252Y-97890000D02*
X136438748Y-97890000D01*
%TO.C,D28*%
X180900000Y-102050000D02*
X173600000Y-102050000D01*
X180900000Y-102050000D02*
X180900000Y-106350000D01*
X180900000Y-106350000D02*
X173600000Y-106350000D01*
%TO.C,D27*%
X142900000Y-105750000D02*
X150200000Y-105750000D01*
X142900000Y-105750000D02*
X142900000Y-101450000D01*
X142900000Y-101450000D02*
X150200000Y-101450000D01*
%TO.C,D26*%
X171300000Y-102050000D02*
X164000000Y-102050000D01*
X171300000Y-102050000D02*
X171300000Y-106350000D01*
X171300000Y-106350000D02*
X164000000Y-106350000D01*
%TO.C,D25*%
X161700000Y-101450000D02*
X154400000Y-101450000D01*
X161700000Y-101450000D02*
X161700000Y-105750000D01*
X161700000Y-105750000D02*
X154400000Y-105750000D01*
%TO.C,C1*%
X151190000Y-40948752D02*
X151190000Y-40426248D01*
X152660000Y-40948752D02*
X152660000Y-40426248D01*
%TO.C,C2*%
X154048752Y-43265000D02*
X153526248Y-43265000D01*
X154048752Y-44735000D02*
X153526248Y-44735000D01*
%TO.C,C3*%
X150847248Y-98071000D02*
X151369752Y-98071000D01*
X150847248Y-99541000D02*
X151369752Y-99541000D01*
%TO.C,C4*%
X157980748Y-98071000D02*
X158503252Y-98071000D01*
X157980748Y-99541000D02*
X158503252Y-99541000D01*
%TO.C,IC1*%
X147210000Y-29940000D02*
X149025000Y-29940000D01*
X139490000Y-47815000D02*
X139490000Y-47570000D01*
X143350000Y-29695000D02*
X139490000Y-29695000D01*
X139490000Y-29695000D02*
X139490000Y-29940000D01*
X143350000Y-29695000D02*
X147210000Y-29695000D01*
X143350000Y-47815000D02*
X139490000Y-47815000D01*
X147210000Y-29695000D02*
X147210000Y-29940000D01*
X143350000Y-47815000D02*
X147210000Y-47815000D01*
X147210000Y-47815000D02*
X147210000Y-47570000D01*
%TO.C,J9*%
X156110000Y-62570000D02*
X165230000Y-62570000D01*
X165230000Y-29290000D02*
X156110000Y-29290000D01*
X163920000Y-43880000D02*
X163920000Y-30590000D01*
X163920000Y-30590000D02*
X157420000Y-30590000D01*
X165620000Y-34500000D02*
X166620000Y-34000000D01*
X163920000Y-47980000D02*
X165230000Y-47980000D01*
X157420000Y-30590000D02*
X157420000Y-61270000D01*
X163920000Y-47980000D02*
X163920000Y-47980000D01*
X166620000Y-35000000D02*
X165620000Y-34500000D01*
X166620000Y-34000000D02*
X166620000Y-35000000D01*
X165230000Y-43880000D02*
X163920000Y-43880000D01*
X156110000Y-29290000D02*
X156110000Y-62570000D01*
X163920000Y-61270000D02*
X163920000Y-47980000D01*
X157420000Y-61270000D02*
X163920000Y-61270000D01*
X165230000Y-62570000D02*
X165230000Y-29290000D01*
%TO.C,R1*%
X131077064Y-28765000D02*
X130622936Y-28765000D01*
X131077064Y-30235000D02*
X130622936Y-30235000D01*
%TO.C,R3*%
X131202064Y-33890000D02*
X130747936Y-33890000D01*
X131202064Y-35360000D02*
X130747936Y-35360000D01*
%TO.C,R7*%
X131202064Y-35915000D02*
X130747936Y-35915000D01*
X131202064Y-37385000D02*
X130747936Y-37385000D01*
%TO.C,R8*%
X130972936Y-42840000D02*
X131427064Y-42840000D01*
X130972936Y-44310000D02*
X131427064Y-44310000D01*
%TO.C,R9*%
X130997936Y-48040000D02*
X131452064Y-48040000D01*
X130997936Y-49510000D02*
X131452064Y-49510000D01*
%TO.C,R10*%
X130972936Y-54610000D02*
X131427064Y-54610000D01*
X130972936Y-53140000D02*
X131427064Y-53140000D01*
%TO.C,R11*%
X130922936Y-58190000D02*
X131377064Y-58190000D01*
X130922936Y-59660000D02*
X131377064Y-59660000D01*
%TO.C,R12*%
X130897936Y-64785000D02*
X131352064Y-64785000D01*
X130897936Y-63315000D02*
X131352064Y-63315000D01*
%TO.C,R13*%
X130872936Y-68415000D02*
X131327064Y-68415000D01*
X130872936Y-69885000D02*
X131327064Y-69885000D01*
%TO.C,R15*%
X130947936Y-74960000D02*
X131402064Y-74960000D01*
X130947936Y-73490000D02*
X131402064Y-73490000D01*
%TO.C,R17*%
X131202064Y-41410000D02*
X130747936Y-41410000D01*
X131202064Y-39940000D02*
X130747936Y-39940000D01*
%TO.C,R18*%
X131452064Y-44915000D02*
X130997936Y-44915000D01*
X131452064Y-46385000D02*
X130997936Y-46385000D01*
%TO.C,R19*%
X131452064Y-51485000D02*
X130997936Y-51485000D01*
X131452064Y-50015000D02*
X130997936Y-50015000D01*
%TO.C,R20*%
X131427064Y-55140000D02*
X130972936Y-55140000D01*
X131427064Y-56610000D02*
X130972936Y-56610000D01*
%TO.C,R21*%
X131377064Y-60290000D02*
X130922936Y-60290000D01*
X131377064Y-61760000D02*
X130922936Y-61760000D01*
%TO.C,R22*%
X131077064Y-66810000D02*
X130622936Y-66810000D01*
X131077064Y-65340000D02*
X130622936Y-65340000D01*
%TO.C,R23*%
X131302064Y-70415000D02*
X130847936Y-70415000D01*
X131302064Y-71885000D02*
X130847936Y-71885000D01*
%TO.C,R24*%
X131427064Y-75540000D02*
X130972936Y-75540000D01*
X131427064Y-77010000D02*
X130972936Y-77010000D01*
%TO.C,R25*%
X144322936Y-92785000D02*
X144777064Y-92785000D01*
X144322936Y-91315000D02*
X144777064Y-91315000D01*
%TO.C,R27*%
X132872936Y-93135000D02*
X133327064Y-93135000D01*
X132872936Y-91665000D02*
X133327064Y-91665000D01*
%TO.C,R28*%
X164872936Y-92785000D02*
X165327064Y-92785000D01*
X164872936Y-91315000D02*
X165327064Y-91315000D01*
%TO.C,R29*%
X134665000Y-31827064D02*
X134665000Y-31372936D01*
X136135000Y-31827064D02*
X136135000Y-31372936D01*
%TO.C,TP12*%
X134075000Y-81750000D02*
G75*
G03*
X134075000Y-81750000I-1200000J0D01*
G01*
%TO.C,TP14*%
X131150000Y-80250000D02*
G75*
G03*
X131150000Y-80250000I-1200000J0D01*
G01*
%TO.C,TP15*%
X136836000Y-64262000D02*
G75*
G03*
X136836000Y-64262000I-1200000J0D01*
G01*
%TO.C,TP16*%
X136836000Y-67375000D02*
G75*
G03*
X136836000Y-67375000I-1200000J0D01*
G01*
%TO.C,TP18*%
X151060000Y-78740000D02*
G75*
G03*
X151060000Y-78740000I-1200000J0D01*
G01*
%TO.C,TP19*%
X150850000Y-81875000D02*
G75*
G03*
X150850000Y-81875000I-1200000J0D01*
G01*
%TO.C,U1*%
X154560000Y-93000000D02*
X154560000Y-94950000D01*
X149440000Y-93000000D02*
X149440000Y-89550000D01*
X149440000Y-93000000D02*
X149440000Y-94950000D01*
X154560000Y-93000000D02*
X154560000Y-91050000D01*
%TO.C,U2*%
X155440000Y-93000000D02*
X155440000Y-89550000D01*
X160560000Y-93000000D02*
X160560000Y-91050000D01*
X155440000Y-93000000D02*
X155440000Y-94950000D01*
X160560000Y-93000000D02*
X160560000Y-94950000D01*
%TO.C,U3*%
X178560000Y-78500000D02*
X178560000Y-80450000D01*
X178560000Y-78500000D02*
X178560000Y-76550000D01*
X168440000Y-78500000D02*
X168440000Y-80450000D01*
X168440000Y-78500000D02*
X168440000Y-75050000D01*
%TO.C,U4*%
X149535000Y-67025000D02*
X149535000Y-65075000D01*
X149535000Y-67025000D02*
X149535000Y-68975000D01*
X159655000Y-67025000D02*
X159655000Y-65075000D01*
X159655000Y-67025000D02*
X159655000Y-70475000D01*
%TO.C,U6*%
X167425000Y-78525000D02*
X167425000Y-80475000D01*
X167425000Y-78525000D02*
X167425000Y-76575000D01*
X157305000Y-78525000D02*
X157305000Y-80475000D01*
X157305000Y-78525000D02*
X157305000Y-75075000D01*
%TO.C,U8*%
X144300000Y-57890000D02*
X142350000Y-57890000D01*
X144300000Y-68010000D02*
X140850000Y-68010000D01*
X144300000Y-57890000D02*
X146250000Y-57890000D01*
X144300000Y-68010000D02*
X146250000Y-68010000D01*
%TO.C,R26*%
X176272936Y-91765000D02*
X176727064Y-91765000D01*
X176272936Y-93235000D02*
X176727064Y-93235000D01*
%TO.C,U7*%
X148010000Y-76000000D02*
X148010000Y-72140000D01*
X147775000Y-79860000D02*
X147775000Y-81675000D01*
X148010000Y-79860000D02*
X147775000Y-79860000D01*
X134990000Y-79860000D02*
X135225000Y-79860000D01*
X148010000Y-76000000D02*
X148010000Y-79860000D01*
X134990000Y-76000000D02*
X134990000Y-72140000D01*
X134990000Y-76000000D02*
X134990000Y-79860000D01*
X148010000Y-72140000D02*
X147775000Y-72140000D01*
X134990000Y-72140000D02*
X135225000Y-72140000D01*
%TO.C,TP20*%
X153800000Y-81075000D02*
G75*
G03*
X153800000Y-81075000I-1200000J0D01*
G01*
%TO.C,TP17*%
X150950000Y-61700000D02*
G75*
G03*
X150950000Y-61700000I-1200000J0D01*
G01*
%TO.C,R6*%
X130747936Y-37965000D02*
X131202064Y-37965000D01*
X130747936Y-39435000D02*
X131202064Y-39435000D01*
%TD*%
M02*
