%TF.GenerationSoftware,KiCad,Pcbnew,(6.0.1)*%
%TF.CreationDate,2022-02-13T18:41:53+00:00*%
%TF.ProjectId,module-io,6d6f6475-6c65-42d6-996f-2e6b69636164,rev?*%
%TF.SameCoordinates,Original*%
%TF.FileFunction,Soldermask,Bot*%
%TF.FilePolarity,Negative*%
%FSLAX46Y46*%
G04 Gerber Fmt 4.6, Leading zero omitted, Abs format (unit mm)*
G04 Created by KiCad (PCBNEW (6.0.1)) date 2022-02-13 18:41:53*
%MOMM*%
%LPD*%
G01*
G04 APERTURE LIST*
G04 Aperture macros list*
%AMRoundRect*
0 Rectangle with rounded corners*
0 $1 Rounding radius*
0 $2 $3 $4 $5 $6 $7 $8 $9 X,Y pos of 4 corners*
0 Add a 4 corners polygon primitive as box body*
4,1,4,$2,$3,$4,$5,$6,$7,$8,$9,$2,$3,0*
0 Add four circle primitives for the rounded corners*
1,1,$1+$1,$2,$3*
1,1,$1+$1,$4,$5*
1,1,$1+$1,$6,$7*
1,1,$1+$1,$8,$9*
0 Add four rect primitives between the rounded corners*
20,1,$1+$1,$2,$3,$4,$5,0*
20,1,$1+$1,$4,$5,$6,$7,0*
20,1,$1+$1,$6,$7,$8,$9,0*
20,1,$1+$1,$8,$9,$2,$3,0*%
G04 Aperture macros list end*
%ADD10C,4.000000*%
%ADD11R,1.600000X1.600000*%
%ADD12C,1.600000*%
%ADD13C,3.250000*%
%ADD14R,1.500000X1.500000*%
%ADD15C,1.500000*%
%ADD16C,2.300000*%
%ADD17RoundRect,0.250000X-0.620000X-0.845000X0.620000X-0.845000X0.620000X0.845000X-0.620000X0.845000X0*%
%ADD18O,1.740000X2.190000*%
%ADD19RoundRect,0.250000X-0.600000X-0.600000X0.600000X-0.600000X0.600000X0.600000X-0.600000X0.600000X0*%
%ADD20C,1.700000*%
%ADD21C,2.500000*%
%ADD22R,1.700000X1.700000*%
%ADD23O,1.700000X1.700000*%
%ADD24C,1.000000*%
%ADD25RoundRect,0.250000X0.475000X-0.337500X0.475000X0.337500X-0.475000X0.337500X-0.475000X-0.337500X0*%
%ADD26RoundRect,0.250000X0.337500X0.475000X-0.337500X0.475000X-0.337500X-0.475000X0.337500X-0.475000X0*%
%ADD27RoundRect,0.250000X-0.337500X-0.475000X0.337500X-0.475000X0.337500X0.475000X-0.337500X0.475000X0*%
%ADD28RoundRect,0.150000X0.875000X0.150000X-0.875000X0.150000X-0.875000X-0.150000X0.875000X-0.150000X0*%
%ADD29RoundRect,0.250000X0.600000X0.600000X-0.600000X0.600000X-0.600000X-0.600000X0.600000X-0.600000X0*%
%ADD30RoundRect,0.250000X0.350000X0.450000X-0.350000X0.450000X-0.350000X-0.450000X0.350000X-0.450000X0*%
%ADD31RoundRect,0.250000X-0.350000X-0.450000X0.350000X-0.450000X0.350000X0.450000X-0.350000X0.450000X0*%
%ADD32RoundRect,0.250000X0.450000X-0.350000X0.450000X0.350000X-0.450000X0.350000X-0.450000X-0.350000X0*%
%ADD33C,2.000000*%
%ADD34RoundRect,0.150000X-0.150000X0.825000X-0.150000X-0.825000X0.150000X-0.825000X0.150000X0.825000X0*%
%ADD35RoundRect,0.150000X0.150000X-0.825000X0.150000X0.825000X-0.150000X0.825000X-0.150000X-0.825000X0*%
%ADD36RoundRect,0.150000X-0.825000X-0.150000X0.825000X-0.150000X0.825000X0.150000X-0.825000X0.150000X0*%
%ADD37RoundRect,0.150000X0.150000X-0.875000X0.150000X0.875000X-0.150000X0.875000X-0.150000X-0.875000X0*%
G04 APERTURE END LIST*
D10*
%TO.C,J4*%
X126460000Y-86420000D03*
X151460000Y-86420000D03*
D11*
X144500000Y-85000000D03*
D12*
X141730000Y-85000000D03*
X138960000Y-85000000D03*
X136190000Y-85000000D03*
X133420000Y-85000000D03*
X143115000Y-87840000D03*
X140345000Y-87840000D03*
X137575000Y-87840000D03*
X134805000Y-87840000D03*
%TD*%
D10*
%TO.C,J5*%
X158460000Y-86420000D03*
X183460000Y-86420000D03*
D11*
X176500000Y-85000000D03*
D12*
X173730000Y-85000000D03*
X170960000Y-85000000D03*
X168190000Y-85000000D03*
X165420000Y-85000000D03*
X175115000Y-87840000D03*
X172345000Y-87840000D03*
X169575000Y-87840000D03*
X166805000Y-87840000D03*
%TD*%
D13*
%TO.C,J6*%
X132605000Y-99255000D03*
X145305000Y-99255000D03*
D14*
X142515000Y-96715000D03*
D15*
X141499000Y-94935000D03*
X140483000Y-96715000D03*
X139467000Y-94935000D03*
X138451000Y-96715000D03*
X137435000Y-94935000D03*
X136419000Y-96715000D03*
X135403000Y-94935000D03*
X145815000Y-90115000D03*
X143525000Y-90115000D03*
X134385000Y-90115000D03*
X132095000Y-90115000D03*
D16*
X130825000Y-95825000D03*
X147085000Y-95825000D03*
%TD*%
D13*
%TO.C,J7*%
X177290000Y-99290000D03*
X164590000Y-99290000D03*
D14*
X174500000Y-96750000D03*
D15*
X173484000Y-94970000D03*
X172468000Y-96750000D03*
X171452000Y-94970000D03*
X170436000Y-96750000D03*
X169420000Y-94970000D03*
X168404000Y-96750000D03*
X167388000Y-94970000D03*
X177800000Y-90150000D03*
X175510000Y-90150000D03*
X166370000Y-90150000D03*
X164080000Y-90150000D03*
D16*
X179070000Y-95860000D03*
X162810000Y-95860000D03*
%TD*%
D17*
%TO.C,J8*%
X136398000Y-28000000D03*
D18*
X138938000Y-28000000D03*
X141478000Y-28000000D03*
X144018000Y-28000000D03*
X146558000Y-28000000D03*
%TD*%
D19*
%TO.C,J10*%
X171000000Y-34500000D03*
D20*
X173540000Y-34500000D03*
X171000000Y-37040000D03*
X173540000Y-37040000D03*
X171000000Y-39580000D03*
X173540000Y-39580000D03*
X171000000Y-42120000D03*
X173540000Y-42120000D03*
X171000000Y-44660000D03*
X173540000Y-44660000D03*
X171000000Y-47200000D03*
X173540000Y-47200000D03*
X171000000Y-49740000D03*
X173540000Y-49740000D03*
X171000000Y-52280000D03*
X173540000Y-52280000D03*
X171000000Y-54820000D03*
X173540000Y-54820000D03*
X171000000Y-57360000D03*
X173540000Y-57360000D03*
%TD*%
D21*
%TO.C,H1*%
X126730000Y-29480000D03*
%TD*%
%TO.C,H2*%
X126730000Y-34570000D03*
%TD*%
%TO.C,H3*%
X126730000Y-39640000D03*
%TD*%
%TO.C,H4*%
X126740000Y-44730000D03*
%TD*%
%TO.C,H6*%
X126740000Y-54890000D03*
%TD*%
%TO.C,H9*%
X126730000Y-70130000D03*
%TD*%
%TO.C,H10*%
X126730000Y-75210000D03*
%TD*%
%TO.C,H5*%
X126730000Y-49810000D03*
%TD*%
%TO.C,H8*%
X126730000Y-65050000D03*
%TD*%
%TO.C,H7*%
X126730000Y-59970000D03*
%TD*%
D22*
%TO.C,J11*%
X179070000Y-61214000D03*
D23*
X181610000Y-61214000D03*
%TD*%
D24*
%TO.C,Y1*%
X155125000Y-42325000D03*
X155125000Y-40425000D03*
%TD*%
D25*
%TO.C,C1*%
X151925000Y-41725000D03*
X151925000Y-39650000D03*
%TD*%
D26*
%TO.C,C2*%
X154825000Y-44000000D03*
X152750000Y-44000000D03*
%TD*%
D27*
%TO.C,C3*%
X150071000Y-98806000D03*
X152146000Y-98806000D03*
%TD*%
%TO.C,C4*%
X157204500Y-98806000D03*
X159279500Y-98806000D03*
%TD*%
D28*
%TO.C,IC1*%
X148000000Y-30500000D03*
X148000000Y-31770000D03*
X148000000Y-33040000D03*
X148000000Y-34310000D03*
X148000000Y-35580000D03*
X148000000Y-36850000D03*
X148000000Y-38120000D03*
X148000000Y-39390000D03*
X148000000Y-40660000D03*
X148000000Y-41930000D03*
X148000000Y-43200000D03*
X148000000Y-44470000D03*
X148000000Y-45740000D03*
X148000000Y-47010000D03*
X138700000Y-47010000D03*
X138700000Y-45740000D03*
X138700000Y-44470000D03*
X138700000Y-43200000D03*
X138700000Y-41930000D03*
X138700000Y-40660000D03*
X138700000Y-39390000D03*
X138700000Y-38120000D03*
X138700000Y-36850000D03*
X138700000Y-35580000D03*
X138700000Y-34310000D03*
X138700000Y-33040000D03*
X138700000Y-31770000D03*
X138700000Y-30500000D03*
%TD*%
D29*
%TO.C,J9*%
X161940000Y-34500000D03*
D20*
X159400000Y-34500000D03*
X161940000Y-37040000D03*
X159400000Y-37040000D03*
X161940000Y-39580000D03*
X159400000Y-39580000D03*
X161940000Y-42120000D03*
X159400000Y-42120000D03*
X161940000Y-44660000D03*
X159400000Y-44660000D03*
X161940000Y-47200000D03*
X159400000Y-47200000D03*
X161940000Y-49740000D03*
X159400000Y-49740000D03*
X161940000Y-52280000D03*
X159400000Y-52280000D03*
X161940000Y-54820000D03*
X159400000Y-54820000D03*
X161940000Y-57360000D03*
X159400000Y-57360000D03*
%TD*%
D30*
%TO.C,R1*%
X131850000Y-29500000D03*
X129850000Y-29500000D03*
%TD*%
%TO.C,R3*%
X131975000Y-34625000D03*
X129975000Y-34625000D03*
%TD*%
%TO.C,R7*%
X131975000Y-36650000D03*
X129975000Y-36650000D03*
%TD*%
D31*
%TO.C,R8*%
X130200000Y-43575000D03*
X132200000Y-43575000D03*
%TD*%
%TO.C,R9*%
X130225000Y-48775000D03*
X132225000Y-48775000D03*
%TD*%
%TO.C,R10*%
X130200000Y-53875000D03*
X132200000Y-53875000D03*
%TD*%
%TO.C,R11*%
X130150000Y-58925000D03*
X132150000Y-58925000D03*
%TD*%
%TO.C,R12*%
X130125000Y-64050000D03*
X132125000Y-64050000D03*
%TD*%
%TO.C,R13*%
X130100000Y-69150000D03*
X132100000Y-69150000D03*
%TD*%
%TO.C,R15*%
X130175000Y-74225000D03*
X132175000Y-74225000D03*
%TD*%
D30*
%TO.C,R17*%
X131975000Y-40675000D03*
X129975000Y-40675000D03*
%TD*%
%TO.C,R18*%
X132225000Y-45650000D03*
X130225000Y-45650000D03*
%TD*%
%TO.C,R19*%
X132225000Y-50750000D03*
X130225000Y-50750000D03*
%TD*%
%TO.C,R20*%
X132200000Y-55875000D03*
X130200000Y-55875000D03*
%TD*%
%TO.C,R21*%
X132150000Y-61025000D03*
X130150000Y-61025000D03*
%TD*%
%TO.C,R22*%
X131850000Y-66075000D03*
X129850000Y-66075000D03*
%TD*%
%TO.C,R23*%
X132075000Y-71150000D03*
X130075000Y-71150000D03*
%TD*%
%TO.C,R24*%
X132200000Y-76275000D03*
X130200000Y-76275000D03*
%TD*%
D31*
%TO.C,R25*%
X143550000Y-92050000D03*
X145550000Y-92050000D03*
%TD*%
%TO.C,R27*%
X132100000Y-92400000D03*
X134100000Y-92400000D03*
%TD*%
%TO.C,R28*%
X164100000Y-92050000D03*
X166100000Y-92050000D03*
%TD*%
D32*
%TO.C,R29*%
X135400000Y-32600000D03*
X135400000Y-30600000D03*
%TD*%
D33*
%TO.C,TP12*%
X132875000Y-81750000D03*
%TD*%
%TO.C,TP14*%
X129950000Y-80250000D03*
%TD*%
%TO.C,TP15*%
X135636000Y-64262000D03*
%TD*%
%TO.C,TP16*%
X135636000Y-67375000D03*
%TD*%
%TO.C,TP18*%
X149860000Y-78740000D03*
%TD*%
%TO.C,TP19*%
X149650000Y-81875000D03*
%TD*%
D34*
%TO.C,U1*%
X150095000Y-90525000D03*
X151365000Y-90525000D03*
X152635000Y-90525000D03*
X153905000Y-90525000D03*
X153905000Y-95475000D03*
X152635000Y-95475000D03*
X151365000Y-95475000D03*
X150095000Y-95475000D03*
%TD*%
%TO.C,U2*%
X156095000Y-90525000D03*
X157365000Y-90525000D03*
X158635000Y-90525000D03*
X159905000Y-90525000D03*
X159905000Y-95475000D03*
X158635000Y-95475000D03*
X157365000Y-95475000D03*
X156095000Y-95475000D03*
%TD*%
%TO.C,U3*%
X169055000Y-76025000D03*
X170325000Y-76025000D03*
X171595000Y-76025000D03*
X172865000Y-76025000D03*
X174135000Y-76025000D03*
X175405000Y-76025000D03*
X176675000Y-76025000D03*
X177945000Y-76025000D03*
X177945000Y-80975000D03*
X176675000Y-80975000D03*
X175405000Y-80975000D03*
X174135000Y-80975000D03*
X172865000Y-80975000D03*
X171595000Y-80975000D03*
X170325000Y-80975000D03*
X169055000Y-80975000D03*
%TD*%
D35*
%TO.C,U4*%
X159040000Y-69500000D03*
X157770000Y-69500000D03*
X156500000Y-69500000D03*
X155230000Y-69500000D03*
X153960000Y-69500000D03*
X152690000Y-69500000D03*
X151420000Y-69500000D03*
X150150000Y-69500000D03*
X150150000Y-64550000D03*
X151420000Y-64550000D03*
X152690000Y-64550000D03*
X153960000Y-64550000D03*
X155230000Y-64550000D03*
X156500000Y-64550000D03*
X157770000Y-64550000D03*
X159040000Y-64550000D03*
%TD*%
D34*
%TO.C,U6*%
X157920000Y-76050000D03*
X159190000Y-76050000D03*
X160460000Y-76050000D03*
X161730000Y-76050000D03*
X163000000Y-76050000D03*
X164270000Y-76050000D03*
X165540000Y-76050000D03*
X166810000Y-76050000D03*
X166810000Y-81000000D03*
X165540000Y-81000000D03*
X164270000Y-81000000D03*
X163000000Y-81000000D03*
X161730000Y-81000000D03*
X160460000Y-81000000D03*
X159190000Y-81000000D03*
X157920000Y-81000000D03*
%TD*%
D36*
%TO.C,U8*%
X141825000Y-67395000D03*
X141825000Y-66125000D03*
X141825000Y-64855000D03*
X141825000Y-63585000D03*
X141825000Y-62315000D03*
X141825000Y-61045000D03*
X141825000Y-59775000D03*
X141825000Y-58505000D03*
X146775000Y-58505000D03*
X146775000Y-59775000D03*
X146775000Y-61045000D03*
X146775000Y-62315000D03*
X146775000Y-63585000D03*
X146775000Y-64855000D03*
X146775000Y-66125000D03*
X146775000Y-67395000D03*
%TD*%
D31*
%TO.C,R26*%
X175500000Y-92500000D03*
X177500000Y-92500000D03*
%TD*%
D37*
%TO.C,U7*%
X147215000Y-80650000D03*
X145945000Y-80650000D03*
X144675000Y-80650000D03*
X143405000Y-80650000D03*
X142135000Y-80650000D03*
X140865000Y-80650000D03*
X139595000Y-80650000D03*
X138325000Y-80650000D03*
X137055000Y-80650000D03*
X135785000Y-80650000D03*
X135785000Y-71350000D03*
X137055000Y-71350000D03*
X138325000Y-71350000D03*
X139595000Y-71350000D03*
X140865000Y-71350000D03*
X142135000Y-71350000D03*
X143405000Y-71350000D03*
X144675000Y-71350000D03*
X145945000Y-71350000D03*
X147215000Y-71350000D03*
%TD*%
D33*
%TO.C,TP20*%
X152600000Y-81075000D03*
%TD*%
%TO.C,TP17*%
X149750000Y-61700000D03*
%TD*%
D31*
%TO.C,R6*%
X129975000Y-38700000D03*
X131975000Y-38700000D03*
%TD*%
M02*
