%TF.GenerationSoftware,KiCad,Pcbnew,(6.0.1)*%
%TF.CreationDate,2022-02-13T18:39:40+00:00*%
%TF.ProjectId,module-processing,6d6f6475-6c65-42d7-9072-6f6365737369,rev?*%
%TF.SameCoordinates,Original*%
%TF.FileFunction,Paste,Bot*%
%TF.FilePolarity,Positive*%
%FSLAX46Y46*%
G04 Gerber Fmt 4.6, Leading zero omitted, Abs format (unit mm)*
G04 Created by KiCad (PCBNEW (6.0.1)) date 2022-02-13 18:39:40*
%MOMM*%
%LPD*%
G01*
G04 APERTURE LIST*
G04 Aperture macros list*
%AMRoundRect*
0 Rectangle with rounded corners*
0 $1 Rounding radius*
0 $2 $3 $4 $5 $6 $7 $8 $9 X,Y pos of 4 corners*
0 Add a 4 corners polygon primitive as box body*
4,1,4,$2,$3,$4,$5,$6,$7,$8,$9,$2,$3,0*
0 Add four circle primitives for the rounded corners*
1,1,$1+$1,$2,$3*
1,1,$1+$1,$4,$5*
1,1,$1+$1,$6,$7*
1,1,$1+$1,$8,$9*
0 Add four rect primitives between the rounded corners*
20,1,$1+$1,$2,$3,$4,$5,0*
20,1,$1+$1,$4,$5,$6,$7,0*
20,1,$1+$1,$6,$7,$8,$9,0*
20,1,$1+$1,$8,$9,$2,$3,0*%
G04 Aperture macros list end*
%ADD10RoundRect,0.250000X0.350000X0.450000X-0.350000X0.450000X-0.350000X-0.450000X0.350000X-0.450000X0*%
%ADD11RoundRect,0.250000X-0.350000X-0.450000X0.350000X-0.450000X0.350000X0.450000X-0.350000X0.450000X0*%
%ADD12RoundRect,0.250000X0.450000X-0.350000X0.450000X0.350000X-0.450000X0.350000X-0.450000X-0.350000X0*%
%ADD13RoundRect,0.150000X-0.875000X-0.150000X0.875000X-0.150000X0.875000X0.150000X-0.875000X0.150000X0*%
%ADD14R,1.800000X2.100000*%
G04 APERTURE END LIST*
D10*
%TO.C,R1*%
X131850000Y-29500000D03*
X129850000Y-29500000D03*
%TD*%
%TO.C,R3*%
X131975000Y-34625000D03*
X129975000Y-34625000D03*
%TD*%
%TO.C,R11*%
X131975000Y-36650000D03*
X129975000Y-36650000D03*
%TD*%
D11*
%TO.C,R9*%
X130200000Y-43575000D03*
X132200000Y-43575000D03*
%TD*%
%TO.C,R10*%
X130225000Y-48775000D03*
X132225000Y-48775000D03*
%TD*%
%TO.C,R12*%
X130200000Y-53875000D03*
X132200000Y-53875000D03*
%TD*%
%TO.C,R17*%
X130150000Y-58925000D03*
X132150000Y-58925000D03*
%TD*%
%TO.C,R19*%
X130125000Y-64050000D03*
X132125000Y-64050000D03*
%TD*%
%TO.C,R20*%
X130100000Y-69150000D03*
X132100000Y-69150000D03*
%TD*%
D12*
%TO.C,R22*%
X135400000Y-32600000D03*
X135400000Y-30600000D03*
%TD*%
D11*
%TO.C,R8*%
X129975000Y-38700000D03*
X131975000Y-38700000D03*
%TD*%
D13*
%TO.C,IC1*%
X140840000Y-50605000D03*
X140840000Y-49335000D03*
X140840000Y-48065000D03*
X140840000Y-46795000D03*
X140840000Y-45525000D03*
X140840000Y-44255000D03*
X140840000Y-42985000D03*
X140840000Y-41715000D03*
X140840000Y-40445000D03*
X140840000Y-39175000D03*
X140840000Y-37905000D03*
X140840000Y-36635000D03*
X140840000Y-35365000D03*
X140840000Y-34095000D03*
X150140000Y-34095000D03*
X150140000Y-35365000D03*
X150140000Y-36635000D03*
X150140000Y-37905000D03*
X150140000Y-39175000D03*
X150140000Y-40445000D03*
X150140000Y-41715000D03*
X150140000Y-42985000D03*
X150140000Y-44255000D03*
X150140000Y-45525000D03*
X150140000Y-46795000D03*
X150140000Y-48065000D03*
X150140000Y-49335000D03*
X150140000Y-50605000D03*
%TD*%
D14*
%TO.C,Y1*%
X137810000Y-38820000D03*
X137810000Y-41720000D03*
X135510000Y-41720000D03*
X135510000Y-38820000D03*
%TD*%
M02*
