%TF.GenerationSoftware,KiCad,Pcbnew,(6.0.1)*%
%TF.CreationDate,2022-02-13T18:39:40+00:00*%
%TF.ProjectId,module-processing,6d6f6475-6c65-42d7-9072-6f6365737369,rev?*%
%TF.SameCoordinates,Original*%
%TF.FileFunction,Soldermask,Top*%
%TF.FilePolarity,Negative*%
%FSLAX46Y46*%
G04 Gerber Fmt 4.6, Leading zero omitted, Abs format (unit mm)*
G04 Created by KiCad (PCBNEW (6.0.1)) date 2022-02-13 18:39:40*
%MOMM*%
%LPD*%
G01*
G04 APERTURE LIST*
G04 Aperture macros list*
%AMRoundRect*
0 Rectangle with rounded corners*
0 $1 Rounding radius*
0 $2 $3 $4 $5 $6 $7 $8 $9 X,Y pos of 4 corners*
0 Add a 4 corners polygon primitive as box body*
4,1,4,$2,$3,$4,$5,$6,$7,$8,$9,$2,$3,0*
0 Add four circle primitives for the rounded corners*
1,1,$1+$1,$2,$3*
1,1,$1+$1,$4,$5*
1,1,$1+$1,$6,$7*
1,1,$1+$1,$8,$9*
0 Add four rect primitives between the rounded corners*
20,1,$1+$1,$2,$3,$4,$5,0*
20,1,$1+$1,$4,$5,$6,$7,0*
20,1,$1+$1,$6,$7,$8,$9,0*
20,1,$1+$1,$8,$9,$2,$3,0*%
G04 Aperture macros list end*
%ADD10RoundRect,0.250000X0.337500X0.475000X-0.337500X0.475000X-0.337500X-0.475000X0.337500X-0.475000X0*%
%ADD11RoundRect,0.250000X0.475000X-0.337500X0.475000X0.337500X-0.475000X0.337500X-0.475000X-0.337500X0*%
%ADD12RoundRect,0.237500X-0.287500X-0.237500X0.287500X-0.237500X0.287500X0.237500X-0.287500X0.237500X0*%
%ADD13RoundRect,0.237500X0.287500X0.237500X-0.287500X0.237500X-0.287500X-0.237500X0.287500X-0.237500X0*%
%ADD14RoundRect,0.250000X-0.620000X-0.845000X0.620000X-0.845000X0.620000X0.845000X-0.620000X0.845000X0*%
%ADD15O,1.740000X2.190000*%
%ADD16RoundRect,0.250000X-0.600000X-0.600000X0.600000X-0.600000X0.600000X0.600000X-0.600000X0.600000X0*%
%ADD17C,1.700000*%
%ADD18R,0.900000X0.800000*%
%ADD19RoundRect,0.250000X-0.450000X0.350000X-0.450000X-0.350000X0.450000X-0.350000X0.450000X0.350000X0*%
%ADD20RoundRect,0.250000X0.450000X-0.350000X0.450000X0.350000X-0.450000X0.350000X-0.450000X-0.350000X0*%
%ADD21RoundRect,0.250000X-0.350000X-0.450000X0.350000X-0.450000X0.350000X0.450000X-0.350000X0.450000X0*%
%ADD22C,2.000000*%
%ADD23C,2.500000*%
%ADD24RoundRect,0.250000X0.350000X0.450000X-0.350000X0.450000X-0.350000X-0.450000X0.350000X-0.450000X0*%
%ADD25RoundRect,0.150000X-0.587500X-0.150000X0.587500X-0.150000X0.587500X0.150000X-0.587500X0.150000X0*%
%ADD26R,1.500000X1.000000*%
%ADD27RoundRect,0.150000X-0.825000X-0.150000X0.825000X-0.150000X0.825000X0.150000X-0.825000X0.150000X0*%
%ADD28C,6.000000*%
%ADD29R,1.700000X1.700000*%
%ADD30O,1.700000X1.700000*%
G04 APERTURE END LIST*
D10*
%TO.C,C1*%
X137907500Y-41670000D03*
X135832500Y-41670000D03*
%TD*%
%TO.C,C2*%
X137867500Y-38750000D03*
X135792500Y-38750000D03*
%TD*%
D11*
%TO.C,C4*%
X135250000Y-35515000D03*
X135250000Y-33440000D03*
%TD*%
%TO.C,C5*%
X138390000Y-35670000D03*
X138390000Y-33595000D03*
%TD*%
D12*
%TO.C,D1*%
X130152500Y-29490000D03*
X131902500Y-29490000D03*
%TD*%
%TO.C,D2*%
X130162500Y-34580000D03*
X131912500Y-34580000D03*
%TD*%
D13*
%TO.C,D4*%
X154404000Y-49530000D03*
X152654000Y-49530000D03*
%TD*%
D12*
%TO.C,D6*%
X130187500Y-43975000D03*
X131937500Y-43975000D03*
%TD*%
%TO.C,D7*%
X130162500Y-49075000D03*
X131912500Y-49075000D03*
%TD*%
%TO.C,D10*%
X130137500Y-64325000D03*
X131887500Y-64325000D03*
%TD*%
%TO.C,D11*%
X130162500Y-69375000D03*
X131912500Y-69375000D03*
%TD*%
D14*
%TO.C,J3*%
X136398000Y-28000000D03*
D15*
X138938000Y-28000000D03*
X141478000Y-28000000D03*
X144018000Y-28000000D03*
X146558000Y-28000000D03*
%TD*%
D16*
%TO.C,J1*%
X171000000Y-34500000D03*
D17*
X173540000Y-34500000D03*
X171000000Y-37040000D03*
X173540000Y-37040000D03*
X171000000Y-39580000D03*
X173540000Y-39580000D03*
X171000000Y-42120000D03*
X173540000Y-42120000D03*
X171000000Y-44660000D03*
X173540000Y-44660000D03*
X171000000Y-47200000D03*
X173540000Y-47200000D03*
X171000000Y-49740000D03*
X173540000Y-49740000D03*
X171000000Y-52280000D03*
X173540000Y-52280000D03*
X171000000Y-54820000D03*
X173540000Y-54820000D03*
X171000000Y-57360000D03*
X173540000Y-57360000D03*
%TD*%
D18*
%TO.C,Q1*%
X156750000Y-29972000D03*
X156750000Y-31872000D03*
X158750000Y-30922000D03*
%TD*%
%TO.C,Q3*%
X156750000Y-26228000D03*
X156750000Y-28128000D03*
X158750000Y-27178000D03*
%TD*%
D19*
%TO.C,R2*%
X160580000Y-30480000D03*
X160580000Y-32480000D03*
%TD*%
D20*
%TO.C,R6*%
X160574533Y-28164000D03*
X160574533Y-26164000D03*
%TD*%
D21*
%TO.C,R7*%
X156496000Y-49276000D03*
X158496000Y-49276000D03*
%TD*%
D22*
%TO.C,TP1*%
X163068000Y-31496000D03*
%TD*%
%TO.C,TP2*%
X173640000Y-27320000D03*
%TD*%
D12*
%TO.C,D5*%
X130165000Y-38815000D03*
X131915000Y-38815000D03*
%TD*%
D23*
%TO.C,H2*%
X126730000Y-29480000D03*
%TD*%
%TO.C,H1*%
X126730000Y-34570000D03*
%TD*%
%TO.C,H3*%
X126730000Y-39640000D03*
%TD*%
%TO.C,H4*%
X126740000Y-44730000D03*
%TD*%
%TO.C,H6*%
X126740000Y-54890000D03*
%TD*%
%TO.C,H9*%
X126730000Y-70130000D03*
%TD*%
%TO.C,H10*%
X126730000Y-75210000D03*
%TD*%
%TO.C,H5*%
X126730000Y-49810000D03*
%TD*%
%TO.C,H8*%
X126730000Y-65050000D03*
%TD*%
%TO.C,H7*%
X126730000Y-59970000D03*
%TD*%
D12*
%TO.C,D9*%
X130165000Y-59229533D03*
X131915000Y-59229533D03*
%TD*%
%TO.C,D8*%
X130162500Y-54150000D03*
X131912500Y-54150000D03*
%TD*%
D20*
%TO.C,R5*%
X169926000Y-94742000D03*
X169926000Y-92742000D03*
%TD*%
D13*
%TO.C,D3*%
X169898000Y-96520000D03*
X168148000Y-96520000D03*
%TD*%
D22*
%TO.C,TP3*%
X164084000Y-26670000D03*
%TD*%
D21*
%TO.C,R21*%
X161322000Y-36420000D03*
X163322000Y-36420000D03*
%TD*%
D24*
%TO.C,R16*%
X181578000Y-46482000D03*
X179578000Y-46482000D03*
%TD*%
D25*
%TO.C,Q4*%
X157065000Y-34530000D03*
X157065000Y-36430000D03*
X158940000Y-35480000D03*
%TD*%
D22*
%TO.C,TP4*%
X154940000Y-40640000D03*
%TD*%
D24*
%TO.C,R13*%
X181710000Y-41940000D03*
X179710000Y-41940000D03*
%TD*%
D26*
%TO.C,JP1*%
X165830000Y-46810000D03*
X165830000Y-48110000D03*
%TD*%
D10*
%TO.C,C3*%
X151175000Y-39130000D03*
X149100000Y-39130000D03*
%TD*%
D24*
%TO.C,R14*%
X181670000Y-44230000D03*
X179670000Y-44230000D03*
%TD*%
D19*
%TO.C,R15*%
X178430000Y-35710000D03*
X178430000Y-37710000D03*
%TD*%
D20*
%TO.C,R4*%
X165354000Y-36210000D03*
X165354000Y-34210000D03*
%TD*%
D25*
%TO.C,Q2*%
X168615000Y-26140000D03*
X168615000Y-28040000D03*
X170490000Y-27090000D03*
%TD*%
D27*
%TO.C,U1*%
X142559000Y-65913000D03*
X142559000Y-67183000D03*
X142559000Y-68453000D03*
X142559000Y-69723000D03*
X142559000Y-70993000D03*
X142559000Y-72263000D03*
X142559000Y-73533000D03*
X142559000Y-74803000D03*
X147509000Y-74803000D03*
X147509000Y-73533000D03*
X147509000Y-72263000D03*
X147509000Y-70993000D03*
X147509000Y-69723000D03*
X147509000Y-68453000D03*
X147509000Y-67183000D03*
X147509000Y-65913000D03*
%TD*%
D21*
%TO.C,R18*%
X160970000Y-34410000D03*
X162970000Y-34410000D03*
%TD*%
D26*
%TO.C,JP2*%
X145660000Y-61290000D03*
X145660000Y-62590000D03*
%TD*%
D28*
%TO.C,J2*%
X140322000Y-113792000D03*
X163322000Y-55792000D03*
X163322000Y-113792000D03*
X140322000Y-55792000D03*
D29*
X162052000Y-108922000D03*
D30*
X164592000Y-108922000D03*
X162052000Y-106382000D03*
X164592000Y-106382000D03*
X162052000Y-103842000D03*
X164592000Y-103842000D03*
X162052000Y-101302000D03*
X164592000Y-101302000D03*
X162052000Y-98762000D03*
X164592000Y-98762000D03*
X162052000Y-96222000D03*
X164592000Y-96222000D03*
X162052000Y-93682000D03*
X164592000Y-93682000D03*
X162052000Y-91142000D03*
X164592000Y-91142000D03*
X162052000Y-88602000D03*
X164592000Y-88602000D03*
X162052000Y-86062000D03*
X164592000Y-86062000D03*
X162052000Y-83522000D03*
X164592000Y-83522000D03*
X162052000Y-80982000D03*
X164592000Y-80982000D03*
X162052000Y-78442000D03*
X164592000Y-78442000D03*
X162052000Y-75902000D03*
X164592000Y-75902000D03*
X162052000Y-73362000D03*
X164592000Y-73362000D03*
X162052000Y-70822000D03*
X164592000Y-70822000D03*
X162052000Y-68282000D03*
X164592000Y-68282000D03*
X162052000Y-65742000D03*
X164592000Y-65742000D03*
X162052000Y-63202000D03*
X164592000Y-63202000D03*
X162052000Y-60662000D03*
X164592000Y-60662000D03*
%TD*%
M02*
