M48
; DRILL file {KiCad (6.0.1)} date Sun Feb 13 18:34:17 2022
; FORMAT={-:-/ absolute / inch / decimal}
; #@! TF.CreationDate,2022-02-13T18:34:17+00:00
; #@! TF.GenerationSoftware,Kicad,Pcbnew,(6.0.1)
; #@! TF.FileFunction,Plated,1,2,PTH
FMAT,2
INCH
; #@! TA.AperFunction,Plated,PTH,ViaDrill
T1C0.0157
; #@! TA.AperFunction,Plated,PTH,ComponentDrill
T2C0.0394
; #@! TA.AperFunction,Plated,PTH,ComponentDrill
T3C0.0469
%
G90
G05
T1
X5.0699Y-1.439
X5.0797Y-1.5305
X5.0817Y-2.1329
X5.0846Y-2.3327
X5.0856Y-1.7234
X5.1Y-1.89
X5.1024Y-2.685
X5.1201Y-2.4902
X5.2362Y-1.1644
X5.2411Y-1.3612
X5.3858Y-1.4138
X5.4465Y-1.7094
X5.4657Y-1.4752
X5.4831Y-1.9669
X5.6028Y-1.4941
X5.6569Y-1.6131
X5.6669Y-1.6731
X5.6889Y-1.9
X5.7144Y-1.34
X5.7144Y-1.4
X5.77Y-2.29
X5.78Y-2.1
X5.78Y-2.33
X5.79Y-1.4
X5.8005Y-1.34
X5.82Y-1.47
X5.837Y-1.5417
X5.85Y-1.84
X5.87Y-1.13
X5.87Y-2.72
X5.97Y-1.7744
X5.978Y-1.5882
X5.98Y-2.35
X6.03Y-1.63
X6.03Y-2.25
X6.05Y-1.76
X6.06Y-1.13
X6.1Y-1.52
X6.1Y-1.88
X6.11Y-1.76
X6.25Y-1.76
X6.25Y-1.88
X6.32Y-1.63
X6.38Y-1.76
X6.38Y-1.88
X6.42Y-4.04
X6.4772Y-1.7596
X6.51Y-1.29
X6.55Y-3.87
X6.55Y-3.92
X6.55Y-3.98
X6.56Y-4.08
X6.58Y-1.29
X6.59Y-1.18
X6.64Y-3.87
X6.64Y-3.92
X6.6756Y-1.6933
X6.68Y-1.18
X6.72Y-3.87
X6.76Y-3.8
X6.78Y-1.18
X6.9Y-1.2913
X6.911Y-1.4858
X6.9555Y-1.748
X6.97Y-1.95
X7.01Y-1.09
X7.0169Y-1.9531
X7.028Y-1.7535
X7.12Y-1.21
X7.16Y-1.2835
X7.16Y-1.32
X7.16Y-1.3565
X7.24Y-1.2835
X7.24Y-1.32
X7.26Y-1.36
T2
X6.38Y-2.3883
X6.38Y-2.4883
X6.38Y-2.5883
X6.38Y-2.6883
X6.38Y-2.7883
X6.38Y-2.8883
X6.38Y-2.9883
X6.38Y-3.0883
X6.38Y-3.1883
X6.38Y-3.2883
X6.38Y-3.3883
X6.38Y-3.4883
X6.38Y-3.5883
X6.38Y-3.6883
X6.38Y-3.7883
X6.38Y-3.8883
X6.38Y-3.9883
X6.38Y-4.0883
X6.38Y-4.1883
X6.38Y-4.2883
X6.48Y-2.3883
X6.48Y-2.4883
X6.48Y-2.5883
X6.48Y-2.6883
X6.48Y-2.7883
X6.48Y-2.8883
X6.48Y-2.9883
X6.48Y-3.0883
X6.48Y-3.1883
X6.48Y-3.2883
X6.48Y-3.3883
X6.48Y-3.4883
X6.48Y-3.5883
X6.48Y-3.6883
X6.48Y-3.7883
X6.48Y-3.8883
X6.48Y-3.9883
X6.48Y-4.0883
X6.48Y-4.1883
X6.48Y-4.2883
X6.7323Y-1.3583
X6.7323Y-1.4583
X6.7323Y-1.5583
X6.7323Y-1.6583
X6.7323Y-1.7583
X6.7323Y-1.8583
X6.7323Y-1.9583
X6.7323Y-2.0583
X6.7323Y-2.1583
X6.7323Y-2.2583
X6.8323Y-1.3583
X6.8323Y-1.4583
X6.8323Y-1.5583
X6.8323Y-1.6583
X6.8323Y-1.7583
X6.8323Y-1.8583
X6.8323Y-1.9583
X6.8323Y-2.0583
X6.8323Y-2.1583
X6.8323Y-2.2583
T3
X5.37Y-1.1024
X5.47Y-1.1024
X5.57Y-1.1024
X5.67Y-1.1024
X5.77Y-1.1024
T0
M30
