%TF.GenerationSoftware,KiCad,Pcbnew,(6.0.1)*%
%TF.CreationDate,2022-02-13T18:39:40+00:00*%
%TF.ProjectId,module-processing,6d6f6475-6c65-42d7-9072-6f6365737369,rev?*%
%TF.SameCoordinates,Original*%
%TF.FileFunction,Soldermask,Bot*%
%TF.FilePolarity,Negative*%
%FSLAX46Y46*%
G04 Gerber Fmt 4.6, Leading zero omitted, Abs format (unit mm)*
G04 Created by KiCad (PCBNEW (6.0.1)) date 2022-02-13 18:39:40*
%MOMM*%
%LPD*%
G01*
G04 APERTURE LIST*
G04 Aperture macros list*
%AMRoundRect*
0 Rectangle with rounded corners*
0 $1 Rounding radius*
0 $2 $3 $4 $5 $6 $7 $8 $9 X,Y pos of 4 corners*
0 Add a 4 corners polygon primitive as box body*
4,1,4,$2,$3,$4,$5,$6,$7,$8,$9,$2,$3,0*
0 Add four circle primitives for the rounded corners*
1,1,$1+$1,$2,$3*
1,1,$1+$1,$4,$5*
1,1,$1+$1,$6,$7*
1,1,$1+$1,$8,$9*
0 Add four rect primitives between the rounded corners*
20,1,$1+$1,$2,$3,$4,$5,0*
20,1,$1+$1,$4,$5,$6,$7,0*
20,1,$1+$1,$6,$7,$8,$9,0*
20,1,$1+$1,$8,$9,$2,$3,0*%
G04 Aperture macros list end*
%ADD10RoundRect,0.250000X-0.620000X-0.845000X0.620000X-0.845000X0.620000X0.845000X-0.620000X0.845000X0*%
%ADD11O,1.740000X2.190000*%
%ADD12RoundRect,0.250000X-0.600000X-0.600000X0.600000X-0.600000X0.600000X0.600000X-0.600000X0.600000X0*%
%ADD13C,1.700000*%
%ADD14C,2.500000*%
%ADD15C,6.000000*%
%ADD16R,1.700000X1.700000*%
%ADD17O,1.700000X1.700000*%
%ADD18RoundRect,0.250000X0.350000X0.450000X-0.350000X0.450000X-0.350000X-0.450000X0.350000X-0.450000X0*%
%ADD19RoundRect,0.250000X-0.350000X-0.450000X0.350000X-0.450000X0.350000X0.450000X-0.350000X0.450000X0*%
%ADD20RoundRect,0.250000X0.450000X-0.350000X0.450000X0.350000X-0.450000X0.350000X-0.450000X-0.350000X0*%
%ADD21RoundRect,0.150000X-0.875000X-0.150000X0.875000X-0.150000X0.875000X0.150000X-0.875000X0.150000X0*%
%ADD22R,1.800000X2.100000*%
G04 APERTURE END LIST*
D10*
%TO.C,J3*%
X136398000Y-28000000D03*
D11*
X138938000Y-28000000D03*
X141478000Y-28000000D03*
X144018000Y-28000000D03*
X146558000Y-28000000D03*
%TD*%
D12*
%TO.C,J1*%
X171000000Y-34500000D03*
D13*
X173540000Y-34500000D03*
X171000000Y-37040000D03*
X173540000Y-37040000D03*
X171000000Y-39580000D03*
X173540000Y-39580000D03*
X171000000Y-42120000D03*
X173540000Y-42120000D03*
X171000000Y-44660000D03*
X173540000Y-44660000D03*
X171000000Y-47200000D03*
X173540000Y-47200000D03*
X171000000Y-49740000D03*
X173540000Y-49740000D03*
X171000000Y-52280000D03*
X173540000Y-52280000D03*
X171000000Y-54820000D03*
X173540000Y-54820000D03*
X171000000Y-57360000D03*
X173540000Y-57360000D03*
%TD*%
D14*
%TO.C,H2*%
X126730000Y-29480000D03*
%TD*%
%TO.C,H1*%
X126730000Y-34570000D03*
%TD*%
%TO.C,H3*%
X126730000Y-39640000D03*
%TD*%
%TO.C,H4*%
X126740000Y-44730000D03*
%TD*%
%TO.C,H6*%
X126740000Y-54890000D03*
%TD*%
%TO.C,H9*%
X126730000Y-70130000D03*
%TD*%
%TO.C,H10*%
X126730000Y-75210000D03*
%TD*%
%TO.C,H5*%
X126730000Y-49810000D03*
%TD*%
%TO.C,H8*%
X126730000Y-65050000D03*
%TD*%
%TO.C,H7*%
X126730000Y-59970000D03*
%TD*%
D15*
%TO.C,J2*%
X140322000Y-113792000D03*
X163322000Y-55792000D03*
X163322000Y-113792000D03*
X140322000Y-55792000D03*
D16*
X162052000Y-108922000D03*
D17*
X164592000Y-108922000D03*
X162052000Y-106382000D03*
X164592000Y-106382000D03*
X162052000Y-103842000D03*
X164592000Y-103842000D03*
X162052000Y-101302000D03*
X164592000Y-101302000D03*
X162052000Y-98762000D03*
X164592000Y-98762000D03*
X162052000Y-96222000D03*
X164592000Y-96222000D03*
X162052000Y-93682000D03*
X164592000Y-93682000D03*
X162052000Y-91142000D03*
X164592000Y-91142000D03*
X162052000Y-88602000D03*
X164592000Y-88602000D03*
X162052000Y-86062000D03*
X164592000Y-86062000D03*
X162052000Y-83522000D03*
X164592000Y-83522000D03*
X162052000Y-80982000D03*
X164592000Y-80982000D03*
X162052000Y-78442000D03*
X164592000Y-78442000D03*
X162052000Y-75902000D03*
X164592000Y-75902000D03*
X162052000Y-73362000D03*
X164592000Y-73362000D03*
X162052000Y-70822000D03*
X164592000Y-70822000D03*
X162052000Y-68282000D03*
X164592000Y-68282000D03*
X162052000Y-65742000D03*
X164592000Y-65742000D03*
X162052000Y-63202000D03*
X164592000Y-63202000D03*
X162052000Y-60662000D03*
X164592000Y-60662000D03*
%TD*%
D18*
%TO.C,R1*%
X131850000Y-29500000D03*
X129850000Y-29500000D03*
%TD*%
%TO.C,R3*%
X131975000Y-34625000D03*
X129975000Y-34625000D03*
%TD*%
%TO.C,R11*%
X131975000Y-36650000D03*
X129975000Y-36650000D03*
%TD*%
D19*
%TO.C,R9*%
X130200000Y-43575000D03*
X132200000Y-43575000D03*
%TD*%
%TO.C,R10*%
X130225000Y-48775000D03*
X132225000Y-48775000D03*
%TD*%
%TO.C,R12*%
X130200000Y-53875000D03*
X132200000Y-53875000D03*
%TD*%
%TO.C,R17*%
X130150000Y-58925000D03*
X132150000Y-58925000D03*
%TD*%
%TO.C,R19*%
X130125000Y-64050000D03*
X132125000Y-64050000D03*
%TD*%
%TO.C,R20*%
X130100000Y-69150000D03*
X132100000Y-69150000D03*
%TD*%
D20*
%TO.C,R22*%
X135400000Y-32600000D03*
X135400000Y-30600000D03*
%TD*%
D19*
%TO.C,R8*%
X129975000Y-38700000D03*
X131975000Y-38700000D03*
%TD*%
D21*
%TO.C,IC1*%
X140840000Y-50605000D03*
X140840000Y-49335000D03*
X140840000Y-48065000D03*
X140840000Y-46795000D03*
X140840000Y-45525000D03*
X140840000Y-44255000D03*
X140840000Y-42985000D03*
X140840000Y-41715000D03*
X140840000Y-40445000D03*
X140840000Y-39175000D03*
X140840000Y-37905000D03*
X140840000Y-36635000D03*
X140840000Y-35365000D03*
X140840000Y-34095000D03*
X150140000Y-34095000D03*
X150140000Y-35365000D03*
X150140000Y-36635000D03*
X150140000Y-37905000D03*
X150140000Y-39175000D03*
X150140000Y-40445000D03*
X150140000Y-41715000D03*
X150140000Y-42985000D03*
X150140000Y-44255000D03*
X150140000Y-45525000D03*
X150140000Y-46795000D03*
X150140000Y-48065000D03*
X150140000Y-49335000D03*
X150140000Y-50605000D03*
%TD*%
D22*
%TO.C,Y1*%
X137810000Y-38820000D03*
X137810000Y-41720000D03*
X135510000Y-41720000D03*
X135510000Y-38820000D03*
%TD*%
M02*
